<svg viewBox="102.33100558659214 48.75 812.1508379888269 1072.5000000000002" fill="none" xmlns="http://www.w3.org/2000/svg" xmlns:xlink="http://www.w3.org/1999/xlink" overflow="visible" width="812.1508379888269px" height="1072.5000000000002px"><g id="Master/Character/Avatar and Backdrop"><g id="Background" transform="matrix(-1 0 0 1 1043 64) scale(1.6170542635658915 1.6184615384615384)"><g id="Background/Backdrop 2"><g id="Plant 2"><path id="Fill 1" fill-rule="evenodd" clip-rule="evenodd" d="M210.662 632.982C271.772 588.994 263.925 601.74 339.959 602.7C415.996 603.657 401.329 524.235 384.215 503.461C367.105 482.689 375.662 442.367 424.552 453.364C473.439 464.364 525.996 463.141 506.439 404.491C486.886 345.837 524.243 339.09 558.996 283.523C593.749 227.957 578.72 196.49 548.166 190.382C517.61 184.274 486.886 217.541 461.216 216.318C435.552 215.099 423.329 170.026 392.775 175.453C362.219 180.881 361.969 199.213 340.09 248.09C318.219 296.963 293.772 293.297 263.215 282.3C232.662 271.303 203.328 285.966 187.438 328.731C171.548 371.5 74.1199 544.835 108.169 616.403C108.169 616.403 149.551 676.973 210.662 632.982Z" fill="#d9c9eb"/><path id="Stroke 4" d="M473.407 262.458C474.811 261.578 476.663 262.003 477.542 263.407C478.422 264.811 477.997 266.663 476.593 267.542L474.872 268.637C474.108 269.126 473.245 269.683 472.285 270.306L471.016 271.133C467.783 273.243 464.114 275.68 460.04 278.434L457.623 280.072C445.05 288.62 431.164 298.457 416.277 309.496C370.994 343.072 325.711 380.811 283.457 421.853C206.449 496.652 148.336 573.827 116.778 651.134C116.151 652.668 114.4 653.404 112.866 652.777C111.332 652.151 110.596 650.4 111.223 648.866C143.142 570.676 201.725 492.875 279.277 417.549C321.737 376.307 367.22 338.401 412.703 304.676L415.585 302.545C430.41 291.612 444.212 281.888 456.68 273.462L459.874 271.313C462.98 269.231 465.822 267.354 468.382 265.687L470.948 264.026L473.25 262.557C473.311 262.518 473.364 262.485 473.407 262.458Z" fill="#ffffff"/><path id="Fill 6" fill-rule="evenodd" clip-rule="evenodd" d="M152.035 568C152.035 568 234.142 385.9 313.803 262.909C393.463 139.918 383.657 12.7188 284.39 0.486855C185.124 -11.7418 99.3397 207.186 152.035 568" fill="#a27ccf"/><path id="Stroke 9" d="M262.424 82.3594C263.828 83.1166 264.385 84.832 263.723 86.2603L262.779 88.0594L261.748 90.0588C261.1 91.3258 260.393 92.7267 259.631 94.2592L259.049 95.4333C255.375 102.865 251.279 111.576 246.866 121.494C234.249 149.851 221.629 182.181 209.849 217.912C193.464 267.614 180.056 319.871 170.666 373.975C159.483 438.415 154.396 503.294 156.442 567.905C156.494 569.561 155.194 570.946 153.538 570.998C151.882 571.051 150.497 569.751 150.445 568.095C148.385 503.059 153.504 437.775 164.755 372.949C174.197 318.543 187.677 266.004 204.151 216.034C215.777 180.77 228.219 148.794 240.679 120.645L241.384 119.055C245.501 109.802 249.347 101.586 252.839 94.463L253.67 92.7745C254.87 90.3466 255.947 88.2142 256.89 86.3844L257.763 84.7031L258.359 83.5762C259.146 82.1178 260.965 81.573 262.424 82.3594Z" fill="#18111f"/></g></g></g><g id="Head" transform="translate(267 297) scale(3.5 3.5)"><g id="Head/Short Hair 4"><g id="Short Hair"><path id="SKIN" fill-rule="evenodd" clip-rule="evenodd" d="M152.657 90.1809C145.373 45.6369 123.61 44.3309 82.9817 47.3839C63.9047 48.8169 40.0927 66.0939 42.2237 97.4009C31.0747 93.1319 24.8227 100.16 25.1997 108.558C25.5397 116.098 28.9517 126.031 42.8227 126.031C44.1667 149.026 59.1767 186.07 106.318 186.07C154.452 186.07 158.973 128.808 152.657 90.1809" fill="#ffffff"/><path id="hair" fill-rule="evenodd" clip-rule="evenodd" d="M138.121 170.34C118.077 194.314 72.5216 184.62 57.2356 161.175C49.0796 151.308 44.8676 132.557 44.8196 125.914C44.8126 124.854 43.8816 124.03 42.8226 124.03C27.8566 124.935 22.8666 106.491 30.8506 99.6315C34.5986 96.8085 39.7466 97.7555 43.5586 99.9375C44.1256 100.262 59.2616 99.0255 68.9366 70.0025C87.7926 80.9795 123.159 86.3555 147.697 77.2195C155.497 106.091 156.337 148.278 138.121 170.34M184.717 29.2635C180.871 5.2195 152.544 2.2375 130.5 12.4815C110.583 -11.0815 56.3156 -2.9285 46.9716 30.4715C39.4566 29.0205 31.4976 30.7915 24.3566 35.5425C-14.8494 63.6145 11.7436 122.486 28.2246 130.587C32.4816 144.17 37.8976 152.043 48.7036 154.779C59.0946 182.991 115.317 203.848 141.171 172.93C160.649 149.336 159.705 106.035 151.378 75.6645C170.34 66.3325 186.977 49.3175 184.717 29.2635M36.7832 106.032C33.8272 105.929 33.8272 114.161 36.7832 114.058C39.7392 114.161 39.7392 105.928 36.7832 106.032" fill="#18111f"/></g></g></g><g id="Face" transform="translate(477 598) scale(3.488888888888889 3.488888888888889)"><g id="Face/Happy"><path id="Happy" fill-rule="evenodd" clip-rule="evenodd" d="M28.2306 19.1149C27.9276 19.0909 27.4006 19.0529 26.9546 19.0459C26.6004 19.0306 26.2392 19.0399 25.8777 19.0491C25.7656 19.0519 25.6535 19.0548 25.5416 19.0569C24.5906 19.1039 23.6326 19.1709 22.6836 19.3199C20.7916 19.6309 18.8906 20.0459 17.0996 20.7939C15.3156 21.5319 13.5216 22.3529 11.9156 23.5119C10.3495 24.4885 8.95584 25.7236 7.53129 26.986L7.2006 27.2789L7.1066 27.3619C6.5836 27.8259 5.7816 27.7769 5.3176 27.2529C4.9206 26.8039 4.8996 26.1509 5.2316 25.6809C5.35826 25.502 5.48428 25.3217 5.61063 25.141C6.12273 24.4085 6.64007 23.6685 7.2256 22.9819C7.40976 22.7841 7.59172 22.5831 7.77402 22.3817L7.77412 22.3816C8.35009 21.7454 8.92952 21.1054 9.5926 20.5479C11.2736 19.0099 13.2106 17.7219 15.2756 16.6899C17.3466 15.6659 19.5596 14.8869 21.8466 14.4659C22.9886 14.2479 24.1466 14.0949 25.3156 14.0269C25.4029 14.0245 25.4902 14.022 25.5774 14.0194C26.0776 14.0048 26.5774 13.9902 27.0866 14.0089C27.7016 14.0179 28.2356 14.0559 28.9866 14.1589C30.3556 14.3469 31.3126 15.6099 31.1246 16.9779C30.9436 18.2969 29.7666 19.2339 28.4566 19.1329L28.2306 19.1149ZM75.1516 34.2331L75.1518 34.2333C75.311 34.3531 75.4613 34.4662 75.5939 34.5578L75.9109 34.7778C76.3449 35.0758 76.9209 35.1428 77.4319 34.9038C78.1989 34.5438 78.5299 33.6308 78.1699 32.8638C77.7989 32.0708 77.4159 31.5258 76.9419 30.9228C76.4709 30.3458 75.9229 29.8268 75.3219 29.3548C74.1049 28.4208 72.6519 27.7598 71.0739 27.4608C69.4989 27.1608 67.7849 27.2648 66.2629 27.8108C64.7239 28.3298 63.4249 29.2648 62.3939 30.3228C61.7669 30.9658 61.6329 31.9778 62.1289 32.7748C62.7129 33.7128 63.9459 33.9988 64.8839 33.4148L64.9939 33.3468C65.8869 32.7908 66.7609 32.3488 67.6369 32.1258C68.5109 31.8798 69.3859 31.8518 70.2919 31.9678C71.1909 32.1238 72.1249 32.4158 73.0069 32.8758C73.4559 33.0988 73.9009 33.3648 74.3399 33.6578C74.6089 33.8245 74.892 34.0377 75.1516 34.2331ZM15.3559 33.1489C14.7779 33.8689 14.2989 34.5439 13.8429 35.4509C13.5609 36.0129 13.6899 36.7149 14.1939 37.1339C14.7799 37.6229 15.6529 37.5439 16.1409 36.9569L16.2449 36.8319C16.6249 36.3769 17.1549 35.8029 17.6759 35.3659C18.2069 34.9119 18.7589 34.4969 19.3429 34.1719C20.5099 33.5159 21.7289 33.1369 22.9569 33.1219C23.2679 33.1219 23.5629 33.1339 23.8859 33.1719C24.0074 33.1897 24.1309 33.2013 24.2541 33.2129C24.4637 33.2326 24.6724 33.2522 24.8689 33.3019C25.5169 33.3989 26.1039 33.6059 26.6549 33.8319C27.2089 34.0499 27.6909 34.3549 28.1089 34.6979L28.1793 34.7601C28.3569 34.9166 28.5327 35.0714 28.6749 35.2419C28.7544 35.3279 28.821 35.4172 28.8844 35.5021L28.8999 35.5229L28.9889 35.6479C28.9955 35.6549 29.0061 35.6721 29.0147 35.686C29.0293 35.7099 29.038 35.724 29.0109 35.6609C29.5219 36.8059 30.8639 37.3199 32.0099 36.8089C33.1549 36.2979 33.6679 34.9559 33.1569 33.8109C33.0454 33.569 32.9922 33.4763 32.9243 33.3582L32.9243 33.3582L32.8909 33.2999C32.8277 33.1864 32.7665 33.0933 32.7026 32.9962L32.7026 32.9961L32.6807 32.9629L32.6539 32.9219C32.4899 32.6889 32.3219 32.4649 32.1429 32.2599C31.7879 31.8419 31.4029 31.4719 30.9899 31.1399C30.1599 30.4899 29.2469 29.9779 28.3059 29.6319C27.3619 29.3069 26.4009 29.0749 25.4599 28.9929C25.1383 28.9442 24.8236 28.9348 24.5093 28.9255C24.3593 28.9211 24.2094 28.9166 24.0589 28.9079C23.5839 28.9009 23.0799 28.9419 22.5939 29.0009C20.6349 29.2639 18.7769 30.0669 17.3229 31.2359C16.5879 31.8099 15.9319 32.4529 15.3559 33.1489ZM62.3409 14.7222C61.7589 14.8522 61.2579 14.9932 60.5749 15.2282C59.3989 15.6382 58.7229 16.9002 59.0639 18.1152C59.4179 19.3782 60.7289 20.1162 61.9929 19.7612L62.1749 19.7102C62.4729 19.6262 62.9709 19.5002 63.3969 19.4102C63.8399 19.3092 64.2949 19.2352 64.7519 19.1652L66.1299 18.9912L67.5179 18.9022C69.3719 18.8482 71.2289 18.9972 73.0269 19.4162C74.8229 19.8362 76.5779 20.4692 78.2249 21.3712C79.7834 22.1207 81.1811 23.1734 82.6181 24.2557L82.6202 24.2573C82.7527 24.3571 82.8856 24.4571 83.0189 24.5572L83.1219 24.6352C83.6039 24.9972 84.2849 25.0072 84.7829 24.6202C85.3809 24.1562 85.4889 23.2962 85.0239 22.6992C84.6889 22.2682 84.3369 21.8462 83.9819 21.4242C83.8828 21.3106 83.7865 21.1938 83.6901 21.0769L83.6897 21.0764C83.4332 20.7652 83.1758 20.453 82.8619 20.1972C82.693 20.0451 82.5254 19.8905 82.3574 19.7354C81.7047 19.133 81.046 18.5252 80.2849 18.0432C78.4679 16.6972 76.3519 15.7482 74.1699 15.1012C71.9859 14.4432 69.6999 14.0942 67.4269 14.1352C66.2909 14.1592 65.1539 14.2112 64.0279 14.3992C63.4659 14.4912 62.9029 14.5892 62.3409 14.7222ZM49.8507 33.5661C49.9857 35.7441 50.2307 37.9171 50.7947 39.7871C50.9457 40.2411 51.1127 40.6851 51.3017 41.0401C51.4857 41.3961 51.7177 41.6741 51.8387 41.7411C52.0857 41.9211 52.5727 42.2431 53.0317 42.5291C53.5057 42.8291 54.0127 43.1521 54.5267 43.5211C55.5277 44.2751 56.6517 45.2241 57.3767 46.7691C57.6997 47.5551 57.9277 48.3791 57.8467 49.4021C57.7707 50.4071 57.2947 51.3651 56.7367 51.9991C55.6067 53.2931 54.3797 53.8321 53.2447 54.3281C52.0907 54.7841 50.9707 55.1141 49.8537 55.3671C49.0097 55.5591 48.1707 55.0301 47.9797 54.1861C47.8167 53.4661 48.1767 52.7511 48.8097 52.4371L48.8177 52.4331C49.1421 52.272 49.4659 52.1169 49.7854 51.9638L49.7855 51.9638C50.4477 51.6465 51.0914 51.338 51.6837 51.0041C52.5557 50.5381 53.3537 49.9641 53.6657 49.5191C53.8213 49.2918 53.8326 49.1817 53.8446 49.0661L53.8447 49.0651C53.8567 48.9661 53.7887 48.6711 53.6807 48.4311C53.4677 47.9181 52.8827 47.2931 52.1167 46.6951C51.7357 46.3871 51.3147 46.0811 50.8587 45.7541C50.7412 45.6669 50.624 45.5836 50.5047 45.499C50.1511 45.2479 49.7799 44.9844 49.3327 44.5671C48.6197 43.8781 48.2727 43.1671 47.9977 42.5051C47.7217 41.8371 47.5877 41.1951 47.4717 40.5621C47.0527 38.0461 47.2987 35.6771 47.7847 33.3941C47.9047 32.8291 48.4597 32.4691 49.0237 32.5891C49.4937 32.6891 49.8217 33.0891 49.8497 33.5451L49.8507 33.5661ZM34.3663 68.3769C39.5273 71.3069 60.7703 70.7559 67.5133 66.4909C68.1083 64.4579 67.3563 63.5219 67.3563 63.5219C67.3563 63.5219 47.4373 66.4319 34.3803 64.8919C34.3803 64.8919 33.9463 67.5379 34.3663 68.3769ZM68.0263 60.2979C69.4483 60.0149 70.7503 60.5149 71.5093 61.6299C74.5893 68.6889 64.8293 80.1889 50.8123 80.1239C41.4983 80.6109 30.2033 74.9489 29.7223 68.5269C29.2853 65.7529 31.7743 61.0039 35.6163 61.7009C38.3533 62.1969 44.8963 62.3799 51.2903 62.1519C59.6542 61.8579 67.6242 60.3728 68.0121 60.3005C68.02 60.2991 68.0247 60.2982 68.0263 60.2979Z" fill="#18111f"/></g></g><g id="Accessories" transform="translate(449 590) scale(3.495145631067961 3.5)"><g id="Accessories/Glasses"><path id="Glass" fill-rule="evenodd" clip-rule="evenodd" d="M77.2051 44.2671C67.8901 44.2671 60.8651 37.0141 60.8651 27.3961C60.8651 17.8041 68.3521 10.0001 77.5561 10.0001C87.1111 10.0001 94.5971 17.3391 94.5971 26.7081C94.5971 36.2261 86.6321 44.2671 77.2051 44.2671M25.2251 50.9541C15.8881 50.9541 8.00012 41.9171 8.00012 31.2221C8.00012 21.3761 16.2651 13.3671 26.4241 13.3671C36.0901 13.3671 43.9541 21.9761 43.9541 32.5591C43.9541 42.5301 35.3771 50.9541 25.2251 50.9541M77.5561 6.0001C68.7881 6.0001 61.2971 11.6771 58.2881 19.6551C54.5741 19.3811 47.9351 20.2451 45.0411 20.9321C41.3091 14.0241 34.3641 9.3671 26.4241 9.3671C14.0591 9.3671 4.00012 19.1711 4.00012 31.2221C4.00012 44.3081 13.5211 54.9541 25.2251 54.9541C37.5451 54.9541 47.9541 44.6981 47.9541 32.5591C47.9541 29.7721 47.4951 27.0991 46.6541 24.6211C49.1291 24.1271 54.4851 23.5661 57.2161 23.5671C56.9971 24.8111 56.8651 26.0871 56.8651 27.3961C56.8651 39.1001 65.8001 48.2671 77.2051 48.2671C88.8011 48.2671 98.5971 38.3941 98.5971 26.7081C98.5971 15.0961 89.3541 6.0001 77.5561 6.0001" fill="#a27ccf"/></g></g><g id="Facial Hair" transform="translate(484 793) scale(314 210)"><g id="Facial Hair/None" stroke="none" stroke-width="1" fill="none" fill-rule="evenodd" fill-opacity="0"/></g></g></svg>