<svg viewBox="102.33100558659214 48.75 795.9078212290502 1072.5000000000002" fill="none" xmlns="http://www.w3.org/2000/svg" xmlns:xlink="http://www.w3.org/1999/xlink" overflow="visible" width="795.9078212290502px" height="1072.5000000000002px"><g id="Master/Character/Avatar and Backdrop"><g id="Background" transform="matrix(-1 0 0 1 1043 64) scale(1.6170542635658915 1.6184615384615384)"><g id="Background/Backdrop 2"><g id="Plant 2"><path id="Fill 1" fill-rule="evenodd" clip-rule="evenodd" d="M210.662 632.982C271.772 588.994 263.925 601.74 339.959 602.7C415.996 603.657 401.329 524.235 384.215 503.461C367.105 482.689 375.662 442.367 424.552 453.364C473.439 464.364 525.996 463.141 506.439 404.491C486.886 345.837 524.243 339.09 558.996 283.523C593.749 227.957 578.72 196.49 548.166 190.382C517.61 184.274 486.886 217.541 461.216 216.318C435.552 215.099 423.329 170.026 392.775 175.453C362.219 180.881 361.969 199.213 340.09 248.09C318.219 296.963 293.772 293.297 263.215 282.3C232.662 271.303 203.328 285.966 187.438 328.731C171.548 371.5 74.1199 544.835 108.169 616.403C108.169 616.403 149.551 676.973 210.662 632.982Z" fill="#ffc73a"/><path id="Stroke 4" d="M473.407 262.458C474.811 261.578 476.663 262.003 477.542 263.407C478.422 264.811 477.997 266.663 476.593 267.542L474.872 268.637C474.108 269.126 473.245 269.683 472.285 270.306L471.016 271.133C467.783 273.243 464.114 275.68 460.04 278.434L457.623 280.072C445.05 288.62 431.164 298.457 416.277 309.496C370.994 343.072 325.711 380.811 283.457 421.853C206.449 496.652 148.336 573.827 116.778 651.134C116.151 652.668 114.4 653.404 112.866 652.777C111.332 652.151 110.596 650.4 111.223 648.866C143.142 570.676 201.725 492.875 279.277 417.549C321.737 376.307 367.22 338.401 412.703 304.676L415.585 302.545C430.41 291.612 444.212 281.888 456.68 273.462L459.874 271.313C462.98 269.231 465.822 267.354 468.382 265.687L470.948 264.026L473.25 262.557C473.311 262.518 473.364 262.485 473.407 262.458Z" fill="#ffffff"/><path id="Fill 6" fill-rule="evenodd" clip-rule="evenodd" d="M152.035 568C152.035 568 234.142 385.9 313.803 262.909C393.463 139.918 383.657 12.7188 284.39 0.486855C185.124 -11.7418 99.3397 207.186 152.035 568" fill="#b78400"/><path id="Stroke 9" d="M262.424 82.3594C263.828 83.1166 264.385 84.832 263.723 86.2603L262.779 88.0594L261.748 90.0588C261.1 91.3258 260.393 92.7267 259.631 94.2592L259.049 95.4333C255.375 102.865 251.279 111.576 246.866 121.494C234.249 149.851 221.629 182.181 209.849 217.912C193.464 267.614 180.056 319.871 170.666 373.975C159.483 438.415 154.396 503.294 156.442 567.905C156.494 569.561 155.194 570.946 153.538 570.998C151.882 571.051 150.497 569.751 150.445 568.095C148.385 503.059 153.504 437.775 164.755 372.949C174.197 318.543 187.677 266.004 204.151 216.034C215.777 180.77 228.219 148.794 240.679 120.645L241.384 119.055C245.501 109.802 249.347 101.586 252.839 94.463L253.67 92.7745C254.87 90.3466 255.947 88.2142 256.89 86.3844L257.763 84.7031L258.359 83.5762C259.146 82.1178 260.965 81.573 262.424 82.3594Z" fill="#1b1300"/></g></g></g><g id="Head" transform="translate(267 297) scale(3.5 3.5)"><g id="Head/Short Hair 3"><g id="Short Hair"><path id="SKIN" fill-rule="evenodd" clip-rule="evenodd" d="M81.0758 62.1135C71.3628 66.0515 56.3708 95.9825 56.3708 95.9825L30.4718 91.9975C30.4718 91.9975 18.5178 123.077 34.8538 139.414C51.1908 155.751 48.3338 150.709 50.4328 154.245C52.5328 157.78 61.8278 181.823 103.041 183.37C144.253 184.917 152.636 146.069 153.299 141.981C153.961 137.893 154.846 109.055 153.409 103.089C151.973 97.1225 151.641 79.0525 146.559 73.3675C135.489 60.9835 96.4698 55.8715 81.0758 62.1135" fill="#ffffff"/><path id="ink" fill-rule="evenodd" clip-rule="evenodd" d="M54.5636 157.2C71.1326 185.743 122.727 192.091 142.809 162.458C154.743 146.339 153.794 110.994 145.198 84.8123C122.76 93.1483 95.2986 92.8023 73.5856 87.6983C71.8546 100.607 52.3636 115.69 49.4986 112.708C48.0571 111.207 47.3274 109.956 46.6704 108.829C45.6482 107.075 44.8021 105.624 41.7256 104.005C34.6046 100.74 27.6786 106.397 28.2786 114.255C28.5686 120.699 30.9626 131.51 43.7336 131.51C44.7426 131.51 45.5936 132.262 45.7186 133.264C46.7766 141.788 49.8866 150.041 54.5636 157.2ZM62.3376 29.1543C94.8356 16.7173 184.372 42.7283 155.453 77.9443C159.935 86.6453 166.021 103.11 155.213 113.99C158.406 147.561 149.407 177.019 116.778 184.032C90.8126 189.849 62.9936 180.442 49.8706 157.206C19.0406 155.166 -1.51242 80.6453 37.0106 63.9163C32.7296 50.9193 42.6646 36.4133 62.3376 29.1543ZM36.355 110.837C33.4 110.734 33.4 118.966 36.355 118.863C39.311 118.966 39.311 110.733 36.355 110.837Z" fill="#1b1300"/></g></g></g><g id="Face" transform="translate(477 598) scale(3.488888888888889 3.488888888888889)"><g id="Face/Grinning"><g id="grinning"><path id="face" fill-rule="evenodd" clip-rule="evenodd" d="M70.6572 13.1827C67.4944 12.5308 64.3252 11.8776 61.1045 12.8692C55.3895 11.1662 65.1065 7.43218 67.3785 8.07318C70.2865 7.40518 79.5305 11.7002 73.2735 13.6872C72.4012 13.5421 71.5295 13.3625 70.6572 13.1827ZM78.2569 27.629C82.4909 23.371 71.7619 18.207 68.0579 19.213C64.4589 19.335 56.6799 23.636 58.1689 27.599C58.7469 28.154 59.6659 28.137 60.2219 27.559C64.0379 22.72 72.0709 21.546 75.7659 26.983C76.3129 27.773 77.3679 28.066 78.2569 27.629ZM52.2144 40.8005C63.1074 44.9485 59.0084 57.4945 47.9304 56.2355C45.3594 56.2665 45.3464 52.2245 47.9124 52.2355C50.0754 52.1835 53.3144 51.9015 54.2664 50.0175C55.1331 46.9815 53.3318 46.0069 51.4877 45.0092C49.9849 44.1961 48.4536 43.3675 48.3144 41.3955C47.9124 39.5215 45.9714 18.9115 50.5804 25.7495C50.7067 27.1148 50.8067 28.4915 50.9069 29.8709V29.8709C51.1741 33.549 51.4428 37.2464 52.2144 40.8005ZM29.3635 32.0245C28.6765 31.2305 27.7095 30.6935 26.5635 30.5235C22.2194 29.9714 20.4519 32.9953 19.0497 35.3941C18.0465 37.1103 17.2303 38.5066 15.7915 38.0445C13.5987 36.7511 15.254 34.1465 16.4831 32.2126L16.4831 32.2126C16.7393 31.8094 16.977 31.4354 17.1575 31.1085C19.3685 28.0755 23.0895 25.9165 27.0185 26.2885C35.0425 26.9145 34.4645 34.8245 29.3635 32.0245ZM20.9268 17.044C21.4479 16.875 22.0847 16.8894 22.7267 16.9038C23.9006 16.9303 25.0917 16.9572 25.6238 15.864C25.3928 11.079 12.1038 13.267 9.65679 15.986C8.25179 17.074 9.27579 19.54 11.0728 19.244C12.5781 19.0282 14.059 18.6137 15.5425 18.1985L15.5425 18.1985C17.3181 17.7016 19.0974 17.2036 20.9268 17.044ZM68.809 73.8319C69.393 73.4209 69.947 72.9889 70.419 72.5069C73.718 68.7009 72.336 65.4609 67.147 66.6029C67.833 68.9829 68.379 71.3939 68.809 73.8319ZM62.78 76.7049C63.527 76.4559 64.268 76.1929 64.989 75.8969C65.745 75.5799 66.477 75.2189 67.185 74.8339C66.444 72.2039 65.857 69.5389 65.434 66.8389C63.973 67.0739 62.469 67.3689 60.985 67.6869C61.1842 68.4777 61.4451 69.2861 61.7091 70.1043C62.4126 72.2844 63.1385 74.5337 62.78 76.7049ZM44.95 79.2069C47.159 79.2329 49.374 79.1409 51.572 78.9509C51.8318 78.9255 52.0928 78.8958 52.3531 78.8661C52.4215 78.8584 52.4898 78.8506 52.558 78.8429C51.357 76.0159 51.111 72.6759 51.345 69.6249C49.296 69.9759 47.223 70.2769 45.141 70.4559C45.252 73.3769 45.26 76.2979 44.95 79.2069ZM37.442 70.5189C37.586 70.6949 36.808 78.2129 36.698 78.4819C38.759 78.8539 40.843 79.0539 42.943 79.1529C42.838 76.2889 43.05 73.4359 43.353 70.5889C41.399 70.7019 39.422 70.6969 37.442 70.5189ZM27.315 68.7919C25.53 70.6789 25.746 74.2899 28.207 75.5929C29.821 76.6959 31.863 77.3689 33.797 77.8679C33.8142 77.8186 33.8793 77.1022 33.9682 76.1238C34.1716 73.8848 34.4997 70.2735 34.6643 70.1417C34.6699 70.1415 34.6754 70.1412 34.681 70.1409C34.6756 70.1368 34.6701 70.1371 34.6643 70.1417C33.7366 70.1858 32.5825 69.7182 31.4396 69.2552C29.8143 68.5967 28.2117 67.9473 27.315 68.7919ZM54.0139 74.5885C54.0446 75.2468 54.0751 75.9016 54.139 76.5409C54.1355 76.7181 54.1441 76.894 54.1528 77.0699C54.1786 77.595 54.2044 78.1201 53.907 78.6789C56.246 78.3699 58.565 77.9269 60.807 77.3069C59.3388 75.7116 59.0629 73.3112 58.7983 71.0091C58.688 70.0498 58.5798 69.1076 58.388 68.2479C56.628 68.6249 54.85 68.9839 53.055 69.3169C53.8436 70.9353 53.9294 72.7754 54.0139 74.5885ZM54.4814 64.788C62.3454 63.0286 69.7569 61.3704 74.391 64.3989C87.643 88.2899 2.60299 87.6909 27.085 65.0299C28.6115 64.483 30.069 65.0657 31.4619 65.6225C31.5107 65.642 31.5594 65.6615 31.608 65.6809C38.0862 68.456 46.5159 66.5701 54.4814 64.788Z" fill="#1b1300"/><path id="dots" fill-rule="evenodd" clip-rule="evenodd" d="M70.0977 34.2286C68.6007 34.2416 68.6217 36.5646 70.1177 36.5516C71.6157 36.5396 71.5927 34.2156 70.0977 34.2286ZM31.3145 43.7022C33.3295 42.7622 31.8725 39.6282 29.8535 40.5692C27.8375 41.5102 29.2945 44.6432 31.3145 43.7022ZM23.5801 45.4024C25.0581 44.7134 23.9891 42.4154 22.5091 43.1054C21.0301 43.7954 22.0991 46.0924 23.5801 45.4024ZM26.7139 50.2315C24.2739 51.3705 26.0379 55.1655 28.4839 54.0245C30.9239 52.8865 29.1589 49.0905 26.7139 50.2315ZM19.0088 51.3682C17.6668 48.1582 13.3718 53.1872 17.2638 53.8472C18.8638 54.4342 19.8498 52.6372 19.0088 51.3682ZM69.461 45.6202C71.935 45.5992 71.898 41.7632 69.429 41.7832C66.956 41.8052 66.992 45.6412 69.461 45.6202ZM76.253 39.6846C76.059 41.0656 77.582 42.1646 78.675 41.0466C81.635 38.9666 76.097 36.4986 76.253 39.6846ZM63.0196 35.0274C60.9776 35.0454 61.0076 38.2134 63.0456 38.1954C65.0886 38.1784 65.0586 35.0104 63.0196 35.0274Z" fill="#b78400"/></g></g></g><g id="Accessories" transform="translate(449 590) scale(360 210)"><g id="Accessories/None" stroke="none" stroke-width="1" fill="none" fill-rule="evenodd" fill-opacity="0"/></g><g id="Facial Hair" transform="translate(484 793) scale(314 210)"><g id="Facial Hair/None" stroke="none" stroke-width="1" fill="none" fill-rule="evenodd" fill-opacity="0"/></g></g></svg>