<?xml version="1.0" encoding="UTF-8" standalone="no"?>
<svg
   viewBox="30 90 2250 1499.9999999999998"
   fill="none"
   overflow="visible"
   width="2250px"
   height="1499.9999999999998px"
   version="1.1"
   id="svg13"
   sodipodi:docname="sesion-registro.svg"
   inkscape:export-filename="sesion-registro.svg"
   inkscape:export-xdpi="88.512001"
   inkscape:export-ydpi="88.512001"
   inkscape:version="1.3.2 (091e20e, 2023-11-25, custom)"
   xmlns:inkscape="http://www.inkscape.org/namespaces/inkscape"
   xmlns:sodipodi="http://sodipodi.sourceforge.net/DTD/sodipodi-0.dtd"
   xmlns="http://www.w3.org/2000/svg"
   xmlns:svg="http://www.w3.org/2000/svg">
  <defs
     id="defs13" />
  <sodipodi:namedview
     id="namedview13"
     pagecolor="#505050"
     bordercolor="#ffffff"
     borderopacity="1"
     inkscape:showpageshadow="0"
     inkscape:pageopacity="0"
     inkscape:pagecheckerboard="1"
     inkscape:deskcolor="#505050"
     inkscape:zoom="0.32933333"
     inkscape:cx="529.8583"
     inkscape:cy="630.06073"
     inkscape:window-width="1366"
     inkscape:window-height="697"
     inkscape:window-x="-8"
     inkscape:window-y="-8"
     inkscape:window-maximized="1"
     inkscape:current-layer="svg13" />
  <g
     id="Master/Scenes/Sitting in the Park">
    <g
       id="Big Plants"
       transform="translate(1411.5 153) scale(1 1)">
      <g
         id="Big Plants/5">
        <g
           id="Plant 2">
          <path
             id="Fill 1"
             fill-rule="evenodd"
             clip-rule="evenodd"
             d="M370.958 1338.61C447.375 1283.59 437.563 1299.53 532.641 1300.74C627.723 1301.93 609.383 1202.59 587.983 1176.6C566.587 1150.62 577.287 1100.19 638.423 1113.94C699.555 1127.7 765.276 1126.17 740.821 1052.81C716.37 979.446 763.084 971.006 806.542 901.503C850 832 831.206 792.64 793 785C754.789 777.359 716.37 818.971 684.27 817.441C652.179 815.916 636.894 759.538 598.687 766.327C560.477 773.116 560.164 796.046 532.806 857.182C505.455 918.314 474.885 913.729 436.675 899.973C398.468 886.218 361.788 904.558 341.918 958.05C322.047 1011.55 200.215 1228.36 242.793 1317.88C242.793 1317.88 294.541 1393.64 370.958 1338.61Z"
             fill="#141414" />
          <path
             id="Stroke 4"
             d="M704.541 876.405C705.389 877.756 705.028 879.523 703.747 880.439L703.519 880.588L702.228 881.408C701.344 881.973 700.336 882.622 699.206 883.355L698.207 884.003C693.797 886.873 688.679 890.268 682.911 894.172L680.424 895.86C665.001 906.354 647.982 918.413 629.742 931.931L628.26 933.03C571.714 975.03 515.168 1022.24 462.402 1073.58C366.212 1167.17 293.619 1263.74 254.182 1360.51C253.557 1362.05 251.806 1362.78 250.272 1362.16C248.737 1361.53 248 1359.78 248.626 1358.25C288.422 1260.59 361.486 1163.4 458.217 1069.28C511.19 1017.74 567.936 970.362 624.683 928.213L627.651 926.013C645.892 912.525 662.9 900.501 678.302 890.048L682.113 887.472C686.034 884.832 689.633 882.442 692.889 880.31L695.943 878.319C696.758 877.791 697.511 877.305 698.201 876.862L700.405 875.459C701.808 874.578 703.66 875.001 704.541 876.405Z"
             fill="#ffffff" />
          <path
             id="Fill 6"
             fill-rule="evenodd"
             clip-rule="evenodd"
             d="M298.999 1257.12C298.999 1257.12 401.397 1029.57 500.743 875.882C600.09 722.193 587.86 563.244 464.063 547.959C340.265 532.679 233.282 806.251 298.999 1257.12"
             fill="#8d8d8d" />
          <path
             id="Stroke 9"
             d="M436.136 650.784C437.537 651.546 438.088 653.264 437.419 654.69L437.267 654.981L436.356 656.695L435.324 658.669C434.463 660.33 433.514 662.188 432.482 664.239L431.531 666.137C427.046 675.125 422.064 685.607 416.703 697.503L416.147 698.738C400.219 734.203 384.288 774.635 369.417 819.32C348.733 881.476 331.808 946.826 319.955 1014.49C305.837 1095.08 299.414 1176.22 301.998 1257.03C302.051 1258.69 300.751 1260.07 299.095 1260.12C297.439 1260.18 296.054 1258.88 296.001 1257.22C293.404 1175.98 299.859 1094.43 314.045 1013.45C325.951 945.486 342.95 879.851 363.724 817.426C378.412 773.29 394.133 733.278 409.874 698.066L410.674 696.28C415.719 685.046 420.442 675.037 424.744 666.317L426.162 663.458C427.473 660.831 428.667 658.482 429.735 656.416L430.512 654.919C430.827 654.316 431.113 653.772 431.37 653.288L432.067 651.984C432.859 650.529 434.681 649.991 436.136 650.784Z"
             fill="#141414" />
        </g>
      </g>
    </g>
    <g
       id="g1"
       transform="matrix(-1 0 0 1 1177 153) scale(1 1)">
      <g
         id="Big Plants/4">
        <g
           id="Plant">
          <path
             id="Assets 14"
             d="M649.891 1359.3C649.891 1359.3 671.593 1317.25 628.087 1250.96C535.969 1110.59 684.943 1178.29 717.898 1082.43C744.769 1004.27 700.032 925.294 744.955 904.37C818.491 870.122 895.147 819.634 845.91 762.509C811.362 722.426 692.352 726.041 645.687 849.391C616.486 926.579 501.421 875.087 399.331 997.37C368.926 1033.79 302.157 1187.91 337.194 1359.3H649.891Z"
             fill="#141414" />
          <g
             id="Assets 15">
            <path
               id="Fill-4"
               d="M527.902 1359.3C527.902 1359.3 577.601 1297.7 553.496 1230.16C534.053 1175.67 481.882 1160.77 480.133 1114.87C477.929 1057 535.994 1064.96 545.182 993.499C552.32 937.97 518.356 886.901 520.591 857.368C523.973 812.687 600.34 789.5 626.561 722.308C659.807 637.117 556.304 617.657 510.202 646.466C452.333 682.63 450.377 736.586 425.009 769.06C396.199 805.942 306.014 814.223 293.066 905.158C284.855 962.831 318.535 1012.94 302.662 1061.77C290.87 1098.04 220.477 1114.05 205.661 1194.2C189.715 1280.47 254.03 1359.3 254.03 1359.3H527.902Z"
               fill="#c3c3c3" />
            <path
               id="Fill-6"
               d="M383.786 1359.3H377.713C375.533 1345.22 356.426 1212.15 384.656 1053.67C408.968 917.18 482.648 789.584 543.494 715.685C544.547 714.406 546.436 714.223 547.717 715.276C548.996 716.329 549.179 718.22 548.126 719.5C514.805 759.968 481.808 811.733 455.213 865.259C423.698 928.684 401.344 994.199 390.563 1054.72C361.594 1217.35 382.763 1352.97 383.786 1359.3"
               fill="#070707" />
          </g>
        </g>
      </g>
    </g>
    <path
       id="Path 6 (Stroke)"
       fill-rule="evenodd"
       clip-rule="evenodd"
       d="M2266 1516.5H57V1512.5H2266V1516.5Z"
       fill="#141414" />
    <g
       id="g2"
       transform="matrix(-1 0 0 1 645 663.5) scale(1 1)">
      <g
         id="Plant/Plant 2">
        <g
           id="Group">
          <g
             id="Leaf 2">
            <path
               id="path1"
               fill-rule="evenodd"
               clip-rule="evenodd"
               d="M275.713 753.87C275.713 753.87 218.04 665.056 273.065 584.394C312.203 527.02 357.425 520.084 366.42 515.14C420.309 485.518 385.138 673.208 275.713 753.87"
               fill="#8d8d8d" />
            <path
               id="Fill 4"
               fill-rule="evenodd"
               clip-rule="evenodd"
               d="M271.191 853.385C270.544 853.385 269.911 853.073 269.525 852.495C268.097 850.354 267.565 814.568 273.116 768.82C278.331 725.841 290.362 662.298 318.058 603.646C318.531 602.648 319.722 602.224 320.721 602.692C321.719 603.164 322.147 604.356 321.675 605.355C294.549 662.798 282.599 725.045 277.352 767.148C271.426 814.69 272.45 847.775 273.039 850.624C273.396 851.488 273.106 852.511 272.298 853.049C271.957 853.277 271.572 853.385 271.191 853.385"
               fill="#141414" />
          </g>
          <path
             id="Leaf 2_2"
             fill-rule="evenodd"
             clip-rule="evenodd"
             d="M209.847 792.443C236.659 785.53 244.575 723.123 209.862 672.237C184.975 635.754 159.773 627.248 148.2 628.733C121.409 632.169 128.263 805.698 205.932 793.224C206.345 795.904 206.706 798.456 207.021 800.876C210.96 831.11 208.96 848.761 208.486 850.578C208.099 851.451 208.385 852.503 209.207 853.049C209.548 853.277 209.933 853.385 210.314 853.385C210.961 853.385 211.595 853.073 211.98 852.495C213.069 850.86 215.532 829.171 209.847 792.443Z"
             fill="#141414" />
          <g
             id="Leaf 1">
            <path
               id="Assets 97"
               fill-rule="evenodd"
               clip-rule="evenodd"
               d="M433.37 792.597C406.044 786.523 397.723 723.528 432.712 672.237C457.599 635.754 482.801 627.248 494.374 628.733C521.536 632.216 514.114 810.543 433.37 792.597"
               fill="#8d8d8d" />
            <path
               id="Path"
               fill-rule="evenodd"
               clip-rule="evenodd"
               d="M436.349 853.385C436.73 853.385 437.115 853.277 437.456 853.049C438.278 852.503 438.564 851.451 438.177 850.578C437.703 848.761 435.703 831.11 439.642 800.876C443.198 773.589 452.536 729.526 476.837 674.559C477.283 673.549 476.827 672.368 475.817 671.922C474.81 671.474 473.626 671.931 473.179 672.942C426.103 779.423 432.692 849.505 434.683 852.495C435.068 853.073 435.702 853.385 436.349 853.385V853.385Z"
               fill="#141414" />
          </g>
        </g>
      </g>
    </g>
    <g
       id="Object"
       transform="translate(1298.5 -87) scale(1 1)" />
    <g
       id="Seat"
       transform="translate(809 876) scale(1.0636493535004845 1.0636493389423076)">
      <g
         id="Seat/Bench">
        <g
           id="Chair">
          <path
             id="path3"
             fill-rule="evenodd"
             clip-rule="evenodd"
             d="M173.653 399.414L108.762 632H136.543L231.465 399.414H173.653Z"
             fill="#8d8d8d" />
          <path
             id="Fill 2"
             fill-rule="evenodd"
             clip-rule="evenodd"
             d="M440.148 399.414L545.266 632.414H563.032L499.369 399.414H440.148Z"
             fill="#8d8d8d" />
          <path
             id="path4"
             fill-rule="evenodd"
             clip-rule="evenodd"
             d="M501.255 402.388H167.24C166.397 402.388 165.644 401.859 165.358 401.066C164.485 398.64 77.5138 157.125 34.8978 37.8012C30.3708 25.1252 34.1008 14.2822 44.3998 10.1762C63.0888 2.7292 105.054 18.8112 138.099 93.6882L220.811 307.133H501.255C502.359 307.133 503.255 308.029 503.255 309.133V400.388C503.255 401.492 502.359 402.388 501.255 402.388"
             fill="#141414" />
          <path
             id="Path_2"
             fill-rule="evenodd"
             clip-rule="evenodd"
             d="M168.647 398.388H499.256V311.133H219.442C218.616 311.133 217.876 310.625 217.577 309.856L134.405 95.2192C104.229 26.8452 64.4705 6.4802 45.8825 13.8922C37.6355 17.1802 34.8705 25.8262 38.6665 36.4552C79.6395 151.18 161.617 378.865 168.647 398.388"
             fill="#ffffff" />
        </g>
      </g>
    </g>
    <g
       id="g12"
       transform="translate(600.059 508) scale(1 1)">
      <g
         id="Master/Character/Sitting">
        <g
           id="Lower Body Sit"
           transform="translate(264 454) scale(1 1)">
          <g
             id="Lower Body Sit/Sitting Chill">
            <g
               id="Sitting">
              <g
                 id="Assets 40">
                <path
                   id="SKIN"
                   fill-rule="evenodd"
                   clip-rule="evenodd"
                   d="M587.587 480.917L624.608 545.487L695.204 537.739L663.35 457.672"
                   fill="#ffffff" />
                <path
                   id="path5"
                   fill-rule="evenodd"
                   clip-rule="evenodd"
                   d="M624.606 547.487C623.896 547.487 623.231 547.108 622.872 546.482L585.851 481.912C585.302 480.953 585.633 479.731 586.591 479.181C587.55 478.633 588.772 478.965 589.322 479.922L625.691 543.356L692.375 536.038L661.491 458.411C661.083 457.384 661.584 456.221 662.61 455.813C663.635 455.404 664.8 455.905 665.208 456.932L697.062 537C697.293 537.58 697.24 538.234 696.918 538.769C696.596 539.304 696.043 539.659 695.421 539.727L624.825 547.475C624.752 547.483 624.679 547.487 624.606 547.487"
                   fill="#141414" />
                <path
                   id="Fill 22"
                   fill-rule="evenodd"
                   clip-rule="evenodd"
                   d="M613.36 538.133C613.523 537.097 614.459 536.363 615.505 536.451C616.501 536.536 617.761 536.66 619.248 536.805C628.35 537.696 647.292 539.55 664.928 537.928C664.944 537.927 664.958 537.925 664.973 537.924C675.362 536.959 684.234 533.269 689.958 527.531C690.412 527.075 691.058 526.868 691.696 526.97C722.695 532.04 745.091 535.703 762.302 545.008C765.327 546.644 776.369 553.983 775.136 560.013C774.566 562.802 771.768 564.448 766.82 564.907C748.753 566.584 709.839 570.298 675.506 573.575C647.725 576.228 623.734 578.518 614.699 579.356C613.745 579.445 612.842 579.092 612.159 578.363C608.176 574.116 611.672 548.814 613.36 538.133"
                   fill="#a5a5a5" />
                <path
                   id="Fill 24"
                   fill-rule="evenodd"
                   clip-rule="evenodd"
                   d="M615.877 588.092L772.042 573.596C774.638 573.355 776.546 571.056 776.305 568.461L776.161 566.907C775.92 564.313 773.621 562.404 771.025 562.645L614.86 577.141C612.266 577.381 610.356 579.681 610.598 582.276L610.742 583.829C610.982 586.424 613.282 588.332 615.877 588.092"
                   fill="#141414" />
                <path
                   id="Fill 27"
                   fill-rule="evenodd"
                   clip-rule="evenodd"
                   d="M724.455 542.853C725.246 542.78 725.964 542.263 726.256 541.467C728.931 534.181 735.473 535.296 736.21 535.45C737.355 535.683 738.482 534.952 738.726 533.808C738.967 532.664 738.246 531.54 737.103 531.29C733.376 530.477 725.476 531.252 722.264 540.002C721.858 541.105 722.424 542.327 723.526 542.731C723.833 542.844 724.149 542.881 724.455 542.853"
                   fill="#141414" />
                <path
                   id="Fill 29"
                   fill-rule="evenodd"
                   clip-rule="evenodd"
                   d="M705.281 539.489C706.072 539.415 706.79 538.899 707.082 538.103C709.758 530.817 716.3 531.932 717.036 532.086C718.181 532.32 719.308 531.587 719.551 530.443C719.793 529.3 719.071 528.176 717.928 527.926C714.199 527.114 706.3 527.89 703.09 536.638C702.684 537.741 703.25 538.963 704.353 539.367C704.66 539.479 704.975 539.517 705.281 539.489"
                   fill="#141414" />
              </g>
              <g
                 id="Assets 41">
                <path
                   id="path6"
                   fill-rule="evenodd"
                   clip-rule="evenodd"
                   d="M389.933 125.891C389.933 125.891 543.269 107.413 587.843 180.266C623.611 238.724 715.555 449.591 712.663 455.995C702.847 477.73 610.713 498.535 550.308 492.261C550.308 492.261 483.616 177.416 389.933 125.891"
                   fill="#141414" />
                <g
                   id="Combined Shape">
                  <path
                     fill-rule="evenodd"
                     clip-rule="evenodd"
                     d="M547.898 308.719C548.939 308.34 550.083 308.878 550.461 309.915C551.398 312.491 552.362 315.151 553.353 317.883L553.883 319.344C554.259 320.383 553.722 321.529 552.684 321.905C552.458 321.987 552.229 322.026 552.002 322.026C551.184 322.026 550.416 321.52 550.121 320.707C548.946 317.462 547.804 314.314 546.701 311.282C546.324 310.244 546.859 309.097 547.898 308.719ZM572.811 372.186C573.926 375.342 575.042 378.503 576.151 381.657C576.517 382.699 575.97 383.842 574.928 384.208C574.709 384.285 574.485 384.322 574.264 384.322C573.439 384.322 572.667 383.807 572.378 382.985C571.268 379.833 570.155 376.674 569.04 373.52C568.672 372.478 569.217 371.336 570.258 370.968C571.299 370.598 572.443 371.145 572.811 372.186ZM580.129 393.016C581.237 396.196 582.336 399.357 583.419 402.487C583.78 403.531 583.228 404.67 582.184 405.031C581.967 405.106 581.746 405.142 581.529 405.142C580.7 405.142 579.926 404.623 579.64 403.796C578.557 400.668 577.46 397.51 576.352 394.333C575.988 393.29 576.539 392.15 577.582 391.786C578.624 391.421 579.765 391.973 580.129 393.016ZM590.563 423.367C589.512 420.26 588.435 417.089 587.334 413.87C586.976 412.824 585.839 412.268 584.793 412.625C583.749 412.982 583.191 414.12 583.548 415.165C584.648 418.38 585.725 421.545 586.774 424.648C587.056 425.482 587.834 426.009 588.668 426.009C588.88 426.009 589.096 425.974 589.309 425.902C590.355 425.549 590.917 424.414 590.563 423.367ZM597.519 444.329C596.523 441.262 595.476 438.075 594.387 434.789C594.04 433.741 592.908 433.17 591.86 433.519C590.811 433.867 590.243 434.999 590.59 436.047C591.677 439.325 592.72 442.504 593.714 445.565C593.989 446.41 594.773 446.948 595.617 446.948C595.821 446.948 596.029 446.916 596.235 446.85C597.285 446.509 597.86 445.38 597.519 444.329ZM607.871 479.763C607.706 478.97 607.512 478.106 607.289 477.174C607.032 476.1 605.952 475.443 604.879 475.694C603.805 475.95 603.142 477.03 603.398 478.104C603.611 478.994 603.798 479.82 603.955 480.577C604.151 481.522 604.983 482.17 605.911 482.17C606.046 482.17 606.183 482.157 606.32 482.128C607.401 481.904 608.096 480.845 607.871 479.763ZM604.103 465.456C603.254 462.565 602.27 459.324 601.178 455.821C600.849 454.766 599.728 454.18 598.674 454.507C597.62 454.835 597.031 455.956 597.36 457.011C598.445 460.493 599.422 463.714 600.265 466.583C600.521 467.455 601.319 468.02 602.183 468.02C602.37 468.02 602.56 467.994 602.748 467.938C603.807 467.627 604.415 466.516 604.103 465.456ZM565.428 351.423C565.056 350.382 563.907 349.839 562.871 350.213C561.831 350.584 561.289 351.729 561.66 352.769C562.776 355.888 563.9 359.037 565.028 362.207C565.319 363.026 566.089 363.537 566.911 363.537C567.134 363.537 567.361 363.499 567.582 363.42C568.622 363.05 569.166 361.906 568.795 360.865C567.667 357.695 566.543 354.544 565.428 351.423ZM555.413 329.459C556.453 329.087 557.599 329.624 557.974 330.662C559.087 333.75 560.221 336.899 561.37 340.098C561.744 341.137 561.203 342.282 560.163 342.655C559.941 342.736 559.712 342.774 559.488 342.774C558.667 342.774 557.899 342.266 557.606 341.449C556.457 338.253 555.324 335.105 554.21 332.019C553.836 330.98 554.374 329.834 555.413 329.459Z"
                     fill="#ffffff"
                     style="mix-blend-mode:overlay"
                     id="path7" />
                </g>
              </g>
              <g
                 id="Assets 42">
                <path
                   id="SKIN_2"
                   fill-rule="evenodd"
                   clip-rule="evenodd"
                   d="M396.636 495.605L390.196 546.252L460.702 552.125L476.811 502.996"
                   fill="#ffffff" />
                <path
                   id="Fill 8"
                   fill-rule="evenodd"
                   clip-rule="evenodd"
                   d="M460.703 554.125C460.647 554.125 460.592 554.123 460.536 554.118L390.029 548.246C389.485 548.201 388.984 547.936 388.64 547.512C388.298 547.088 388.142 546.542 388.211 546.001L394.651 495.354C394.791 494.256 395.811 493.481 396.888 493.621C397.983 493.761 398.759 494.762 398.62 495.857L392.442 544.434L459.294 550.001L474.91 502.373C475.254 501.324 476.381 500.75 477.433 501.096C478.483 501.439 479.055 502.569 478.711 503.619L462.602 552.748C462.332 553.575 461.56 554.125 460.703 554.125"
                   fill="#141414" />
                <path
                   id="Fill 10"
                   fill-rule="evenodd"
                   clip-rule="evenodd"
                   d="M387.312 543.515C387.57 542.498 388.57 541.855 389.603 542.039C390.586 542.216 391.831 542.455 393.296 542.738C402.278 544.466 420.967 548.063 438.678 548.077H438.723C449.157 548.077 458.333 545.223 464.561 540.038C465.056 539.626 465.718 539.48 466.344 539.64C496.742 547.554 518.705 553.272 534.981 564.127C537.841 566.036 548.158 574.364 546.374 580.254C545.548 582.978 542.61 584.359 537.64 584.359C519.496 584.359 480.405 584.46 445.916 584.55C418.009 584.623 393.909 584.686 384.835 584.686C383.876 584.686 383.011 584.251 382.398 583.462C378.825 578.866 384.644 553.994 387.312 543.515"
                   fill="#a5a5a5" />
                <path
                   id="Fill 12"
                   fill-rule="evenodd"
                   clip-rule="evenodd"
                   d="M385.2 593.494H542.036C544.642 593.494 546.756 591.381 546.756 588.774V587.215C546.756 584.608 544.642 582.495 542.036 582.495H385.2C382.594 582.495 380.48 584.608 380.48 587.215V588.774C380.48 591.381 382.594 593.494 385.2 593.494"
                   fill="#141414" />
                <path
                   id="Fill 15"
                   fill-rule="evenodd"
                   clip-rule="evenodd"
                   d="M497.495 558.483C498.29 558.483 499.052 558.036 499.416 557.27C502.753 550.262 509.164 551.977 509.885 552.198C511.003 552.537 512.192 551.912 512.54 550.796C512.887 549.678 512.272 548.493 511.158 548.139C507.522 546.985 499.584 547.027 495.576 555.442C495.071 556.503 495.521 557.771 496.582 558.276C496.877 558.417 497.188 558.483 497.495 558.483"
                   fill="#141414" />
                <path
                   id="Fill 17"
                   fill-rule="evenodd"
                   clip-rule="evenodd"
                   d="M478.714 553.361C479.509 553.361 480.272 552.914 480.636 552.148C483.973 545.14 490.384 546.855 491.104 547.076C492.223 547.416 493.412 546.79 493.759 545.674C494.106 544.556 493.491 543.371 492.377 543.017C488.737 541.864 480.801 541.907 476.796 550.32C476.291 551.381 476.741 552.649 477.802 553.154C478.097 553.295 478.407 553.361 478.714 553.361"
                   fill="#141414" />
              </g>
              <g
                 id="Assets 43">
                <path
                   id="Fill 19"
                   fill-rule="evenodd"
                   clip-rule="evenodd"
                   d="M161.996 120C161.996 120 139.142 194.987 178.881 246.245C208.262 284.141 322.335 294.315 398.104 270.631C399.408 266.749 403.664 253.773 407.498 238.711C407.771 237.641 408.86 236.994 409.93 237.266C411 237.539 411.647 238.627 411.375 239.697C407.747 253.949 403.743 266.354 402.17 271.083L335.189 481.201C383.628 505.597 434.794 520.234 501.493 517.076C501.493 517.076 522.75 428.853 536.031 348.861C550.413 262.245 601.741 122 429.829 122L161.996 120Z"
                   fill="#404040" />
                <g
                   id="Combined Shape_2">
                  <path
                     fill-rule="evenodd"
                     clip-rule="evenodd"
                     d="M254.558 127.149C255.609 126.817 256.732 127.401 257.065 128.454C257.166 128.773 266.355 158.94 242.728 170.868C244.454 171.663 246.239 172.414 248.085 173.102C249.12 173.487 249.646 174.639 249.26 175.674C248.961 176.479 248.197 176.976 247.386 176.976C247.154 176.976 246.918 176.936 246.688 176.85C243.391 175.622 240.244 174.216 237.336 172.671C237.104 172.548 236.909 172.384 236.75 172.196C236.504 171.981 236.294 171.72 236.175 171.392C235.798 170.354 236.334 169.206 237.372 168.829C247.803 165.037 253.661 157.392 254.782 146.106C255.645 137.422 253.274 129.733 253.25 129.657C252.919 128.603 253.505 127.48 254.558 127.149ZM211.851 135.592C212.955 135.515 213.911 136.329 213.998 137.428C214.004 137.499 214.342 141.22 216.652 146.351C217.105 147.359 216.656 148.543 215.649 148.996C215.382 149.116 215.103 149.173 214.829 149.173C214.066 149.173 213.338 148.734 213.004 147.993C210.374 142.15 210.024 137.917 210.01 137.74C209.926 136.638 210.75 135.677 211.851 135.592ZM259.319 176.468C262.386 177.189 265.631 177.804 268.965 178.298C270.058 178.46 270.812 179.477 270.651 180.569C270.504 181.563 269.65 182.277 268.674 182.277C268.577 182.277 268.478 182.27 268.379 182.255C264.935 181.745 261.579 181.108 258.404 180.361C257.329 180.109 256.662 179.032 256.915 177.957C257.167 176.881 258.248 176.215 259.319 176.468ZM229.545 162.772C227.008 160.702 224.713 158.435 222.727 156.034C222.023 155.183 220.761 155.064 219.911 155.768C219.06 156.473 218.941 157.733 219.645 158.584C221.797 161.186 224.278 163.638 227.017 165.872C227.388 166.174 227.835 166.322 228.28 166.322C228.86 166.322 229.435 166.071 229.831 165.586C230.529 164.73 230.401 163.47 229.545 162.772ZM280.745 179.549C283.957 179.792 287.303 180.015 290.691 180.212C291.794 180.276 292.636 181.222 292.571 182.325C292.509 183.388 291.628 184.209 290.577 184.209C290.538 184.209 290.498 184.208 290.459 184.205C287.047 184.006 283.678 183.782 280.443 183.537C279.342 183.454 278.517 182.494 278.6 181.392C278.683 180.292 279.633 179.46 280.745 179.549ZM356.521 181.199C353.555 181.266 350.205 181.325 346.542 181.367C345.437 181.38 344.551 182.286 344.564 183.39C344.577 184.487 345.469 185.367 346.564 185.367H346.586C350.267 185.325 353.631 185.265 356.611 185.198C357.715 185.173 358.59 184.258 358.565 183.154C358.541 182.049 357.622 181.155 356.521 181.199ZM324.584 181.361C328.03 181.404 331.366 181.425 334.563 181.429C335.667 181.43 336.561 182.327 336.56 183.431C336.559 184.535 335.664 185.429 334.56 185.429H334.558C331.346 185.425 327.995 185.404 324.535 185.361C323.43 185.347 322.545 184.441 322.559 183.336C322.573 182.24 323.465 181.361 324.558 181.361H324.584ZM312.613 181.127C309.264 181.038 305.91 180.926 302.644 180.795C301.558 180.757 300.61 181.61 300.566 182.714C300.522 183.817 301.381 184.748 302.484 184.793C305.768 184.924 309.14 185.036 312.507 185.126C312.525 185.127 312.543 185.127 312.561 185.127C313.64 185.127 314.53 184.266 314.559 183.18C314.589 182.076 313.717 181.157 312.613 181.127ZM402.478 379.923C401.407 379.636 400.315 380.271 400.029 381.337C399.162 384.571 398.293 387.799 397.424 391.009C397.136 392.075 397.766 393.173 398.832 393.462C399.007 393.509 399.183 393.532 399.356 393.532C400.238 393.532 401.044 392.945 401.286 392.054C402.155 388.84 403.025 385.61 403.892 382.372C404.178 381.306 403.545 380.209 402.478 379.923ZM411.267 338.698C411.543 337.629 412.631 336.985 413.705 337.265C414.774 337.542 415.416 338.634 415.138 339.703C414.307 342.905 413.464 346.142 412.61 349.406C412.376 350.305 411.565 350.901 410.677 350.901C410.51 350.901 410.34 350.879 410.17 350.834C409.101 350.556 408.462 349.463 408.741 348.394C409.593 345.132 410.435 341.897 411.267 338.698ZM408.133 358.6C407.068 358.319 405.971 358.958 405.69 360.026C404.844 363.24 403.99 366.467 403.133 369.697C402.849 370.764 403.485 371.86 404.552 372.143C404.724 372.189 404.897 372.21 405.067 372.21C405.951 372.21 406.761 371.62 406.998 370.724C407.858 367.491 408.711 364.261 409.559 361.043C409.839 359.976 409.201 358.881 408.133 358.6ZM416.774 317.349C417.049 316.279 418.141 315.634 419.208 315.908C420.278 316.182 420.924 317.272 420.649 318.342C419.836 321.516 419.002 324.758 418.152 328.054C417.92 328.956 417.107 329.554 416.217 329.554C416.052 329.554 415.884 329.534 415.717 329.491C414.646 329.216 414.003 328.125 414.279 327.055C415.129 323.762 415.961 320.522 416.774 317.349ZM424.655 294.527C423.577 294.253 422.496 294.904 422.225 295.974C421.433 299.098 420.608 302.343 419.755 305.691C419.482 306.761 420.129 307.85 421.199 308.124C421.365 308.166 421.531 308.185 421.694 308.185C422.587 308.185 423.4 307.584 423.632 306.679C424.485 303.33 425.31 300.083 426.102 296.957C426.374 295.886 425.726 294.798 424.655 294.527ZM427.623 274.569C427.893 273.498 428.982 272.853 430.05 273.115C431.121 273.384 431.773 274.47 431.504 275.542C430.752 278.539 429.934 281.797 429.055 285.281C428.825 286.188 428.011 286.792 427.117 286.792C426.955 286.792 426.79 286.772 426.626 286.731C425.555 286.461 424.906 285.374 425.176 284.303C426.055 280.82 426.873 277.564 427.623 274.569ZM435.395 251.62C434.324 251.356 433.238 252.01 432.973 253.083C432.973 253.085 432.098 256.639 430.544 262.881C430.277 263.953 430.93 265.038 432.001 265.305C432.163 265.346 432.326 265.365 432.486 265.365C433.382 265.365 434.199 264.757 434.424 263.848C435.981 257.598 436.859 254.04 436.859 254.04C437.122 252.968 436.466 251.884 435.395 251.62ZM394.269 402.609C394.56 401.544 395.661 400.913 396.726 401.209C397.791 401.501 398.418 402.601 398.126 403.666C397.235 406.923 396.345 410.149 395.461 413.334C395.216 414.22 394.412 414.801 393.536 414.801C393.359 414.801 393.179 414.776 393 414.727C391.936 414.432 391.312 413.33 391.608 412.266C392.49 409.085 393.377 405.862 394.269 402.609ZM371.109 485.653C370.093 485.22 368.919 485.696 368.487 486.713C367.844 488.224 367.255 489.482 366.737 490.452C366.215 491.425 366.582 492.637 367.555 493.159C367.856 493.32 368.179 493.396 368.498 493.396C369.212 493.396 369.902 493.013 370.262 492.34C370.838 491.265 371.48 489.898 372.169 488.275C372.6 487.258 372.127 486.085 371.109 485.653ZM375.817 466.077C376.155 465.025 377.277 464.444 378.332 464.783C379.384 465.12 379.964 466.246 379.626 467.298C378.505 470.794 377.437 474.013 376.452 476.869C376.166 477.697 375.391 478.218 374.561 478.218C374.346 478.218 374.125 478.181 373.909 478.107C372.865 477.747 372.311 476.608 372.671 475.564C373.646 472.736 374.705 469.545 375.817 466.077ZM390.836 422.462C389.774 422.166 388.669 422.781 388.368 423.844C387.443 427.12 386.528 430.334 385.626 433.477C385.32 434.538 385.934 435.646 386.996 435.95C387.181 436.004 387.366 436.029 387.549 436.029C388.418 436.029 389.218 435.458 389.47 434.58C390.374 431.433 391.291 428.212 392.218 424.93C392.518 423.867 391.899 422.762 390.836 422.462ZM382.268 445.018C382.58 443.959 383.691 443.355 384.752 443.666C385.812 443.978 386.417 445.091 386.104 446.15C385.121 449.479 384.158 452.693 383.221 455.774C382.959 456.637 382.166 457.193 381.309 457.193C381.115 457.193 380.92 457.165 380.726 457.105C379.669 456.784 379.073 455.667 379.395 454.61C380.328 451.539 381.287 448.335 382.268 445.018Z"
                     fill="#ffffff"
                     fill-opacity="0.8"
                     style="mix-blend-mode:overlay"
                     id="path8" />
                </g>
              </g>
            </g>
          </g>
        </g>
        <g
           id="Upper Body"
           transform="translate(272 187) scale(1 1)">
          <g
             id="Upper Body/Calling">
            <g
               id="hand">
              <path
                 id="path9"
                 fill-rule="evenodd"
                 clip-rule="evenodd"
                 d="M145.777 480.402L85.0737 458.297C73.3607 511.223 59.6027 576.366 70.2287 584.356C70.4377 584.512 70.6587 584.655 70.8707 584.809C71.2537 587.272 81.6877 591.533 86.9367 592.571C93.2377 594.54 99.1507 595.41 102.868 595.398C109.044 595.377 113.175 590.809 112.57 585.729C120.433 585.002 121.401 581.252 119.587 576.535C129.143 574.72 125.365 567.262 115.715 564.439C120.184 557.215 125.942 554.599 126.582 541.414C127.094 530.85 135.794 507.19 145.777 480.402"
                 fill="#ffffff" />
              <path
                 id="Fill 3"
                 fill-rule="evenodd"
                 clip-rule="evenodd"
                 d="M147.661 481.088L143.616 479.614C134.357 504.71 126.168 527.82 124.455 541.305C124.002 550.659 119.439 556.363 115.044 562.09C113.134 561.079 111.198 559.494 110.337 557.657C109.933 556.838 108.941 556.495 108.113 556.895C105.288 558.991 110.076 562.905 111.641 564.218C114.922 567.234 120.75 567.194 123.31 570.713C124.085 574.136 120.088 574.406 117.456 574.536C111.02 573.146 104.412 571.268 98.768 567.859C98.117 567.465 97.263 567.679 96.866 568.341C95.763 570.845 102.173 573.438 104.01 574.399C108.921 576.969 114.861 577.886 117.729 579.474C118.743 580.579 117.759 581.789 116.637 582.684C114.676 584.175 112.14 584.045 109.73 583.984C102.506 583.472 95.401 581.357 88.682 578.547C87.406 578.118 86.597 580.035 87.792 580.648C95.094 584.453 103.036 587.419 111.369 587.979C111.129 591.496 106.835 593.092 102.862 593.273C93.472 593.154 79.714 588.947 71.504 582.649C70.299 581.747 68.912 579.088 68.607 571.782C68.348 541.377 79.289 494.998 87.145 459.05L83.217 457.62C74.033 501.109 63.494 551.269 64.176 573.842C64.396 581.154 66.334 584.455 68.797 585.928C68.828 586.358 80.949 593.815 88.728 595.323C99.187 598.214 114.339 600.056 115.602 587.715C119.543 586.979 123.745 582.994 122.211 578.554C126.442 577.827 129.175 572.979 127.322 568.923C125.603 565.635 122.216 564.739 119.109 563.765C123.471 558.123 128.219 551.648 128.705 541.519C130.209 528.559 138.64 505.123 147.661 481.088"
                 fill="#141414" />
            </g>
            <g
               id="Assets 105">
              <path
                 id="path10"
                 fill-rule="evenodd"
                 clip-rule="evenodd"
                 d="M464.877 154.176C457.904 130.794 446.555 103.06 429.106 70.2044C419.142 47.7104 393.085 28.3394 392.035 37.1744C389.765 56.2914 375.992 82.5894 375.992 82.5894C381.491 97.9474 395.001 144.846 395.937 173.288L464.877 154.176Z"
                 fill="#ffffff" />
              <path
                 id="Fill 7"
                 fill-rule="evenodd"
                 clip-rule="evenodd"
                 d="M396.425 173.153V173.153C397.371 172.891 398.019 172.012 397.969 171.032C396.442 140.973 382.479 94.7564 378.305 82.7474C380.703 78.0374 392.059 55.0264 394.15 37.4254C394.168 37.2674 394.196 37.1774 394.195 37.1534C394.332 37.1144 394.953 37.0044 396.451 37.5504C404.166 40.3644 419.967 54.8194 427.163 71.0664C427.184 71.1124 427.206 71.1574 427.23 71.2024C443.1 101.083 454.796 128.329 462.281 152.783C462.614 153.871 463.745 154.49 464.841 154.186C465.978 153.871 466.639 152.687 466.294 151.559C459.242 128.466 448.012 101.272 431.022 69.2734C422.571 50.2664 401.881 31.6894 393.655 32.9264C391.581 33.2394 390.186 34.7324 389.926 36.9244C387.728 55.4244 374.246 81.3434 374.11 81.6024C373.835 82.1294 373.792 82.7464 373.991 83.3064C380.596 101.748 392.322 144.504 393.763 171.24C393.835 172.585 395.128 173.513 396.425 173.153"
                 fill="#141414" />
              <path
                 id="Fill 9"
                 fill-rule="evenodd"
                 clip-rule="evenodd"
                 d="M438.792 71.1763L418.084 100.215C415.456 103.898 410.34 104.755 406.656 102.128L337.628 52.9023C333.944 50.2753 333.088 45.1593 335.715 41.4753L356.423 12.4373C359.05 8.75332 364.166 7.89632 367.85 10.5233L436.878 59.7493C440.562 62.3763 441.419 67.4923 438.792 71.1763"
                 fill="#a9a9a9" />
              <path
                 id="SKIN_3"
                 fill-rule="evenodd"
                 clip-rule="evenodd"
                 d="M423.439 51.0636C419.422 52.9246 416.43 58.9616 419.39 62.4966C421.659 65.2046 426.929 64.8586 429.984 58.5016C432.225 53.8366 427.083 49.3766 423.439 51.0636"
                 fill="#ffffff" />
              <path
                 id="SKIN_4"
                 fill-rule="evenodd"
                 clip-rule="evenodd"
                 d="M399.866 31.7105C397.38 25.8345 390.843 25.4535 387.186 32.2795C386.154 34.2075 385.043 37.7595 387.012 40.6205C392.029 47.9145 401.631 35.8835 399.866 31.7105"
                 fill="#ffffff" />
              <path
                 id="SKIN_5"
                 fill-rule="evenodd"
                 clip-rule="evenodd"
                 d="M421.767 50.1198C423.62 45.1588 417.158 39.6518 412.433 42.1928C411.342 42.7798 410.371 43.5978 409.541 44.5568C410.604 42.5088 411.019 40.5618 410.725 39.1868C409.481 33.3668 400.771 30.3178 395.596 42.6068C392.773 49.3118 399.362 54.0678 403.608 51.1488C405.249 50.0198 406.623 48.7068 407.716 47.3458C405.71 51.4918 405.91 56.5508 409.618 58.5238C413.769 60.7318 419.03 57.4518 421.767 50.1198"
                 fill="#ffffff" />
              <path
                 id="path11"
                 fill-rule="evenodd"
                 clip-rule="evenodd"
                 d="M428.067 57.5801C426.841 60.1321 425.116 61.7231 423.333 61.9471C422.396 62.0641 421.553 61.7671 421.021 61.1311C420.188 60.1361 420.251 58.8621 420.45 57.9691C420.823 56.3051 421.965 54.6151 423.338 53.5921C423.66 53.3531 423.994 53.1501 424.334 52.9931C425.215 52.5841 426.475 52.9511 427.396 53.8851C427.89 54.3861 428.946 55.7501 428.067 57.5801M410.616 56.6451C408.936 55.7521 408.58 53.9511 408.576 52.5981C408.573 51.1991 408.943 49.7531 409.562 48.4291C410.219 47.5821 410.781 46.7191 411.248 45.8581C411.652 45.4041 412.082 44.9841 412.547 44.6371C412.835 44.4221 413.133 44.2311 413.44 44.0661C415.138 43.1521 417.089 44.0041 418.244 45.0111C419.343 45.9701 420.404 47.6881 419.773 49.3761C418.373 53.1271 416.134 55.8981 413.796 56.7851C412.665 57.2141 411.595 57.1671 410.616 56.6451M398.549 49.0591C397.963 48.5801 396.154 46.7601 397.555 43.4321C398.753 40.5891 400.239 38.4861 401.819 37.3091C402.881 36.5181 403.986 36.1451 405.074 36.2471C406.785 36.4091 408.254 37.8001 408.644 39.6311C408.813 40.4181 408.525 41.8401 407.703 43.4691C407.039 44.2811 406.454 45.1731 405.965 46.1211C405.039 47.2581 403.863 48.3901 402.402 49.3961C401.026 50.3421 399.466 49.8061 398.549 49.0591M389.059 33.2841C390.42 30.7441 392.331 29.2761 394.169 29.3611C395.719 29.4321 397.082 30.5901 397.906 32.5391C398.303 33.4781 396.428 38.2131 392.753 40.2271C390.557 41.4311 389.504 40.4921 388.762 39.4151C387.164 37.0921 388.729 33.9001 389.059 33.2841M430.424 50.8991C428.688 49.1381 426.345 48.3461 424.192 48.6641C424.3 46.2051 423.185 43.6771 421.04 41.8061C418.633 39.7061 415.593 38.9781 412.92 39.7371C412.903 39.3911 412.871 39.0541 412.804 38.7421C412.016 35.0561 409.07 32.3521 405.473 32.0141C404.707 31.9411 403.537 31.9661 402.175 32.3981C402.133 31.8631 402.022 31.3521 401.824 30.8821C400.357 27.4161 397.568 25.2601 394.363 25.1131C390.847 24.9521 387.463 27.2561 385.309 31.2761H385.31C384.559 32.6781 382.338 37.5801 385.258 41.8251C387.15 44.5771 389.898 45.6011 392.854 44.7611C392.539 47.7151 393.597 50.5111 395.864 52.3571C398.384 54.4101 401.727 54.6941 404.355 53.1611C404.521 56.4071 406.044 59.0311 408.618 60.4001C410.697 61.5061 413.008 61.6321 415.303 60.7621C415.601 60.6491 415.892 60.4961 416.183 60.3511C416.394 61.6561 416.917 62.8541 417.76 63.8621C419.217 65.6011 421.499 66.4631 423.862 66.1671C425.298 65.9871 426.672 65.4051 427.921 64.4761C429.492 63.3051 430.862 61.5841 431.901 59.4221C433.3 56.5081 432.735 53.2421 430.424 50.8991"
                 fill="#141414" />
              <path
                 id="SKIN_6"
                 fill-rule="evenodd"
                 clip-rule="evenodd"
                 d="M412.906 96.2178C407.09 90.9288 399.559 92.9938 395.678 95.0268C389.682 84.2898 378.987 79.2408 375.769 78.1888C370.864 76.5848 360.767 81.2799 369.055 89.0399C375.481 95.0569 380.217 97.6739 383.188 104.657L393.744 103.984C394.097 105.114 394.519 106.225 394.971 107.205C401.161 120.592 418.486 113.622 420.677 107.58C421.849 104.345 418.941 101.707 412.906 96.2178"
                 fill="#ffffff" />
              <path
                 id="Fill 21"
                 fill-rule="evenodd"
                 clip-rule="evenodd"
                 d="M418.768 98.9893C419.586 100.088 420.315 101.166 420.991 102.459C421.348 103.14 421.083 103.973 420.403 104.331C419.753 104.665 418.958 104.434 418.584 103.815L418.539 103.737C417.341 101.76 415.722 99.7873 413.927 98.2313C412.146 96.6273 410.092 95.3763 407.919 94.6513C406.83 94.2773 405.706 94.0413 404.661 94.0103C403.581 93.9663 402.469 94.0963 401.362 94.3853C400.285 94.6633 399.198 95.0613 398.156 95.5383C398.603 96.5393 398.996 97.5693 399.341 98.6203C399.617 99.4753 399.152 100.407 398.289 100.688C397.442 100.958 396.523 100.494 396.232 99.6523C395.941 98.8083 395.618 97.9893 395.258 97.1723C394.683 95.8803 394.023 94.6263 393.279 93.4093C391.497 90.4973 389.253 87.8543 386.694 85.5723C384.558 83.6583 382.177 81.9523 379.69 80.7383C379.082 80.4423 378.45 80.1783 377.9 80.0263C377.413 79.8903 376.764 79.8243 376.13 79.8103C374.838 79.8003 373.474 79.9933 372.206 80.3513C370.948 80.7023 369.738 81.2543 368.933 81.9663C368.54 82.3083 368.279 82.6783 368.152 83.0093C368.033 83.3353 368.014 83.6603 368.117 84.0833C368.316 84.9203 369.09 85.9763 370.021 86.8913C370.258 87.1263 370.511 87.3493 370.764 87.5723L371.602 88.2953L373.309 89.7173C375.589 91.6223 378.08 93.4943 380.266 95.9943C381.342 97.2383 382.311 98.6233 383.09 100.087C383.856 101.55 384.456 103.06 384.977 104.58C385.358 105.693 384.768 106.893 383.655 107.273C382.547 107.661 381.333 107.07 380.953 105.956L380.955 105.942L380.927 105.888C380.494 104.552 379.99 103.257 379.373 102.045C378.752 100.825 378.005 99.7223 377.129 98.6793C375.369 96.5993 373.056 94.7673 370.735 92.8063L368.996 91.3083L368.128 90.5453C367.826 90.2723 367.525 89.9853 367.225 89.6843C366.074 88.4723 364.862 87.0803 364.333 84.9803C364.079 83.9353 364.119 82.6833 364.554 81.6113C364.984 80.5313 365.693 79.6913 366.435 79.0633C367.941 77.8043 369.578 77.1723 371.209 76.7173C372.844 76.2853 374.492 76.0683 376.215 76.1063C377.083 76.1333 377.943 76.2163 378.91 76.4933C379.807 76.7603 380.558 77.0993 381.296 77.4713C384.204 78.9473 386.729 80.8313 389.054 82.9653C391.875 85.5653 394.357 88.5793 396.3 91.9073C396.36 91.8883 396.422 91.8543 396.482 91.8343C397.774 91.3093 399.123 90.8773 400.531 90.5903C401.929 90.3083 403.398 90.1873 404.887 90.3133C406.411 90.4493 407.806 90.8323 409.116 91.3533C411.781 92.3853 414.123 94.0083 416.065 95.9283C417.055 96.8733 417.956 97.8993 418.768 98.9893"
                 fill="#141414" />
            </g>
            <path
               id="T Shirt"
               fill-rule="evenodd"
               clip-rule="evenodd"
               d="M380.146 160.255C380.146 160.255 378.023 151.766 369.786 139.971C334.291 89.1446 220.363 85.6386 170.586 127.548C119.47 170.583 91.587 296.93 64 488.695C125.445 507.976 144.867 510.972 144.867 510.972C158.714 471.424 171.228 431.542 181.686 393.693C247.716 391.819 408.547 393.693 420 393.693C416.139 368.251 411.469 338.956 406.953 309.432C426.547 309.352 460.693 305.844 475.195 272.319C497.39 221.006 466.557 131.989 466.557 131.989L380.146 160.255Z"
               fill="#a5a5a5" />
            <path
               id="BG"
               fill-rule="evenodd"
               clip-rule="evenodd"
               d="M349.834 389.297C349.834 389.297 352.225 156.141 296.822 105.98C281.573 107.585 245.375 105.133 245.375 105.133C245.375 105.133 267.856 144.105 269.594 245.007C271.393 349.435 266.675 390.17 266.675 390.17L349.834 389.297Z"
               fill="#ffffff" />
            <path
               id="Strip"
               fill-rule="evenodd"
               clip-rule="evenodd"
               d="M268.885 389.146C269.226 385.464 269.902 376.18 270.537 362.609C276.393 363.277 282.208 363.713 288.062 364.035C294.758 364.413 301.465 364.587 308.191 364.617C311.55 364.651 314.921 364.561 318.29 364.516C321.664 364.388 325.039 364.296 328.425 364.053C334.768 363.637 341.123 363.036 347.55 361.83C347.829 374.481 347.85 385.358 347.842 389.146H268.885ZM314.364 135.961C310.819 137.4 307.158 138.611 303.354 139.591C302.238 139.831 301.133 140.1 300.029 140.37L296.636 141.001C295.519 141.254 294.354 141.384 293.209 141.566L291.486 141.824L289.743 142.031C285.102 142.622 280.372 142.948 275.594 143.161C273.204 143.247 270.804 143.342 268.383 143.388L264.716 143.47L262.817 143.521L260.557 143.623L260.558 143.701C255.987 124.175 251.199 112.551 248.745 107.35C258.033 107.908 283.207 109.232 296.124 108.057C303.103 114.614 309.14 124.219 314.364 135.961ZM289.442 324.728C295.763 324.952 302.089 325.008 308.424 324.963C311.591 324.948 314.76 324.851 317.932 324.779C321.104 324.65 324.279 324.544 327.458 324.331C333.656 323.947 339.863 323.405 346.113 322.417C346.581 331.628 346.923 340.234 347.173 348.008C340.854 348.173 334.369 348.217 327.875 348.264L308.217 348.29L288.449 348.328C282.675 348.358 276.863 348.42 271.099 348.588C271.346 341.323 271.564 333.036 271.724 323.679C277.648 324.223 283.53 324.527 289.442 324.728ZM326.019 273.931C319.88 273.934 313.712 273.996 307.545 274.186C301.374 274.367 295.189 274.606 288.999 274.982C283.328 275.361 277.622 275.791 271.959 276.519C271.924 270.316 271.864 263.829 271.776 257.056C277.528 257.785 283.167 258.174 288.888 258.41C294.999 258.669 301.123 258.684 307.274 258.484C308.809 258.462 310.347 258.369 311.889 258.277C313.431 258.181 314.967 258.117 316.513 257.994C319.6 257.715 322.692 257.459 325.794 257.012C330.748 256.331 335.722 255.462 340.714 254.039C341.469 260.824 342.145 267.579 342.749 274.245C337.184 274.007 331.61 273.939 326.019 273.931ZM326.9 307.677L317.568 307.743L308.215 307.87C301.974 307.989 295.723 308.087 289.468 308.295C283.621 308.474 277.745 308.703 271.913 309.084C271.97 302.785 272 296.083 271.997 288.968C277.703 289.825 283.37 290.277 289.071 290.605C295.36 290.915 301.654 291.011 307.959 290.867C314.266 290.721 320.573 290.387 326.893 289.669C332.534 289.023 338.188 288.181 343.81 286.758C344.377 293.913 344.864 300.914 345.284 307.686C339.208 307.631 333.059 307.634 326.9 307.677ZM302.862 224.824C308.735 224.32 314.605 223.696 320.485 222.679C325.684 221.79 330.89 220.709 336.072 219.089C337.152 225.967 338.133 232.92 339.024 239.885C334.222 240.504 329.225 240.934 324.189 241.296L319.854 241.577L315.488 241.794C312.567 241.942 309.647 242.076 306.704 242.167C300.833 242.411 294.925 242.53 289.006 242.699C283.202 242.848 277.304 242.996 271.558 243.244C271.438 237.113 271.244 231.208 270.982 225.535C275.768 225.753 280.494 225.775 285.261 225.694C291.127 225.595 296.989 225.302 302.862 224.824ZM263.174 155.966L264.092 156.083C265.344 156.248 266.632 156.36 267.913 156.495C270.486 156.719 273.082 156.885 275.689 156.95C280.904 157.108 286.17 156.878 291.449 156.258C296.723 155.599 302.019 154.634 307.218 152.906C311.274 151.568 315.279 149.844 319.043 147.602C321.621 154.691 323.968 162.335 326.106 170.384C321.696 171.149 317.337 172.054 313.086 172.9C308.051 173.909 303.154 174.753 298.054 175.479L282.557 177.678C277.405 178.439 272.234 179.248 267.089 180.275C265.912 171.298 264.579 163.215 263.174 155.966ZM284.114 191.379C289.415 190.961 294.714 190.409 300.097 189.661C302.784 189.299 305.498 188.802 308.21 188.297C310.908 187.717 313.616 187.129 316.235 186.402C320.642 185.228 324.891 183.901 329.09 182.446C330.914 190.363 332.562 198.576 334.049 206.965C328.995 207.734 323.805 208.364 318.582 208.945L314.38 209.391L310.153 209.782C307.335 210.068 304.505 210.301 301.67 210.544C296.003 211.053 290.304 211.456 284.603 211.921C279.837 212.293 275.032 212.682 270.282 213.114C269.791 205.734 269.189 198.773 268.498 192.228C273.716 192.115 278.908 191.797 284.114 191.379ZM298.164 104.497C297.742 104.115 297.176 103.927 296.612 103.991C281.71 105.559 245.87 103.162 245.509 103.137C244.774 103.089 244.071 103.448 243.679 104.074C243.288 104.699 243.274 105.49 243.641 106.13C243.863 106.518 265.887 146.004 267.594 245.041C269.368 348.073 264.735 390.533 264.688 390.94C264.622 391.51 264.804 392.082 265.188 392.507C265.568 392.929 266.108 393.17 266.675 393.17H266.696H349.854C350.943 393.159 351.821 391.405 351.833 390.317C351.839 389.733 352.36 330.18 346.094 266.254C337.646 180.066 321.52 125.644 298.164 104.497Z"
               fill="#141414" />
            <g
               id="neck">
              <path
                 id="SKIN_7"
                 fill-rule="evenodd"
                 clip-rule="evenodd"
                 d="M247.539 66.6416L243.773 101.805C243.773 101.805 251.2 117.902 273.984 119.005C304.722 120.492 296.289 101.447 296.289 101.447L295.434 69.6896"
                 fill="#ffffff" />
              <path
                 id="Fill 32"
                 fill-rule="evenodd"
                 clip-rule="evenodd"
                 d="M277.26 121.086C276.175 121.086 275.051 121.058 273.888 121.002C250.166 119.854 242.282 103.345 241.958 102.643C241.807 102.315 241.747 101.951 241.785 101.592L245.552 66.4283C245.669 65.3303 246.661 64.5353 247.753 64.6523C248.851 64.7703 249.647 65.7563 249.529 66.8543L245.826 101.428C247.215 104.003 254.735 116.07 274.082 117.006C284.333 117.499 291.198 115.67 293.937 111.708C296.747 107.644 294.482 102.302 294.459 102.249C294.357 102.014 294.298 101.755 294.291 101.5L293.436 69.7443C293.406 68.6403 294.277 67.7203 295.382 67.6913C296.477 67.6493 297.405 68.5323 297.435 69.6363L298.28 101.034C298.892 102.647 300.818 108.747 297.252 113.947C293.999 118.69 287.281 121.086 277.26 121.086"
                 fill="#141414" />
            </g>
          </g>
        </g>
        <g
           id="Head"
           transform="translate(439 92) scale(1 1)">
          <g
             id="Head/Curly Hair">
            <g
               id="Curly Hair">
              <path
                 id="path12"
                 fill-rule="evenodd"
                 clip-rule="evenodd"
                 d="M148.54 97.2716C135.194 49.3246 106.729 46.9896 83.1122 51.2836C64.2892 54.7066 40.2112 70.2676 42.3422 101.575C31.1432 100.581 25.2632 105.894 25.2632 113.441C25.2632 120.988 27.0732 128.288 40.9442 128.288C42.2892 151.283 56.1422 190.986 113.936 182.608C158.32 176.175 160.882 141.609 148.54 97.2716"
                 fill="#ffffff" />
              <path
                 id="ink"
                 fill-rule="evenodd"
                 clip-rule="evenodd"
                 d="M113.507 180.105C129.229 177.864 139.923 172.149 146.234 162.633C157.554 149.588 152.621 107.689 140.746 82.3539C138.78 80.3009 136.081 75.9279 133.583 71.5359C130.413 72.4839 126.5 70.6669 123.29 67.5079C120.299 70.2229 113.287 71.0129 106.746 66.8279C103.064 74.5169 96.6327 78.8109 84.0027 77.6749C73.8154 76.7647 68.4896 85.6391 63.777 93.4915C60.8781 98.3219 58.2113 102.766 54.7877 104.307C50.5841 106.196 44.1679 104.695 41.8062 104.143C41.2313 104.009 40.8966 103.93 40.8927 103.971C33.6457 103.428 26.7967 106.308 26.8377 113.783C26.8377 120.199 27.9007 126.457 40.5717 126.457C41.6037 126.466 42.5137 127.258 42.5687 128.321C43.7547 161.361 70.0047 187.82 113.507 180.105ZM148.812 91.9679C149.384 93.6859 149.936 95.4629 150.448 97.2889C157.007 122.399 161.656 144.946 149.594 164.784C141.455 179.06 117.219 185.632 98.7197 185.158C73.8767 185.654 53.2287 173.534 44.4337 152.94C39.1767 153.582 34.2517 152.249 29.6057 150.631C23.3707 158.108 9.74371 154.017 8.88871 144.323C-0.194286 142.187 -6.13029 135.876 -8.63829 127.049C-14.7713 124.82 -18.0093 116.919 -14.8883 111.049L-14.9183 110.989C-23.6533 109.882 -27.9993 98.5169 -22.1713 91.9979C-22.1713 91.8893 -22.1724 91.7816 -22.1735 91.6743C-22.1757 91.4605 -22.1779 91.2479 -22.1713 91.0309C-25.7993 86.9099 -25.5763 79.7699 -21.7503 75.8599C-27.4913 69.9599 -25.2853 58.9749 -17.8073 55.6339C-17.8843 49.6709 -16.1533 44.0259 -12.3203 39.3469C-12.5123 32.9479 -7.81829 27.4959 -1.67529 26.2989C-1.66069 26.2748 -1.64609 26.2507 -1.63148 26.2267C-1.52602 26.0529 -1.42091 25.8798 -1.32429 25.7059C-1.88129 16.6789 5.11371 8.88087 14.0657 8.04687C15.8007 3.43387 20.5307 0.124875 25.8037 0.436875C29.2137 -3.94213 33.7857 -5.94612 39.4177 -5.27812C42.5887 -9.74812 49.6497 -11.4111 54.5877 -8.60512C58.9387 -11.3961 63.5797 -12.8941 68.5027 -10.7861C73.3927 -14.5691 81.5127 -13.3321 85.0257 -8.38812C85.2502 -8.42899 85.475 -8.47052 85.7 -8.51209C88.685 -9.06356 91.7083 -9.62211 94.4757 -8.73312C100.996 -10.1471 107.593 -5.65312 108.663 0.663876C113.645 0.841875 118.683 1.80688 120.731 6.94188C128.718 3.91187 137.696 10.7659 136.653 19.1619C142.708 21.1759 146.191 28.6219 143.565 34.5699C143.888 34.8333 144.216 35.0957 144.545 35.3587C147.794 37.9546 151.12 40.6127 150.247 45.0129C154.582 48.5379 155.555 55.7959 152.193 60.3329C154.849 63.0819 153.071 66.1013 151.449 68.8569C150.618 70.2672 149.828 71.6084 149.695 72.8089C149.626 74.7 150.032 76.9696 150.409 79.0735C150.807 81.2962 151.172 83.334 150.909 84.5459L150.857 84.7865C150.093 88.3229 149.587 90.6652 148.812 91.9679ZM36.4075 109.292C33.4425 109.19 33.4425 117.316 36.4075 117.214C39.3725 117.315 39.3725 109.189 36.4075 109.292Z"
                 fill="#141414" />
            </g>
          </g>
        </g>
        <g
           id="Face"
           transform="translate(499 178) scale(1 1)">
          <g
             id="Face/Happy Teeth">
            <path
               id="happy"
               fill-rule="evenodd"
               clip-rule="evenodd"
               d="M22.0073 16.1298C21.2611 16.03 20.5134 15.93 19.7634 15.946C17.7104 15.896 15.8084 16.321 13.8334 16.983C12.4564 17.451 11.3764 15.585 12.4114 14.616C15.1454 11.727 19.4234 10.675 23.2934 11.086C25.6994 10.977 29.5814 14.227 26.1914 15.923C24.7997 16.5034 23.4063 16.317 22.0073 16.1298ZM62.1316 28.901C65.8716 26.102 71.0336 26.767 74.5036 29.366C76.3106 30.622 74.4186 33.473 72.5656 32.328C71.2706 31.551 69.8196 31.109 68.4416 31.133C67.3189 30.9731 66.3557 31.5613 65.4444 32.1178C64.2119 32.8704 63.0742 33.5652 61.7646 32.274C60.8406 31.285 61.0226 29.67 62.1316 28.901ZM50.972 39.9271C63.513 44.9991 58.198 58.2721 45.571 53.1821C43.602 51.5601 45.875 49.8141 47.75 50.6141L47.9028 50.6233L48.0142 50.6302C50.409 50.7781 55.1459 51.0708 54.046 47.4831C53.6944 46.0007 52.2187 45.1294 50.7351 44.2535C49.2482 43.3757 47.7534 42.4932 47.374 40.9861C46.543 38.9921 45.668 27.3381 48.466 27.5051C49.058 27.5951 49.477 28.1211 49.447 28.7061C49.4474 29.1003 49.4452 29.4998 49.4429 29.9031C49.4237 33.3028 49.4031 36.9654 50.972 39.9271ZM32.1852 34.1042C32.8422 34.4982 33.7062 34.4282 34.2982 33.8822C36.7002 30.5912 29.0312 27.0892 26.1792 27.3372C22.9342 26.7482 12.4212 31.8242 14.8212 35.6072C15.4982 36.3332 16.6452 36.3592 17.3572 35.6662C19.4462 33.7012 21.8632 32.1702 24.6752 31.8182C27.5382 31.3312 29.6352 32.5622 32.1852 34.1042ZM77.2292 16.3435C73.1682 12.7715 67.0922 10.5375 61.8292 12.9185C60.3132 13.5675 60.6732 16.0275 62.3572 16.1655C63.4751 16.2892 64.5859 16.3152 65.6902 16.341C67.9772 16.3945 70.2363 16.4473 72.4732 17.3665L75.9492 18.6135C77.2762 19.1385 78.3892 17.2305 77.2292 16.3435ZM46.4511 65.3132C44.6891 65.2012 42.9131 65.0152 41.1951 64.7702C41.1171 66.2652 41.1151 67.8362 41.4401 69.2822C43.3725 69.5861 45.3739 69.4425 47.3318 69.3019C47.4287 69.295 47.5254 69.288 47.6221 69.2812C46.6373 68.1783 46.5514 66.856 46.4643 65.5146C46.4599 65.4475 46.4556 65.3803 46.4511 65.3132ZM49.4221 65.4443C49.5687 66.6128 49.7409 67.9857 49.0491 68.9752C49.0248 69.0223 48.9908 69.0588 48.9565 69.0955C48.9429 69.1101 48.9292 69.1248 48.9161 69.1402C49.3214 69.0874 49.7493 69.0407 50.1872 68.9929C51.7511 68.822 53.4429 68.6373 54.6921 68.1162C55.1486 67.4498 55.0629 66.3083 54.9938 65.3889C54.9898 65.3355 54.9859 65.2829 54.9821 65.2312C53.2821 65.3592 51.3401 65.4542 49.4201 65.4282L49.4221 65.4443ZM66.2871 59.6602C66.6831 59.1322 67.3751 58.8652 68.0241 59.0022C69.3891 59.3022 69.7971 60.5432 69.4141 61.5862C69.0501 70.9412 62.7521 80.6062 45.9841 80.6062C37.4081 80.6062 28.1781 74.3822 28.1781 60.7182C28.0561 59.6192 28.3241 58.2482 29.6121 58.0462C37.5791 61.9012 55.8621 63.5012 66.2871 59.6602Z"
               fill="#141414" />
          </g>
        </g>
        <g
           id="Accessories"
           transform="translate(491 176) scale(103 60)">
          <g
             id="Accessories/None"
             stroke="none"
             stroke-width="1"
             fill="none"
             fill-rule="evenodd"
             fill-opacity="0" />
        </g>
        <g
           id="Facial Hair"
           transform="translate(501 234) scale(90 60)">
          <g
             id="Facial Hair/None"
             stroke="none"
             stroke-width="1"
             fill="none"
             fill-rule="evenodd"
             fill-opacity="0" />
        </g>
      </g>
    </g>
  </g>
</svg>
