<svg viewBox="151.06005586592187 650 682.2067039106145 714.9999999999999" fill="none" xmlns="http://www.w3.org/2000/svg" xmlns:xlink="http://www.w3.org/1999/xlink" overflow="visible" width="682.2067039106145px" height="714.9999999999999px"><g id="Master/Character/Sitting on Floor"><g id="Upper Body" transform="translate(190 768) scale(1 1)"><g id="Upper Body/Arms Up"><g id="Hand 2"><path id="Fill 1" fill-rule="evenodd" clip-rule="evenodd" d="M560.16 -34.3514C569.879 -49.9984 562.375 -53.7434 556.969 -50.4444C556.969 -50.4444 566.331 -61.9514 561.719 -66.9354C558.838 -70.0484 555.813 -69.6134 548.12 -62.5704C548.12 -62.5704 556.886 -75.4724 551.883 -80.4344C547.24 -85.0394 540.852 -76.4744 535.236 -69.9134C535.236 -69.9134 540.405 -85.9924 531.602 -86.7024C522.891 -87.4054 510.396 -61.8114 505.147 -51.2544C506.926 -64.1174 499.355 -76.1754 495.147 -70.5944C489.947 -63.6954 468.963 3.18864 437.212 60.5956C396.851 126.217 346.852 120.953 346.852 120.953L373.702 209.871C373.702 209.871 381.576 214.172 412.329 196.995C468.061 165.865 500.494 101.519 514.878 65.9216C516.216 65.1286 517.027 64.3456 517.205 63.6106C518.436 58.5506 519.82 53.5846 521.313 48.7216C522.808 44.3496 523.623 41.6176 523.801 41.0126C535.176 7.40964 551.348 -20.1654 560.16 -34.3514" fill="#ffffff"/><path id="Fill 3" fill-rule="evenodd" clip-rule="evenodd" d="M561.733 -56.5878C564.333 -60.9308 567.002 -67.3568 563.278 -71.3798C560.525 -74.3538 557.629 -74.5488 554.245 -72.8438C559.472 -86.4268 547.651 -91.9818 538.813 -80.3328C539.313 -85.4618 537.627 -91.4528 531.772 -91.8218C524.122 -92.4418 515.539 -79.0878 507.174 -62.9748C505.749 -71.7408 500.2 -81.5888 493.446 -74.8748C480.571 -45.5298 462.797 6.21723 439.05 49.9612C438.862 50.3002 438.006 52.0812 437.757 52.5072C418.669 85.1312 397.318 100.63 381.765 107.967C372.61 112.285 364.492 114.29 358.414 115.201L359.616 119.343C365.894 118.354 374.058 116.269 383.3 111.945C416.556 96.3862 437.805 63.8802 450.013 38.4722C450.382 37.7042 451.979 33.8002 452.324 33.0912C471.261 -5.78978 486.289 -47.1228 496.844 -72.3148C499.937 -74.6498 504.407 -63.1968 503.039 -54.5458C502.84 -52.2018 502.903 -49.9688 503.541 -47.6758C503.92 -45.5038 505.998 -43.9738 507.608 -42.4938C513.66 -36.9308 511.499 -26.8318 511.363 -26.2398C511.221 -25.6188 511.204 -25.2128 510.98 -24.7538C510.345 -23.5138 512.07 -22.5678 512.773 -23.7338C517.199 -31.3578 513.586 -41.2838 508.298 -47.5128C507.367 -49.2928 507.083 -52.0698 507.43 -54.0728C511.617 -62.5018 524.358 -88.1528 531.43 -87.5838C536.702 -86.6248 534.262 -77.9878 533.28 -73.7968L522.773 -56.9388C522.298 -56.1778 522.531 -55.1758 523.292 -54.7008C524.029 -54.2418 524.994 -54.4488 525.485 -55.1528C525.485 -55.1528 536.92 -71.6128 536.92 -71.6138C540.771 -75.5378 546.403 -84.8018 550.384 -81.9238C554.941 -74.6368 538.525 -56.2928 535.145 -49.4528C533.974 -47.7028 536.689 -45.8518 537.89 -47.5848L549.714 -64.1478C557.559 -71.2918 558.88 -69.8698 560.156 -68.4908C562.686 -65.7578 557.988 -58.0768 555.317 -54.7848C555.31 -54.7698 546.123 -43.1988 546.113 -43.1838C544.912 -41.7128 547.138 -39.7918 548.419 -41.1948L558.284 -51.7418C564.496 -54.4588 564.123 -47.9888 558.353 -38.4718C552.561 -32.2918 526.519 20.9002 519.732 43.8992C519.258 45.5052 516.831 51.9482 516.279 53.4242C512.062 64.6952 505.36 80.8202 495.94 98.3802C466.515 153.228 433.666 179.64 411.29 192.138C398.552 199.252 389.893 202.569 384.199 204.063L385.389 208.164C392.85 206.194 402.233 202.068 413.364 195.85C454.829 172.69 483.218 131.11 499.733 100.306C508.721 83.5422 515.262 68.0612 519.557 56.7782C519.847 56.0162 525.613 39.3732 525.821 38.6732C534.059 14.3192 546.172 -10.8048 561.965 -36.2298C569.682 -49.3988 567.928 -54.7358 561.733 -56.5878" fill="#141414"/></g><g id="Hand 1"><path id="Fill 5" fill-rule="evenodd" clip-rule="evenodd" d="M176.791 125.019C136.04 117.495 99.604 92.851 75.992 36.836L75.763 36.79C54.144 -19.269 42.144 -77.296 38.068 -84.064C34.462 -90.052 25.681 -78.844 26.116 -65.866C21.991 -76.911 12.218 -103.663 3.48 -103.867C-5.349 -104.073 -1.875 -87.545 -1.875 -87.545C-6.78 -94.653 -12.245 -103.835 -17.341 -99.736C-22.832 -95.319 -15.451 -81.578 -15.451 -81.578C-22.372 -89.38 -25.335 -90.127 -28.523 -87.33C-33.628 -82.851 -25.51 -70.436 -25.51 -70.436C-30.545 -74.277 -38.397 -71.331 -30.353 -54.76C-21.48 -36.484 -3.822 2.62401 2.21 47.129C2.333 48.038 3.365 49.113 5.148 50.267C34.348 150.81 98.315 192.986 150.49 214.09L176.791 125.019Z" fill="#ffffff"/><path id="Fill 7" fill-rule="evenodd" clip-rule="evenodd" d="M151.108 208.999C91.6087 184.818 23.4397 136.241 0.376747 20.361C0.273747 19.842 -0.442254 17.463 -0.711254 16.303C-7.99725 -10.578 -24.0603 -52.915 -28.4403 -58.688C-33.1933 -68.751 -32.8923 -75.225 -26.9963 -71.878L-18.2783 -60.366C-17.1493 -58.836 -14.7363 -60.517 -15.7783 -62.104C-15.7873 -62.12 -23.7243 -74.581 -23.7293 -74.598C-26.0453 -78.149 -29.9203 -86.275 -27.1213 -88.731C-25.7093 -89.971 -24.2473 -91.248 -17.1863 -83.328L-7.14325 -65.629C-6.12825 -63.78 -3.23625 -65.34 -4.21925 -67.202C-6.87225 -74.356 -21.2963 -94.304 -16.0093 -101.079C-11.7513 -103.528 -7.10925 -93.73 -3.68525 -89.427C-3.68625 -89.427 5.97975 -71.869 5.97975 -71.869C6.39475 -71.118 7.33375 -70.812 8.11375 -71.192C8.92075 -71.585 9.25475 -72.558 8.86275 -73.364L0.159744 -91.222C-0.382256 -95.492 -1.91226 -104.335 3.42974 -104.741C10.5237 -104.575 20.5357 -77.74 23.8257 -68.922C23.9627 -66.895 23.3917 -64.162 22.2807 -62.488C16.3757 -56.841 11.7537 -47.343 15.3647 -39.301C15.9427 -38.069 17.9287 -38.88 17.4257 -40.18C17.2497 -40.66 16.9317 -41.151 17.0267 -41.647C17.1407 -42.244 15.8517 -52.519 22.4477 -57.425C24.2017 -58.73 26.4267 -60.035 27.0297 -62.157C27.9017 -64.371 28.1967 -66.585 28.2417 -68.938C27.7777 -77.684 33.4127 -88.611 36.2467 -85.968C45.4447 -55.459 57.3767 -5.43395 76.3017 40.582C76.5527 41.241 77.9517 43.903 78.5467 45.05C92.9197 74.812 112.312 96.373 136.219 109.821C148.371 116.656 161.62 121.387 176.179 124.093L177.395 119.975C131.678 111.674 98.9058 83.1561 77.8857 33.2941C77.7587 32.9911 77.6137 32.719 77.3997 32.25C60.4748 -11.373 48.9737 -59.764 39.8917 -88.161C33.8697 -95.541 27.3297 -86.321 25.0037 -77.75C18.3547 -94.643 11.2037 -108.816 3.52975 -108.993C-2.33125 -109.232 -4.62925 -103.449 -4.66525 -98.296C-12.2473 -110.798 -24.5803 -106.5 -20.7903 -92.448C-23.9793 -94.495 -26.8803 -94.601 -29.9263 -91.929C-34.0473 -88.313 -32.0593 -81.646 -29.9243 -77.056C-36.2773 -75.857 -38.5763 -70.73 -32.2663 -56.832C-17.6333 -26.688 -9.35826 -2.04895 -2.31326 28.007C-1.77726 30.294 -0.366254 34.808 0.482746 38.29C14.3647 95.311 40.2897 136.812 76.8137 168.975C100.965 190.243 127.096 203.902 149.89 213.125L151.108 208.999Z" fill="#141414"/></g><path id="T Shirt" fill-rule="evenodd" clip-rule="evenodd" d="M367.246 196.113C366.982 194.969 367.696 193.827 368.841 193.563C369.984 193.298 371.127 194.014 371.391 195.158L377.628 222.234C414.481 213.224 421.061 197.817 421.061 197.817C421.061 197.817 414.999 149 389.999 102C323.999 108 305.999 99 295.999 99C275.999 92 236.998 94.1729 214.999 101C185.999 110 181.999 112 148.454 107.957C144.47 124.509 123.116 167.285 103.371 201.207C116.999 210 129.392 214.23 154.296 220.934L155.688 199.963C155.766 198.792 156.784 197.918 157.951 197.982C159.122 198.06 160.01 199.073 159.932 200.245L158.134 227.348C158.131 227.388 158.12 227.424 158.115 227.463C156.184 304.653 153.657 394.247 153.657 394.247L409.687 390.247C409.687 390.247 382.587 277.174 374.114 225.91C374.111 225.897 374.105 225.886 374.102 225.873L367.246 196.113Z" fill="#cfcfcf"/><g id="neck"><path id="Fill 30" fill-rule="evenodd" clip-rule="evenodd" d="M238.539 70.6416L234.773 105.805C234.773 105.805 242.2 121.902 264.984 123.005C295.722 124.492 289.289 105.447 289.289 105.447L288.434 73.6896" fill="#ffffff"/><path id="Fill 32" fill-rule="evenodd" clip-rule="evenodd" d="M264.888 125.002C241.166 123.854 233.282 107.345 232.958 106.643C232.807 106.315 232.747 105.951 232.785 105.592L236.552 70.4284C236.669 69.3304 237.661 68.5354 238.753 68.6524C239.851 68.7704 240.647 69.7564 240.529 70.8544L236.826 105.428C238.215 108.003 245.735 120.07 265.082 121.006C275.333 121.499 284.198 119.67 286.937 115.708C289.747 111.644 287.482 106.302 287.459 106.249C287.357 106.014 287.298 105.755 287.291 105.5L286.436 73.7444C286.406 72.6404 287.277 71.7204 288.382 71.6914C289.477 71.6494 290.405 72.5324 290.435 73.6364L291.28 105.034C291.892 106.647 293.818 112.747 290.252 117.947C286.999 122.69 278.281 125.086 268.26 125.086C267.175 125.086 266.051 125.058 264.888 125.002Z" fill="#141414"/></g></g></g><g id="Lower Body Floor" transform="translate(182 1025) scale(1 1)"><g id="Lower Body Floor/Legs Crossed"><g id="Shoe 1"><path id="Fill 1" fill-rule="evenodd" clip-rule="evenodd" d="M350.201 237C350.201 237 297.529 267.81 300.09 297.259C302.651 326.708 325.538 326.068 336.101 325.588C362.348 324.395 390.999 301.461 390.999 301.461L350.201 237Z" fill="#cfcfcf"/><path id="Fill 5" fill-rule="evenodd" clip-rule="evenodd" d="M351.191 302.189C350.739 302.189 350.284 302.037 349.91 301.724C336.551 290.57 332.472 276.668 332.305 276.081C332.002 275.019 332.618 273.912 333.68 273.609C334.74 273.308 335.847 273.92 336.151 274.982C336.189 275.114 340.1 288.322 352.474 298.654C353.322 299.362 353.435 300.623 352.727 301.471C352.332 301.945 351.763 302.189 351.191 302.189" fill="#141414"/></g><g id="Leg 1"><path id="Fill 7" fill-rule="evenodd" clip-rule="evenodd" d="M302 108.389C302 108.389 387.625 68.4751 493.526 53.9131C595.957 39.8291 611.633 106.481 586.994 156.344C533.219 265.177 393.587 313.862 393.587 313.862C317.928 275.635 343.287 184.769 302 108.389" fill="#141414"/><path id="Fill 9" fill-rule="evenodd" clip-rule="evenodd" d="M389.116 193.392C388.5 193.392 387.891 193.108 387.5 192.573C386.847 191.681 387.042 190.43 387.933 189.778C388.627 189.271 457.477 138.625 478.089 98.855C478.596 97.875 479.803 97.491 480.784 98C481.765 98.508 482.148 99.715 481.639 100.696C472.789 117.775 454.714 138.51 427.916 162.325C408.021 180.006 390.47 192.878 390.295 193.006C389.938 193.267 389.525 193.392 389.116 193.392" fill="#ffffff"/></g><g id="Shoe 2"><path id="Fill 11" fill-rule="evenodd" clip-rule="evenodd" d="M504.78 261.366C504.78 261.366 490.304 271.214 505.081 287.253C512.228 295.012 598.434 329.295 626.118 311.794C638.906 303.71 641.816 294.626 643.154 290.751C628.63 286.326 504.78 261.366 504.78 261.366" fill="#141414"/><path id="Fill 13" fill-rule="evenodd" clip-rule="evenodd" d="M534.438 208.058C551.733 206.951 584.239 221.851 624.391 242.115C664.663 262.438 648.827 305.537 612.106 308.026C590.386 309.498 536.049 296.971 511.193 281.909C491.912 270.225 498.241 247.43 502.523 238.443C508.846 225.174 522.535 208.82 534.438 208.058" fill="#cfcfcf"/><path id="Fill 16" fill-rule="evenodd" clip-rule="evenodd" d="M576.784 276.269C576.761 276.268 576.735 276.267 576.71 276.264C575.663 276.181 574.882 275.264 574.966 274.216C576.508 254.85 586.533 242.175 586.958 241.645C587.616 240.828 588.811 240.696 589.634 241.354C590.452 242.012 590.582 243.208 589.926 244.028C589.829 244.148 580.203 256.369 578.758 274.519C578.677 275.541 577.801 276.31 576.784 276.269" fill="#141414"/><path id="Fill 18" fill-rule="evenodd" clip-rule="evenodd" d="M596.324 279.879C596.3 279.878 596.274 279.877 596.25 279.874C595.203 279.791 594.421 278.874 594.505 277.826C595.648 263.461 603.099 254.04 603.416 253.647C604.074 252.828 605.27 252.697 606.091 253.356C606.909 254.014 607.04 255.209 606.384 256.027C606.313 256.116 599.345 264.98 598.297 278.129C598.216 279.151 597.34 279.92 596.324 279.879" fill="#141414"/><path id="SKIN" fill-rule="evenodd" clip-rule="evenodd" d="M513.568 191.311C513.568 191.311 560.968 223.98 563.819 232.374C569.794 249.965 560.353 264.504 548.638 269.291C526.91 278.17 477.944 247.689 477.944 247.689" fill="#ffffff"/><path id="Fill 22" fill-rule="evenodd" clip-rule="evenodd" d="M542.146 272.779C518.016 274.776 478.723 250.529 476.887 249.386C475.949 248.802 475.663 247.568 476.246 246.631C476.83 245.695 478.064 245.408 479.001 245.99C479.123 246.066 491.326 253.628 505.983 260.004C525.026 268.287 539.515 270.856 547.882 267.439C558.837 262.964 567.482 249.378 561.925 233.017C560.003 227.359 530.548 205.443 512.433 192.957C511.524 192.33 511.294 191.085 511.921 190.175C512.547 189.265 513.792 189.036 514.703 189.664C514.823 189.746 526.729 197.962 538.83 207.098C561.152 223.952 564.862 229.228 565.712 231.73C572.056 250.407 562.04 265.975 549.395 271.141C547.203 272.038 544.761 272.563 542.146 272.779" fill="#141414"/></g><g id="Leg 2"><path id="Fill 24" fill-rule="evenodd" clip-rule="evenodd" d="M158.43 153.617C166.483 -15.4981 323.957 63.2599 354.919 79.1729C455.59 130.916 557.875 194.139 557.875 194.139C560.758 246.803 501.836 294.03 465.935 299.277L341.297 236.679C341.297 236.679 309.643 282.211 252.84 279.801C178.376 276.641 154.384 238.585 158.43 153.617" fill="#404040"/><path id="Fill 27" fill-rule="evenodd" clip-rule="evenodd" d="M341.402 236.758C335.16 233.463 293.082 211.039 272.055 194.455C271.187 193.771 269.929 193.919 269.246 194.787C268.562 195.654 268.711 196.912 269.578 197.596C290.212 213.87 330.628 235.575 338.852 239.935C339.781 238.88 340.734 237.733 341.402 236.758" fill="#ffffff"/></g></g></g><g id="Head" transform="translate(357 673) scale(1 1)"><g id="Head/Short Hair 3"><g id="Short Hair"><path id="SKIN" fill-rule="evenodd" clip-rule="evenodd" d="M81.0758 62.1135C71.3628 66.0515 56.3708 95.9825 56.3708 95.9825L30.4718 91.9975C30.4718 91.9975 18.5178 123.077 34.8538 139.414C51.1908 155.751 48.3338 150.709 50.4328 154.245C52.5328 157.78 61.8278 181.823 103.041 183.37C144.253 184.917 152.636 146.069 153.299 141.981C153.961 137.893 154.846 109.055 153.409 103.089C151.973 97.1225 151.641 79.0525 146.559 73.3675C135.489 60.9835 96.4698 55.8715 81.0758 62.1135" fill="#ffffff"/><path id="ink" fill-rule="evenodd" clip-rule="evenodd" d="M54.5636 157.2C71.1326 185.743 122.727 192.091 142.809 162.458C154.743 146.339 153.794 110.994 145.198 84.8123C122.76 93.1483 95.2986 92.8023 73.5856 87.6983C71.8546 100.607 52.3636 115.69 49.4986 112.708C48.0571 111.207 47.3274 109.956 46.6704 108.829C45.6482 107.075 44.8021 105.624 41.7256 104.005C34.6046 100.74 27.6786 106.397 28.2786 114.255C28.5686 120.699 30.9626 131.51 43.7336 131.51C44.7426 131.51 45.5936 132.262 45.7186 133.264C46.7766 141.788 49.8866 150.041 54.5636 157.2ZM62.3376 29.1543C94.8356 16.7173 184.372 42.7283 155.453 77.9443C159.935 86.6453 166.021 103.11 155.213 113.99C158.406 147.561 149.407 177.019 116.778 184.032C90.8126 189.849 62.9936 180.442 49.8706 157.206C19.0406 155.166 -1.51242 80.6453 37.0106 63.9163C32.7296 50.9193 42.6646 36.4133 62.3376 29.1543ZM36.355 110.837C33.4 110.734 33.4 118.966 36.355 118.863C39.311 118.966 39.311 110.733 36.355 110.837Z" fill="#141414"/></g></g></g><g id="Face" transform="translate(417 759) scale(1 1)"><g id="Face/Open Mouth"><g id="Open Mouth"><path id="face" fill-rule="evenodd" clip-rule="evenodd" d="M70.9882 13.9992C68.0522 13.1742 65.0782 13.0552 62.1032 13.8122C61.3352 13.9612 60.5912 13.4602 60.4422 12.6922C60.2782 10.4482 64.6642 9.45818 66.4202 9.12918C68.9872 8.53018 78.2462 9.98018 75.8402 14.0072C74.8739 14.9846 73.5478 14.6298 72.2836 14.2916C71.838 14.1724 71.4 14.0552 70.9882 13.9992ZM79.0837 28.4098C82.3627 26.3868 77.0907 22.1598 75.2657 21.4738C69.4397 18.6568 61.9697 21.0418 58.6887 26.5268C58.2247 27.2298 58.3157 28.1878 58.9497 28.7888C59.6937 29.4978 60.8847 29.4128 61.5407 28.6288C62.6357 27.4718 63.7997 26.4788 65.0977 25.7828C68.6977 23.8368 74.1807 24.5208 76.8177 27.5978C77.2937 28.3478 78.2017 28.7898 79.0837 28.4098ZM53.2121 41.7435C64.1301 46.3135 60.3391 58.0745 48.9291 57.1785C46.3381 57.1585 46.3271 53.2175 48.9111 53.1785C51.0741 53.1255 54.3141 52.8435 55.2651 50.9605C56.4161 48.0585 53.4991 46.1325 50.9521 45.1195C49.8511 44.6065 49.4721 43.1815 49.3121 42.3375C48.4978 37.2812 48.6234 32.2363 48.7496 27.1678L48.7601 26.7445C48.7891 25.0005 51.4901 24.9795 51.5791 26.6915C51.7055 28.058 51.8056 29.4359 51.9059 30.8166C52.173 34.4938 52.4415 38.1905 53.2121 41.7435ZM30.3622 32.9675C29.6752 32.1725 28.7082 31.6365 27.5622 31.4665C23.6152 30.9165 20.4002 34.4195 19.1242 37.9275C18.7892 38.8765 17.7262 39.3655 16.7902 38.9875C14.522 37.8155 16.3701 34.8966 17.597 32.9588C17.8105 32.6215 18.0053 32.3139 18.1562 32.0505C20.3672 29.0185 24.0882 26.8595 28.0172 27.2305C30.0292 27.4015 32.0852 28.2865 33.5832 29.8225C35.6322 31.9375 32.4222 35.0645 30.3622 32.9675ZM23.7171 17.8459H23.7171C24.9032 17.8693 26.1151 17.8932 26.6225 16.807C27.4035 13.736 19.8595 14 17.9705 14.2C15.5715 14.569 10.0895 15.517 9.99951 18.591C10.1315 19.604 11.0595 20.318 12.0715 20.187C13.5777 19.9711 15.0595 19.5563 16.5438 19.1407C18.3183 18.6439 20.0965 18.1461 21.9245 17.986C22.4365 17.8206 23.073 17.8331 23.7171 17.8459ZM58.3953 62.0875C62.3488 61.5386 68.1152 60.738 69.169 62.5403C72.497 69.5353 66.256 77.4383 59.985 80.2743C50.105 84.8163 30.721 80.4693 32.805 66.7053C32.769 66.2653 33.383 65.5403 33.895 65.5473C34.7414 65.42 35.5932 65.2916 36.4491 65.1625C42.6883 64.2219 49.1471 63.2481 55.329 62.4453C56.0061 62.4192 57.104 62.2668 58.3953 62.0875Z" fill="#141414"/><path id="dot" fill-rule="evenodd" clip-rule="evenodd" d="M71.0965 36.1706C69.5995 36.1836 69.6205 38.5066 71.1165 38.4936C72.6135 38.4816 72.5915 36.1576 71.0965 36.1706ZM30.8523 42.5124C28.8363 43.4524 30.2933 46.5864 32.3133 45.6444C34.3283 44.7044 32.8713 41.5714 30.8523 42.5124ZM23.5066 45.0485C22.0286 45.7375 23.0976 48.0355 24.5786 47.3455C26.0566 46.6555 24.9866 44.3585 23.5066 45.0485ZM27.7127 52.1735C25.2727 53.3125 27.0367 57.1085 29.4827 55.9675C31.9227 54.8285 30.1577 51.0335 27.7127 52.1735ZM20.0076 53.3102C18.6656 50.1012 14.3706 55.1302 18.2626 55.7892C19.8626 56.3762 20.8486 54.5802 20.0076 53.3102ZM70.4275 43.7263C67.9545 43.7473 67.9905 47.5833 70.4595 47.5633C72.9335 47.5423 72.8965 43.7053 70.4275 43.7263ZM77.2517 41.6266C77.0577 43.0086 78.5807 44.1076 79.6737 42.9896C82.6337 40.9086 77.0957 38.4416 77.2517 41.6266ZM64.0183 36.9704C61.9763 36.9884 62.0063 40.1564 64.0443 40.1384C66.0863 40.1204 66.0573 36.9524 64.0183 36.9704Z" fill="#8d8d8d"/></g></g></g><g id="Accessories" transform="translate(409 757) scale(103 60)"><g id="Accessories/None" stroke="none" stroke-width="1" fill="none" fill-rule="evenodd" fill-opacity="0"/></g><g id="Facial Hair" transform="translate(419 815) scale(90 60)"><g id="Facial Hair/None" stroke="none" stroke-width="1" fill="none" fill-rule="evenodd" fill-opacity="0"/></g></g></svg>