<svg viewBox="102.33100558659214 48.75 828.3938547486033 1072.5000000000002" fill="none" xmlns="http://www.w3.org/2000/svg" xmlns:xlink="http://www.w3.org/1999/xlink" overflow="visible" width="828.3938547486033px" height="1072.5000000000002px"><g id="Master/Character/Avatar and Backdrop"><g id="Background" transform="matrix(-1 0 0 1 1043 64) scale(1.6170542635658915 1.6184615384615384)"><g id="Background/Backdrop 2"><g id="Plant 2"><path id="Fill 1" fill-rule="evenodd" clip-rule="evenodd" d="M210.662 632.982C271.772 588.994 263.925 601.74 339.959 602.7C415.996 603.657 401.329 524.235 384.215 503.461C367.105 482.689 375.662 442.367 424.552 453.364C473.439 464.364 525.996 463.141 506.439 404.491C486.886 345.837 524.243 339.09 558.996 283.523C593.749 227.957 578.72 196.49 548.166 190.382C517.61 184.274 486.886 217.541 461.216 216.318C435.552 215.099 423.329 170.026 392.775 175.453C362.219 180.881 361.969 199.213 340.09 248.09C318.219 296.963 293.772 293.297 263.215 282.3C232.662 271.303 203.328 285.966 187.438 328.731C171.548 371.5 74.1199 544.835 108.169 616.403C108.169 616.403 149.551 676.973 210.662 632.982Z" fill="#d9c9eb"/><path id="Stroke 4" d="M473.407 262.458C474.811 261.578 476.663 262.003 477.542 263.407C478.422 264.811 477.997 266.663 476.593 267.542L474.872 268.637C474.108 269.126 473.245 269.683 472.285 270.306L471.016 271.133C467.783 273.243 464.114 275.68 460.04 278.434L457.623 280.072C445.05 288.62 431.164 298.457 416.277 309.496C370.994 343.072 325.711 380.811 283.457 421.853C206.449 496.652 148.336 573.827 116.778 651.134C116.151 652.668 114.4 653.404 112.866 652.777C111.332 652.151 110.596 650.4 111.223 648.866C143.142 570.676 201.725 492.875 279.277 417.549C321.737 376.307 367.22 338.401 412.703 304.676L415.585 302.545C430.41 291.612 444.212 281.888 456.68 273.462L459.874 271.313C462.98 269.231 465.822 267.354 468.382 265.687L470.948 264.026L473.25 262.557C473.311 262.518 473.364 262.485 473.407 262.458Z" fill="#ffffff"/><path id="Fill 6" fill-rule="evenodd" clip-rule="evenodd" d="M152.035 568C152.035 568 234.142 385.9 313.803 262.909C393.463 139.918 383.657 12.7188 284.39 0.486855C185.124 -11.7418 99.3397 207.186 152.035 568" fill="#a27ccf"/><path id="Stroke 9" d="M262.424 82.3594C263.828 83.1166 264.385 84.832 263.723 86.2603L262.779 88.0594L261.748 90.0588C261.1 91.3258 260.393 92.7267 259.631 94.2592L259.049 95.4333C255.375 102.865 251.279 111.576 246.866 121.494C234.249 149.851 221.629 182.181 209.849 217.912C193.464 267.614 180.056 319.871 170.666 373.975C159.483 438.415 154.396 503.294 156.442 567.905C156.494 569.561 155.194 570.946 153.538 570.998C151.882 571.051 150.497 569.751 150.445 568.095C148.385 503.059 153.504 437.775 164.755 372.949C174.197 318.543 187.677 266.004 204.151 216.034C215.777 180.77 228.219 148.794 240.679 120.645L241.384 119.055C245.501 109.802 249.347 101.586 252.839 94.463L253.67 92.7745C254.87 90.3466 255.947 88.2142 256.89 86.3844L257.763 84.7031L258.359 83.5762C259.146 82.1178 260.965 81.573 262.424 82.3594Z" fill="#18111f"/></g></g></g><g id="Head" transform="translate(267 297) scale(3.5 3.5)"><g id="Head/Short Hair"><path id="SKIN" fill-rule="evenodd" clip-rule="evenodd" d="M105 47C69.9999 47 43.9999 73 38.9999 97C27.9999 97 19.9999 104 19.9999 114C19.9999 120.363 17.9999 132 33.9999 138C37.9999 170 74.0918 193.643 108.246 185.279C157.247 173.279 153.267 142 150 105C146.733 68 140 47 105 47Z" fill="#ffffff"/><path id="Combined Shape" fill-rule="evenodd" clip-rule="evenodd" d="M59.7966 172.591C72.4606 182.96 90.0736 186.639 112.149 183.525C122.537 182.06 130.727 177.081 136.492 168.727C146.917 153.624 149.02 127.832 142.264 97.9648C136.985 74.6238 131.002 63.1268 121.418 57.8318C119.636 60.1228 117.139 62.4608 113.676 64.7508C103.017 71.7998 94.8976 71.7948 87.0216 71.7788H86.9469C79.9422 71.7787 72.7073 71.7787 63.0676 76.8068C48.9236 84.1838 44.2626 108.704 44.2166 108.951C44.0616 109.795 43.3856 110.446 42.5356 110.569C42.4396 110.582 42.3436 110.589 42.2486 110.589C41.5036 110.589 40.8096 110.173 40.4656 109.495C39.7086 108.001 38.2456 106.493 36.1686 105.029C34.5346 104.441 32.9926 104.135 31.5786 104.135C29.7486 104.135 28.1246 104.626 26.7656 105.606C24.0416 107.572 22.4686 111.439 22.6596 115.698C22.9646 122.476 25.9476 130.555 38.4246 130.555C39.4836 130.555 40.3596 131.38 40.4216 132.438C40.7706 138.422 43.2016 159.003 59.7966 172.591ZM122.887 33.2148C135.18 35.1818 149.68 47.4178 150.91 71.6208C152.885 110.482 163.653 121.952 174.575 133.585C176.683 135.831 178.797 138.082 180.855 140.538C192.825 154.823 195.493 193.578 161.645 191.081C149.558 212.137 117.804 205.488 115.058 187.089C114.285 187.239 113.504 187.374 112.707 187.486C107.448 188.228 102.421 188.599 97.6366 188.599C91.6936 188.599 79.9999 188 74.9999 186C73.9999 193 69.4706 212.025 45.5506 206.237C24.3286 218.099 -15.5654 210.277 -14.9934 171.97C-14.754 155.9 -10.935 150.122 -5.68336 142.176C-0.562088 134.427 5.92157 124.617 11.7766 101.192C23.6356 53.7458 52.7676 16.5998 94.1246 18.0408C112.972 18.6978 120.182 25.1018 122.887 33.2148ZM35.3669 115.915C35.1489 120.052 31.5159 119.968 30.5029 119.259C28.0769 117.561 29.3829 111.775 31.3529 111.383C33.1139 111.032 35.5839 111.779 35.3669 115.915Z" fill="#18111f"/></g></g><g id="Face" transform="translate(477 598) scale(3.488888888888889 3.488888888888889)"><g id="Face/Blow Kiss"><path id="Blow Kiss" fill-rule="evenodd" clip-rule="evenodd" d="M75.8242 17.9432C74.7792 17.1152 73.5912 16.4012 72.3152 15.9522C71.0452 15.4922 69.7142 15.1842 68.3852 15.0732C67.0552 14.9742 65.7192 14.9512 64.4162 15.1602C63.0972 15.3872 61.8902 15.7392 60.6282 16.5012C60.1152 16.8172 59.7552 17.3832 59.7382 18.0302C59.7112 19.0482 60.5142 19.8962 61.5322 19.9232L61.8412 19.9312C62.6916 19.954 63.6363 19.8632 64.5376 19.7766C64.7025 19.7608 64.866 19.745 65.0272 19.7302C65.2341 19.7097 65.4408 19.688 65.6472 19.6663L65.6473 19.6663L65.6474 19.6663L65.6474 19.6663C66.4984 19.5768 67.3456 19.4878 68.1922 19.4862C69.2472 19.4442 70.2832 19.5342 71.3182 19.6682C72.2396 19.7711 73.1153 20.0154 74.0304 20.2707C74.1562 20.3057 74.2827 20.341 74.4102 20.3762L74.5692 20.4202C75.1002 20.5662 75.6922 20.3922 76.0552 19.9332C76.5412 19.3192 76.4382 18.4282 75.8242 17.9432ZM52.4036 39.1741C52.5341 39.2415 52.6668 39.3101 52.8002 39.3797L52.9182 39.4425C54.0685 40.0548 55.3528 40.7384 56.5372 42.1287C57.1402 42.8507 57.6342 43.8897 57.7012 45.0237C57.7832 46.1917 57.3632 47.3227 56.8032 48.0947C55.6642 49.6667 54.2652 50.4107 52.9042 51.0147C51.5242 51.5787 50.1132 51.9237 48.6702 52.0287C47.8092 52.0907 47.0612 51.4437 46.9982 50.5837C46.9442 49.8387 47.4202 49.1787 48.1072 48.9737L48.1552 48.9597C49.2662 48.6257 50.3602 48.2147 51.3272 47.6767C52.2812 47.1627 53.1642 46.4687 53.5052 45.8847C53.6712 45.5897 53.7012 45.4297 53.6852 45.2967C53.6692 45.1297 53.5872 44.9397 53.3782 44.6577C52.9422 44.0767 51.9582 43.4517 50.8922 42.8187C50.7555 42.737 50.617 42.656 50.4755 42.5733C50.0528 42.3263 49.6045 42.0644 49.1062 41.7227C48.9372 41.6077 48.7662 41.4797 48.5802 41.3197C48.5042 41.2597 48.3172 41.0807 48.2042 40.9587L48.1751 40.9235C48.0848 40.814 47.9878 40.6965 47.9192 40.5927C47.6022 40.1257 47.4302 39.7247 47.2812 39.3417C46.7262 37.8327 46.5562 36.4857 46.4072 35.1127C46.1582 32.3897 46.2422 29.6967 46.7302 27.0227C46.8332 26.4567 47.3762 26.0817 47.9422 26.1857C48.4322 26.2747 48.7792 26.6937 48.7962 27.1727V27.1957C48.8842 29.6917 49.2002 32.2127 49.6932 34.6207C49.9452 35.8037 50.2662 37.0247 50.6782 37.9267C50.7782 38.1417 50.8962 38.3247 50.9562 38.3867C50.9651 38.3974 50.9691 38.3968 50.9715 38.3964C50.9731 38.3962 50.974 38.396 50.9752 38.3997C50.9784 38.3922 50.9573 38.3724 50.9455 38.3615C50.9355 38.3521 50.9323 38.3491 50.9572 38.3657L51.2192 38.5317C51.5436 38.7302 51.9605 38.9454 52.4036 39.1741ZM52.0381 65.7403C52.7301 66.1613 53.3471 66.6903 53.8251 67.3123C54.5781 68.2953 55.0811 69.4483 55.2431 70.6943C55.3941 71.9313 55.2241 73.3043 54.5371 74.4893C53.8681 75.6803 52.7591 76.5673 51.6381 77.0423C50.5101 77.5303 49.3881 77.6873 48.3281 77.7283C46.2091 77.7733 44.2861 77.3543 42.4741 76.7963C41.4191 76.4713 40.8261 75.3523 41.1521 74.2963C41.4761 73.2403 42.5961 72.6483 43.6521 72.9733L43.6611 72.9763C45.2101 73.4623 46.7881 73.7653 48.1991 73.7303C48.8941 73.7053 49.5451 73.5943 50.0371 73.3763C50.5341 73.1593 50.8491 72.8683 51.0541 72.5223C51.2651 72.1793 51.3281 71.7093 51.2771 71.2083C51.2151 70.7043 50.9861 70.1883 50.6711 69.7733C50.0001 68.9493 49.0931 68.6093 47.9761 68.8643C46.9001 69.1103 45.8281 68.4373 45.5821 67.3613C45.3691 66.4323 45.8411 65.5063 46.6671 65.1123L46.7511 65.0723C47.7211 64.7223 48.6191 64.1713 49.1861 63.4883C49.7671 62.7893 49.9351 62.1333 49.7211 61.5893C49.4221 60.9263 49.0361 60.5573 48.0671 60.5843C47.1351 60.6133 45.9281 61.1043 44.9941 61.6723L44.9061 61.7263C44.3551 62.0613 43.6371 61.8863 43.3021 61.3363C42.9911 60.8243 43.1241 60.1643 43.5871 59.8053C44.8041 58.8683 46.0251 58.1233 47.7181 57.7893C48.5481 57.6403 49.5571 57.6603 50.5041 58.0933C51.4611 58.5273 52.1701 59.2443 52.6461 60.1133C53.1381 60.9983 53.3091 62.0993 53.1581 63.0733C53.0151 64.0553 52.6151 64.9143 52.1201 65.6383C52.1066 65.6582 52.0914 65.6758 52.0762 65.6935C52.0631 65.7086 52.0501 65.7237 52.0381 65.7403ZM27.4569 19.9341L27.2079 19.9661C26.2031 20.0949 25.0869 20.1249 24.0209 20.1535H24.0209L24.0202 20.1535C23.8781 20.1573 23.7369 20.1611 23.5969 20.1651L23.3339 20.1707C22.2131 20.1942 21.0955 20.2176 19.9909 20.3391C18.7929 20.4361 17.6279 20.6651 16.4709 20.9381C15.3019 21.2011 14.2019 21.6231 13.0589 22.0741L12.9329 22.1231C12.2069 22.4101 11.3849 22.0531 11.0989 21.3261C10.8729 20.7551 11.0479 20.1231 11.4849 19.7411C12.5819 18.7861 13.8119 17.9251 15.1509 17.3241C16.4849 16.7171 17.8869 16.2491 19.3109 15.9741C20.7349 15.7061 22.1759 15.5261 23.6129 15.5591C25.0669 15.6091 26.4349 15.8061 27.9049 16.3951C28.8499 16.7741 29.3089 17.8471 28.9299 18.7921C28.6729 19.4331 28.0959 19.8511 27.4569 19.9341ZM65.8022 28.202C62.9382 31.914 66.6542 36.722 71.2102 35.656C73.1462 35.202 75.2902 33.254 75.2842 31.331C75.2702 26.6 69.1092 23.917 65.8022 28.202ZM26.7087 37.0793C22.1527 38.1463 18.4357 33.3383 21.3007 29.6263C24.6077 25.3403 30.7687 28.0243 30.7827 32.7553C30.7877 34.6773 28.6447 36.6263 26.7087 37.0793Z" fill="#18111f"/></g></g><g id="Accessories" transform="translate(449 590) scale(3.495145631067961 3.5)"><g id="Accessories/Glasses"><path id="Glass" fill-rule="evenodd" clip-rule="evenodd" d="M77.2051 44.2671C67.8901 44.2671 60.8651 37.0141 60.8651 27.3961C60.8651 17.8041 68.3521 10.0001 77.5561 10.0001C87.1111 10.0001 94.5971 17.3391 94.5971 26.7081C94.5971 36.2261 86.6321 44.2671 77.2051 44.2671M25.2251 50.9541C15.8881 50.9541 8.00012 41.9171 8.00012 31.2221C8.00012 21.3761 16.2651 13.3671 26.4241 13.3671C36.0901 13.3671 43.9541 21.9761 43.9541 32.5591C43.9541 42.5301 35.3771 50.9541 25.2251 50.9541M77.5561 6.0001C68.7881 6.0001 61.2971 11.6771 58.2881 19.6551C54.5741 19.3811 47.9351 20.2451 45.0411 20.9321C41.3091 14.0241 34.3641 9.3671 26.4241 9.3671C14.0591 9.3671 4.00012 19.1711 4.00012 31.2221C4.00012 44.3081 13.5211 54.9541 25.2251 54.9541C37.5451 54.9541 47.9541 44.6981 47.9541 32.5591C47.9541 29.7721 47.4951 27.0991 46.6541 24.6211C49.1291 24.1271 54.4851 23.5661 57.2161 23.5671C56.9971 24.8111 56.8651 26.0871 56.8651 27.3961C56.8651 39.1001 65.8001 48.2671 77.2051 48.2671C88.8011 48.2671 98.5971 38.3941 98.5971 26.7081C98.5971 15.0961 89.3541 6.0001 77.5561 6.0001" fill="#a27ccf"/></g></g><g id="Facial Hair" transform="translate(484 793) scale(314 210)"><g id="Facial Hair/None" stroke="none" stroke-width="1" fill="none" fill-rule="evenodd" fill-opacity="0"/></g></g></svg>