<?xml version="1.0" encoding="UTF-8" standalone="no"?>
<!-- Created with Inkscape (http://www.inkscape.org/) -->

<svg
   width="186.90202mm"
   height="164.79221mm"
   viewBox="0 0 186.90203 164.7922"
   version="1.1"
   id="svg1"
   xml:space="preserve"
   sodipodi:docname="Icon Title.svg"
   inkscape:export-filename="prueva-cliente.svg"
   inkscape:export-xdpi="96"
   inkscape:export-ydpi="96"
   xmlns:inkscape="http://www.inkscape.org/namespaces/inkscape"
   xmlns:sodipodi="http://sodipodi.sourceforge.net/DTD/sodipodi-0.dtd"
   xmlns="http://www.w3.org/2000/svg"
   xmlns:svg="http://www.w3.org/2000/svg"><sodipodi:namedview
     id="namedview1"
     pagecolor="#505050"
     bordercolor="#ffffff"
     borderopacity="1"
     inkscape:showpageshadow="0"
     inkscape:pageopacity="0"
     inkscape:pagecheckerboard="1"
     inkscape:deskcolor="#505050"
     inkscape:document-units="mm" /><defs
     id="defs1" /><path
     id="path17"
     style="fill:#2ecb70;fill-rule:evenodd;stroke-width:23.1149;stroke-linecap:round"
     d="m 93.043714,153.83563 c 0,7.20145 3.126902,10.42056 4.411565,10.58665 3.559741,0.46023 9.993941,0.052 14.302061,-0.72029 4.99894,-0.89626 11.55419,-3.23485 13.96929,-5.14691 5.64618,-4.4701 -10.11065,-17.75879 -18.14161,-17.75879 -8.030946,0 -14.541306,5.83793 -14.541306,13.03939 z"
     sodipodi:nodetypes="sssssss" /><path
     id="path16"
     style="fill:#2ecb70;fill-rule:evenodd;stroke-width:23.1149;stroke-linecap:round"
     d="m 71.170648,150.55871 c -3e-6,7.20145 -4.192732,10.84455 -5.460949,10.5808 -3.679205,-0.76516 -8.261722,-1.59283 -12.266621,-3.35841 -4.661014,-2.05482 -8.373098,-5.29736 -10.788203,-7.20942 -5.646174,-4.4701 5.943526,-13.05236 13.974469,-13.05236 8.030943,0 14.541307,5.83793 14.541304,13.03939 z"
     sodipodi:nodetypes="ssssss" /><g
     inkscape:label="Capa 1"
     inkscape:groupmode="layer"
     id="layer1"
     transform="translate(-0.98652363,-63.476125)"><path
       id="path1"
       style="fill:#2ecb70;fill-opacity:1;stroke:none;stroke-width:0.036955"
       d="m 103.92959,63.489019 c -4.218382,-0.06404 -8.391661,0.109893 -12.409061,0.534851 v 0.05168 c -20.407544,2.170215 -39.155936,9.232522 -54.810607,20.600293 -5.658324,4.125841 -6.9035,5.288682 -7.997445,7.529256 -1.697485,3.508574 -0.867518,7.710495 1.848466,9.339481 0.67899,0.44588 3.508433,1.44649 6.299874,2.3859 9.920903,3.26127 12.108932,4.67373 14.48542,9.34 0.57191,1.12036 1.06622,2.34826 1.522905,3.78943 0.325765,-0.11814 0.664585,-0.17897 1.007174,-0.18965 0.399403,-0.0125 0.802665,0.0381 1.192175,0.12919 0.762482,0.17689 1.514313,0.39468 2.271179,0.59376 1.027606,0.31748 2.040017,0.70358 2.950208,1.28623 0.385289,0.26496 0.854279,0.56234 1.176672,0.90123 0.261028,0.27439 0.493561,0.576 0.713651,0.88419 0.235982,0.33043 0.344587,0.82608 0.590145,1.15652 0.600604,1.10225 1.192436,2.20913 1.685169,3.36517 0.79212,1.79114 1.502551,3.61613 2.276347,5.41517 0.721659,1.69685 1.519499,3.36603 2.110982,5.11442 0.175113,0.60469 0.328575,1.2171 0.429948,1.83709 0.426559,0.43146 0.798952,1.05993 1.029911,1.93425 0.249325,0.94383 0.121812,0.44927 0.381889,1.48518 0.226762,1.00425 0.445917,2.00927 0.612882,3.02566 0.160879,0.97929 0.191787,1.314 0.299724,2.29391 0.04575,0.41539 0.08924,0.83093 0.133842,1.24644 0.06672,0.733 0.176806,1.84695 0.209806,2.58279 0.04728,1.05432 -0.02383,2.10672 -0.15813,3.15226 -0.05187,0.43326 -0.08693,0.86278 -0.06666,1.29966 0.02931,0.63196 -0.04242,1.16876 -0.182935,1.61592 0.101184,0.20991 0.180228,0.43011 0.288871,0.63614 0.595053,1.11321 1.188126,2.2276 1.812293,3.32486 0.166666,0.293 0.292986,0.57326 0.390157,0.84233 2.194854,0.40926 4.070823,0.21702 7.914762,-0.89762 2.980011,-0.78485 5.167801,-1.12332 7.92148,-1.29191 6.261852,-0.2954 9.355322,0.7386 14.787206,4.55941 3.6968,2.64602 5.05523,3.12022 8.75192,3.12022 4.60204,0 6.60143,-1.20081 11.39207,-6.66212 3.94055,-4.54657 5.83034,-8.36729 6.12108,-12.8757 -0.20359,-0.0593 -0.40794,-0.11573 -0.61185,-0.17364 -0.60579,-0.16014 -1.21021,-0.32608 -1.81746,-0.48059 -2.03406,-0.51752 -4.08434,-0.94442 -6.13761,-1.37717 -3.06705,-0.64516 -6.16107,-1.1451 -9.22528,-1.80351 -1.98421,-0.3887 -3.94039,-0.9033 -5.91127,-1.35186 -1.04908,-0.2416 -2.11029,-0.41255 -3.1843,-0.48059 -2.10724,-0.13604 -4.215825,-0.24384 -6.325191,-0.34055 -7.597752,-0.34833 -10.244888,-5.24931 -8.229988,-8.77465 -0.05809,-1.01122 -0.02114,-2.09997 0.206705,-3.31505 0.277113,-1.47781 0.680505,-2.92541 1.45986,-4.22816 0.159353,-0.23889 0.312031,-0.48264 0.472322,-0.72089 -0.295579,-0.11017 -0.582011,-0.20071 -0.880566,-0.31677 -6.827636,-2.64592 -8.675887,-4.45015 -7.468795,-7.23781 1.433469,-3.4011 9.732467,-5.83071 24.481703,-7.27759 2.6029,-0.29571 9.84573,-0.45283 16.22072,-0.46664 h 11.50524 l 2.5275,1.20096 c 4.30021,2.03074 7.28061,6.01143 8.22378,10.93164 0.22631,1.23103 0.30138,2.93785 0.1881,3.76876 -0.6411,3.8766 -10.44907,52.38688 -10.93938,53.98017 -0.71679,2.38563 -3.05515,5.83071 -5.05447,7.4936 -3.6591,3.00167 -8.14846,4.4918 -12.71292,4.20026 -3.09325,-0.15572 -26.405505,-3.18536 -35.081578,-4.44779 -21.312979,-3.18557 -31.045919,-8.36195 -37.081457,-19.7311 -3.923091,-7.31028 -6.52575,-18.75355 -7.393347,-32.22129 -0.414952,-6.44596 -1.848626,-9.99262 -5.432227,-13.43329 -2.602807,-2.49435 -4.488861,-3.15295 -10.034013,-3.44423 -6.714535,-0.32304 -12.335313,1.29246 -15.5416867,4.67413 -3.2440936,3.40139 -6.14897863,15.53085 -6.14897863,25.84907 0,19.62233 9.01569133,37.68847 25.27390933,50.57676 3.093224,2.4936 7.129822,5.2896 7.582483,5.2896 0.15089,0 0.113133,-0.73867 -0.07545,-1.52342 -0.75444,-3.07762 0.980966,-7.677 4.07417,-10.82415 7.43125,-7.63691 20.370028,-5.61421 25.27391,3.94033 0.943032,1.84676 1.056266,2.46203 1.056266,5.68079 0,3.36929 -0.07549,3.80138 -1.244885,6.04718 -0.867623,1.70815 -1.961723,3.04511 -3.696932,4.5992 -1.357997,1.12334 -2.301144,2.20116 -2.150256,2.32182 1.357998,0.78493 12.59951,2.89378 18.597314,3.5109 4.451219,0.45567 16.975191,0.46625 16.975191,0.005 0,-0.15454 -0.226343,-0.47743 -0.528133,-0.74775 -0.264037,-0.1553 -0.980824,-1.41586 -1.584399,-2.67788 -0.943092,-1.95434 -1.09399,-2.67759 -1.09399,-5.50612 0,-2.89338 0.113149,-3.50871 1.207161,-5.68803 2.489641,-5.06348 7.393664,-8.2527 13.127368,-8.54108 3.84766,-0.15466 6.41305,0.46555 9.58184,2.49339 5.09248,3.26116 7.65732,9.3023 6.29936,14.91589 l -0.30179,1.33893 3.88555,-1.29191 c 28.97048,-9.84649 52.09487,-31.13518 60.62007,-55.82605 12.25965,-35.40727 -5.65869,-70.380655 -43.72033,-85.368427 -10.4961,-4.128965 -23.56015,-6.4638 -36.21536,-6.655924 z" /><ellipse
       style="fill:#2ecb70;fill-opacity:1;fill-rule:evenodd;stroke-width:35.9693;stroke-linecap:round"
       id="path15"
       cx="104.34396"
       cy="207.8055"
       rx="16.035671"
       ry="14.040482" /><ellipse
       style="fill:#2ecb70;fill-opacity:1;fill-rule:evenodd;stroke-width:38.3679;stroke-linecap:round"
       id="ellipse15"
       cx="144.62555"
       cy="157.9382"
       rx="17.528437"
       ry="14.614917"
       transform="matrix(0.89700965,0.44201096,-0.50740298,0.86170889,0,0)" /></g><g
     inkscape:label="Capa 1 copia"
     inkscape:groupmode="layer"
     id="g2"
     transform="translate(-0.98652363,-58.184455)"><path
       d="m 97.952264,73.592359 c -19.08527,2.11667 -36.61833,8.99584 -51.25861,20.07306 -5.29167,4.02166 -6.45583,5.15055 -7.47889,7.337781 -1.5875,3.42194 -0.81139,7.51416 1.72861,9.10166 0.635,0.38806 3.28084,1.41111 5.89139,2.32834 9.27806,3.175 11.32417,4.55083 13.54667,9.10166 1.83445,3.73945 2.82222,8.11389 4.40972,19.61445 1.30528,9.27805 1.55223,10.61861 2.50473,12.48833 1.83444,3.56306 3.84527,6.27944 7.51416,9.98361 3.10445,3.10445 3.81,3.63361 5.46806,4.1275 2.75167,0.81139 4.37444,0.70556 8.71361,-0.56444 2.78694,-0.77611 4.83306,-1.12889 7.40832,-1.27 5.856106,-0.24695 8.748886,0.67027 13.828886,4.445 3.45722,2.57527 4.72722,3.03389 8.18445,3.03389 4.30389,0 6.17361,-1.16417 10.65389,-6.49112 5.75027,-6.91444 6.94972,-12.02972 4.86833,-20.77861 -1.02306,-4.16277 -2.57528,-7.26722 -4.79778,-9.41916 -2.57528,-2.50473 -3.81,-2.78695 -9.38389,-2.04611 -7.83166,1.02305 -14.605,0.10583 -22.542496,-3.06917 -6.38527,-2.57528 -8.11388,-4.33917 -6.98499,-7.05556 1.34056,-3.31611 9.10166,-5.67972 22.895266,-7.09083 2.43417,-0.24694 9.2075,-0.42333 15.16944,-0.45861 h 10.75973 l 2.36361,1.16417 c 4.02166,1.97555 6.80861,5.85611 7.69055,10.65388 0.21167,1.19945 0.28223,2.8575 0.17639,3.66889 -0.59972,3.77473 -9.77194,51.04695 -10.23055,52.59917 -0.67028,2.32833 -2.8575,5.67972 -4.72723,7.3025 -3.42194,2.92806 -7.62,4.37444 -11.88861,4.09222 -2.89277,-0.21166 -24.694436,-3.10444 -32.808316,-4.33916 -19.93194,-3.10445 -29.03361,-8.14917 -34.67806,-19.22639 -3.66888,-7.12611 -6.10306,-18.27389 -6.91444,-31.39723 -0.38806,-6.27944 -1.72862,-9.73666 -5.08,-13.08805 -2.43417,-2.43417 -4.19806,-3.06917 -9.38389,-3.35139 -6.27945,-0.35278 -11.53584,1.27 -14.53445,4.55083 -3.03389,3.31611 -5.75028,15.13417 -5.75028,25.18834 0,19.12055 8.43139,36.72416 23.63612,49.28305 2.89277,2.43417 6.6675,5.15056 7.09083,5.15056 0.14111,0 0.10583,-0.67028 -0.0705,-1.48167 -0.70556,-2.99861 0.91722,-7.47889 3.81,-10.54805 6.94972,-7.44362 19.05,-5.46806 23.63611,3.84527 0.88194,1.79917 0.963037,4.86086 0.98778,5.53861 0.02806,0.76854 -0.0706,3.70417 -1.16417,5.89139 -0.81139,1.65806 -1.83444,2.96334 -3.45722,4.48028 -1.27,1.12889 -2.15195,2.15195 -2.01084,2.25778 1.27,0.77611 11.78278,2.82222 17.39195,3.42194 4.16278,0.42334 15.87499,0.45861 15.87499,0.0353 0,-0.17639 -0.21167,-0.49389 -0.49389,-0.70555 -0.24694,-0.21167 -0.91722,-1.37584 -1.48167,-2.61056 -0.88194,-1.905 -1.02305,-2.61056 -1.02305,-5.36222 0,-2.82222 0.10583,-3.42195 1.12889,-5.53861 2.32833,-4.93889 6.914436,-8.04334 12.276656,-8.32556 3.59834,-0.17639 5.99723,0.45861 8.96056,2.43417 4.7625,3.175 7.16139,9.06639 5.89139,14.53444 l -0.28222,1.30528 3.63361,-1.27 c 27.09333,-9.59556 48.71861,-30.33889 56.69139,-54.39833 11.46527,-34.50167 -5.29167,-68.580001 -40.88695,-83.185001 -13.08805,-5.36223 -30.44472,-7.62 -45.473046,-5.96195 z"
       id="path2"
       style="fill:#1a1a1a;fill-opacity:1;stroke:none;stroke-width:0.0352778"
       inkscape:export-filename="path1.svg"
       inkscape:export-xdpi="96"
       inkscape:export-ydpi="96"
       sodipodi:nodetypes="cccccccccccccsccccccccccccccccccsccscscccsccccsccsccsccccccc" /></g></svg>
