<?xml version="1.0" encoding="UTF-8" standalone="no"?>
<!-- Created with Inkscape (http://www.inkscape.org/) -->

<svg
   width="174.60291mm"
   height="149.91879mm"
   viewBox="0 0 174.60291 149.91879"
   version="1.1"
   id="svg1"
   xml:space="preserve"
   xmlns:inkscape="http://www.inkscape.org/namespaces/inkscape"
   xmlns:sodipodi="http://sodipodi.sourceforge.net/DTD/sodipodi-0.dtd"
   xmlns="http://www.w3.org/2000/svg"
   xmlns:svg="http://www.w3.org/2000/svg"><sodipodi:namedview
     id="namedview1"
     pagecolor="#505050"
     bordercolor="#ffffff"
     borderopacity="1"
     inkscape:showpageshadow="0"
     inkscape:pageopacity="0"
     inkscape:pagecheckerboard="1"
     inkscape:deskcolor="#505050"
     inkscape:document-units="mm" /><defs
     id="defs1" /><g
     inkscape:label="Capa 1"
     inkscape:groupmode="layer"
     id="layer1"
     transform="translate(-17.919854,-73.540602)"><path
       d="m 102.58652,74.075091 c -19.085275,2.11667 -36.618335,8.99584 -51.258611,20.07306 -5.291666,4.02166 -6.455833,5.15055 -7.478888,7.337779 -1.5875,3.42194 -0.811389,7.51416 1.728611,9.10166 0.635,0.38806 3.280833,1.41111 5.891389,2.32834 9.278054,3.175 11.324164,4.55083 13.546664,9.10166 1.83445,3.73945 2.82222,8.11389 4.40972,19.61445 1.30528,9.27805 1.55223,10.61861 2.50473,12.48833 1.83444,3.56306 3.84527,6.27944 7.51416,9.98361 3.10445,3.10445 3.81,3.63361 5.46806,4.1275 2.75167,0.81139 4.37444,0.70556 8.71361,-0.56444 2.78694,-0.77611 4.83306,-1.12889 7.408325,-1.27 5.85611,-0.24695 8.74889,0.67027 13.82889,4.445 3.45722,2.57527 4.72722,3.03389 8.18445,3.03389 4.30389,0 6.17361,-1.16417 10.65389,-6.49112 5.75027,-6.91444 6.94972,-12.02972 4.86833,-20.77861 -1.02306,-4.16277 -2.57528,-7.26722 -4.79778,-9.41916 -2.57528,-2.50473 -3.81,-2.78695 -9.38389,-2.04611 -7.83166,1.02305 -14.605,0.10583 -22.5425,-3.06917 -6.385275,-2.57528 -8.113885,-4.33917 -6.984995,-7.05556 1.34056,-3.31611 9.101665,-5.67972 22.895275,-7.09083 2.43417,-0.24694 9.2075,-0.42333 15.16944,-0.45861 h 10.75973 l 2.36361,1.16417 c 4.02166,1.97555 6.80861,5.85611 7.69055,10.65388 0.21167,1.19945 0.28223,2.8575 0.17639,3.66889 -0.59972,3.77473 -9.77194,51.04695 -10.23055,52.59917 -0.67028,2.32833 -2.8575,5.67972 -4.72723,7.3025 -3.42194,2.92806 -7.62,4.37444 -11.88861,4.09222 -2.89277,-0.21166 -24.69444,-3.10444 -32.808325,-4.33916 -19.93194,-3.10445 -29.03361,-8.14917 -34.67806,-19.22639 -3.66888,-7.12611 -6.103051,-18.27389 -6.91444,-31.39723 -0.388056,-6.27944 -1.728611,-9.73666 -5.08,-13.08805 -2.434167,-2.43417 -4.198056,-3.06917 -9.383889,-3.35139 -6.279444,-0.35278 -11.535833,1.27 -14.534444,4.55083 -3.033889,3.31611 -5.750278,15.13417 -5.750278,25.18834 0,19.12055 8.431389,36.72416 23.636111,49.28305 2.892778,2.43417 6.6675,5.15056 7.090833,5.15056 0.141111,0 0.105834,-0.67028 -0.07055,-1.48167 -0.705556,-2.99861 0.917222,-7.47889 3.81,-10.54805 6.949717,-7.44362 19.049997,-5.46806 23.636107,3.84527 0.88194,1.79917 0.98778,2.39889 0.98778,5.53861 0,3.28084 -0.0706,3.70417 -1.16417,5.89139 -0.81139,1.65806 -1.83444,2.96334 -3.45722,4.48028 -1.27,1.12889 -2.15195,2.15195 -2.01084,2.25778 1.27,0.77611 11.78278,2.82222 17.39195,3.42194 4.16278,0.42334 15.874995,0.45861 15.874995,0.0353 0,-0.17639 -0.21167,-0.49389 -0.49389,-0.70555 -0.24694,-0.21167 -0.91722,-1.37584 -1.48167,-2.61056 -0.88194,-1.905 -1.02305,-2.61056 -1.02305,-5.36222 0,-2.82222 0.10583,-3.42195 1.12889,-5.53861 2.32833,-4.93889 6.91444,-8.04334 12.27666,-8.32556 3.59834,-0.17639 5.99723,0.45861 8.96056,2.43417 4.7625,3.175 7.16139,9.06639 5.89139,14.53444 l -0.28222,1.30528 3.63361,-1.27 c 27.09333,-9.59556 48.71861,-30.33889 56.69139,-54.39833 11.46527,-34.50167 -5.29167,-68.579999 -40.88695,-83.184999 -13.08805,-5.36223 -30.44472,-7.62 -45.47305,-5.96195 z"
       id="path1"
       style="fill:#59564F;stroke:none;stroke-width:0.0352778"
       inkscape:export-filename="path1.svg"
       inkscape:export-xdpi="96"
       inkscape:export-ydpi="96" /></g></svg>
