<?xml version="1.0" encoding="UTF-8" standalone="no"?>
<svg
   xmlns:dc="http://purl.org/dc/elements/1.1/"
   xmlns:cc="http://creativecommons.org/ns#"
   xmlns:rdf="http://www.w3.org/1999/02/22-rdf-syntax-ns#"
   xmlns:svg="http://www.w3.org/2000/svg"
   xmlns="http://www.w3.org/2000/svg"
   viewBox="0 0 666.66669 548.90155"
   height="548.90155"
   width="666.66669"
   xml:space="preserve"
   id="svg2"
   version="1.1"><metadata
     id="metadata8"><rdf:RDF><cc:Work
         rdf:about=""><dc:format>image/svg+xml</dc:format><dc:type
           rdf:resource="http://purl.org/dc/dcmitype/StillImage" /></cc:Work></rdf:RDF></metadata><defs
     id="defs6"><clipPath
       id="clipPath22"
       clipPathUnits="userSpaceOnUse"><path
         style="clip-rule:evenodd"
         id="path20"
         d="M 242.45493,410.20834 C 187.80154,404.396 137.59317,385.50583 95.668671,355.08786 80.515236,344.04437 77.18148,340.94446 74.251823,334.93835 c -4.546035,-9.39663 -2.323532,-20.63385 4.950119,-24.9931 1.818413,-1.06561 9.395127,-3.87491 16.87082,-6.39358 26.569028,-8.71854 32.428348,-12.49656 38.792788,-24.99314 5.25319,-10.26849 8.08184,-22.28067 12.62786,-53.86113 3.73785,-25.47748 4.44501,-29.15864 7.17262,-34.29289 5.25319,-9.78412 11.01151,-17.2433 21.51788,-27.41493 8.89002,-8.5248 10.91047,-9.97786 15.65854,-11.33406 7.87979,-2.22809 12.52684,-1.93747 24.95265,1.54992 7.98082,2.13123 13.84014,3.09993 21.21482,3.48743 16.76979,0.6781 25.05368,-1.84057 39.60098,-12.20593 9.90024,-7.07172 13.53705,-8.33106 23.43729,-8.33106 12.3248,0 17.67901,3.19678 30.50891,17.82456 16.46673,18.98701 19.90152,33.03354 13.94116,57.05794 -2.92966,11.43095 -7.37466,19.95573 -13.73911,25.86496 -7.37466,6.87796 -10.91046,7.65293 -26.8721,5.61862 -22.42706,-2.80931 -41.82345,-0.29062 -64.55362,8.4279 -18.28514,7.07168 -23.23526,11.91531 -20.00251,19.37451 3.83886,9.10602 26.0639,15.5965 65.56385,19.47138 6.97059,0.67813 26.36698,1.16247 43.43982,1.25936 h 30.81199 l 6.76855,-3.1968 c 11.5166,-5.42487 19.49741,-16.08084 22.02298,-29.25553 0.60614,-3.29365 0.80817,-7.84666 0.5051,-10.07473 -1.71738,-10.36536 -27.98334,-140.1746 -29.29663,-144.43699 -1.91944,-6.393581 -8.18287,-15.596462 -13.53705,-20.052608 -9.79923,-8.040405 -21.82096,-12.012207 -34.04474,-11.237213 -8.28388,0.581238 -70.71601,8.52478 -93.95127,11.915314 -57.07792,8.52478 -83.14183,22.377567 -99.30549,52.795527 -10.50639,19.56827 -17.47696,50.18001 -19.800492,86.21659 -1.111252,17.24331 -4.950119,26.73683 -14.547295,35.93973 -6.970573,6.6842 -12.021721,8.42791 -26.872085,9.20288 C 40.106087,269.84 25.053675,265.38388 16.46673,256.37472 7.778762,247.26871 0,214.81641 0,187.20772 0,134.70282 24.14447,86.363403 67.685333,51.87677 75.969208,45.192566 86.778656,37.733368 87.990929,37.733368 c 0.404098,0 0.30307,1.840576 -0.202042,4.068634 -2.020462,8.234192 2.626595,20.536987 10.910469,28.964905 19.901514,20.440124 54.552354,15.015259 67.685334,-10.559113 2.52557,-4.940491 2.82864,-6.587311 2.82864,-15.208984 0,-9.009155 -0.20204,-10.171601 -3.33375,-16.177704 -2.32353,-4.553009 -5.25319,-8.137299 -9.90024,-12.302826 -3.63683,-3.099915 -6.1624,-5.90921 -5.75832,-6.199829 3.63683,-2.131195 33.74166,-7.749817 49.80429,-9.396637 11.9207,-1.162476 45.4603,-1.259369 45.4603,-0.096893 0,0.484375 -0.60614,1.356231 -1.41432,1.937469 -0.70715,0.581238 -2.6266,3.778015 -4.24297,7.168549 -2.52557,5.23114 -2.92965,7.168579 -2.92965,14.72464 0,7.749817 0.30307,9.396637 3.23272,15.208984 6.66751,13.562164 19.80049,22.086945 35.15596,22.861938 10.30435,0.484345 17.17389,-1.259338 25.65982,-6.684204 13.6381,-8.718536 20.50763,-24.89627 16.87082,-39.911499 l -0.80819,-3.584289 10.40536,3.487427 c 77.58557,26.349304 139.5126,83.310363 162.34378,149.377454 32.83243,94.74135 -15.15344,188.32024 -117.08551,228.42549 -37.47949,14.72461 -87.18277,20.92447 -130.2185,16.37146 z" /></clipPath></defs><g
     transform="matrix(1.3333333,0,0,-1.3333333,0,548.90153)"
     id="g10"><g
       id="g12"><g
         transform="matrix(1,0,0,-1,0,415.09888)"
         id="g14"><path
           id="path16"
           style="fill:#2ecb70;fill-opacity:1;fill-rule:nonzero;stroke:none"
           d="M 242.45493,4.890533 C 187.80154,10.702881 137.59317,29.593048 95.668671,60.011017 80.515236,71.054504 77.18148,74.154419 74.251823,80.160522 c -4.546035,9.396637 -2.323532,20.633848 4.950119,24.993108 1.818413,1.06561 9.395127,3.8749 16.87082,6.39358 26.569028,8.71854 32.428348,12.49655 38.792788,24.99313 5.25319,10.2685 8.08184,22.28067 12.62786,53.86113 3.73785,25.47748 4.44501,29.15865 7.17262,34.2929 5.25319,9.78411 11.01151,17.2433 21.51788,27.41493 8.89002,8.52479 10.91047,9.97786 15.65854,11.33406 7.87979,2.22809 12.52684,1.93747 24.95265,-1.54993 7.98082,-2.13122 13.84014,-3.09991 21.21482,-3.48742 16.76979,-0.67811 25.05368,1.84057 39.60098,12.20593 9.90024,7.07171 13.53705,8.33105 23.43729,8.33105 12.3248,0 17.67901,-3.19677 30.50891,-17.82455 16.46673,-18.98702 19.90152,-33.03354 13.94116,-57.05794 -2.92966,-11.43095 -7.37466,-19.95573 -13.73911,-25.86496 -7.37466,-6.87796 -10.91046,-7.65294 -26.8721,-5.61862 -22.42706,2.80931 -41.82345,0.29062 -64.55362,-8.4279 -18.28514,-7.07169 -23.23526,-11.91532 -20.00251,-19.37451 3.83886,-9.10602 26.0639,-15.5965 65.56385,-19.47138 6.97059,-0.67813 26.36698,-1.16247 43.43982,-1.25937 h 30.81199 l 6.76855,3.19681 c 11.5166,5.42487 19.49741,16.08084 22.02298,29.25552 0.60614,3.29366 0.80817,7.84667 0.5051,10.07474 -1.71738,10.36536 -27.98334,140.17459 -29.29663,144.43698 -1.91944,6.39359 -8.18287,15.59647 -13.53705,20.05261 -9.79923,8.04041 -21.82096,12.01221 -34.04474,11.23722 -8.28388,-0.58124 -70.71601,-8.52478 -93.95127,-11.91532 C 161.5356,321.85754 135.47169,308.00476 119.30803,277.58679 108.80164,258.01852 101.83107,227.40678 99.507538,191.37021 98.396286,174.12689 94.557419,164.63338 84.960243,155.43048 77.98967,148.74628 72.938522,147.00256 58.088158,146.2276 40.106087,145.25888 25.053675,149.715 16.46673,158.72415 7.778762,167.83017 0,200.28247 0,227.89116 c 0,52.5049 24.14447,100.84431 67.685333,135.33095 8.283875,6.6842 19.093323,14.1434 20.305596,14.1434 0.404098,0 0.30307,-1.84058 -0.202042,-4.06864 -2.020462,-8.23419 2.626595,-20.53698 10.910469,-28.9649 19.901514,-20.44012 54.552354,-15.01526 67.685334,10.55911 2.52557,4.94049 2.82864,6.58731 2.82864,15.20899 0,9.00915 -0.20204,10.1716 -3.33375,16.1777 -2.32353,4.55301 -5.25319,8.1373 -9.90024,12.30283 -3.63683,3.09991 -6.1624,5.90921 -5.75832,6.19983 3.63683,2.13119 33.74166,7.74981 49.80429,9.39663 11.9207,1.16248 45.4603,1.25937 45.4603,0.0969 0,-0.48438 -0.60614,-1.35624 -1.41432,-1.93747 -0.70715,-0.58124 -2.6266,-3.77802 -4.24297,-7.16855 -2.52557,-5.23114 -2.92965,-7.16858 -2.92965,-14.72464 0,-7.74982 0.30307,-9.39664 3.23272,-15.20899 6.66751,-13.56216 19.80049,-22.08694 35.15596,-22.86194 10.30435,-0.48434 17.17389,1.25934 25.65982,6.68421 13.6381,8.71854 20.50763,24.89627 16.87082,39.9115 l -0.80819,3.58429 10.40536,-3.48743 C 405.00073,372.71564 466.92776,315.75458 489.75894,249.68748 522.59137,154.94614 474.6055,61.367249 372.67343,21.261993 335.19394,6.537384 285.49066,0.337524 242.45493,4.890533 Z" /></g><g
         clip-path="url(#clipPath22)"
         id="g18"><g
           transform="matrix(1,0,0,-1,0,415.09888)"
           id="g24"><path
             id="path26"
             style="fill:#05180d;fill-opacity:1;fill-rule:nonzero;stroke:none"
             d="m 242.45493,4.890533 -1.79781,-16.904663 0.009,-9.76e-4 1.78856,16.905639 z M 95.668671,60.011017 85.656242,46.272339 l 0.01453,-0.01059 0.01456,-0.01056 9.983338,13.759827 z m -21.416848,20.149505 -15.303176,-7.403595 0.01194,-0.02469 0.01202,-0.02463 15.279209,7.452911 z m 4.950119,24.993108 -8.595024,14.66717 -0.07228,-0.0424 -0.07186,-0.0431 8.739166,-14.58172 z m 16.87082,6.39358 -5.300408,16.15259 -0.06378,-0.0209 -0.06361,-0.0214 5.427804,-16.11023 z m 38.792788,24.99313 -15.13449,7.74256 -0.007,-0.0137 -0.007,-0.0138 15.14852,-7.71506 z m 12.62786,53.86113 -16.81995,2.46769 -0.003,-0.0227 -0.003,-0.0228 16.82656,-2.4222 z m 7.17262,34.2929 -14.97769,8.04165 -0.0177,-0.0329 -0.0175,-0.033 15.01291,-7.97575 z m 21.51788,27.41493 -11.76612,12.27022 -0.0293,-0.0281 -0.0292,-0.0283 11.82466,-12.21382 z m 15.65854,11.33406 -4.62552,16.35864 -0.0218,-0.006 -0.0218,-0.006 4.66905,-16.34625 z m 24.95265,-1.54993 -4.5937,-16.3676 0.10368,-0.0291 0.10404,-0.0278 4.38598,16.42448 z m 21.21482,-3.48742 -0.89202,-16.97658 0.10256,-0.005 0.1026,-0.004 0.68686,16.98612 z m 39.60098,12.20593 9.86493,-13.84497 0.008,0.006 0.008,0.006 -9.88113,13.83338 z m 53.9462,-9.4935 12.84292,11.13818 -0.0311,0.0359 -0.0313,0.0357 -12.78055,-11.20972 z m 13.94116,-57.05794 16.46774,-4.22055 0.0163,0.0635 0.0158,0.0636 -16.49979,4.09352 z m -13.73911,-25.86496 -11.56701,12.45808 -0.014,-0.0129 -0.0139,-0.013 11.59484,-12.43221 z m -26.8721,-5.61862 2.1493,16.8636 -0.0182,0.002 -0.0182,0.002 -2.11298,-16.86818 z m -64.55362,-8.4279 -6.08813,15.87243 -0.022,-0.008 -0.022,-0.008 6.13205,-15.85553 z m -20.00251,-19.37451 15.66487,6.60391 -0.033,0.0782 -0.0338,0.0779 -15.59811,-6.76007 z m 65.56385,-19.47138 -1.65972,-16.91879 0.0137,-10e-4 1.64602,16.92013 z m 43.43982,-1.25937 -0.0964,-16.99972 0.0482,-2.8e-4 h 0.0482 z m 30.81199,0 v -17 h 3.81265 l 3.44748,1.62827 z m 6.76855,3.19681 -7.24435,15.37921 -0.008,-0.004 -0.008,-0.004 7.26013,-15.37176 z m 22.02298,29.25552 16.69598,-3.20062 0.0118,0.0618 0.0114,0.0619 -16.71924,3.07687 z m 0.5051,10.07474 16.84488,2.29129 -0.0332,0.24426 -0.0403,0.24321 -16.77136,-2.77876 z m -29.29663,144.43698 -16.28208,-4.88809 0.0177,-0.0589 0.0181,-0.0587 16.24631,5.0057 z m -13.53705,20.05261 10.87491,13.06659 -0.0456,0.038 -0.0459,0.0376 -10.78338,-13.14222 z m -34.04474,11.23722 -1.07562,16.96594 -0.0571,-0.004 -0.0571,-0.004 1.18985,-16.95831 z m -93.95127,-11.91532 -2.45468,16.82184 -0.0282,-0.004 -0.0282,-0.004 2.51115,-16.81351 z m -99.30549,-52.79553 14.97771,-8.04169 0.0173,0.0322 0.0171,0.0323 -15.01213,7.97723 z m -19.800492,-86.21658 -16.964768,1.09382 -3.8e-5,-5.3e-4 z m -41.41938,-45.14261 -0.885956,16.97688 -0.01427,-7.3e-4 -0.01427,-7.8e-4 0.914494,-16.97537 z m -41.621428,12.49655 12.305704,11.72902 -0.0059,0.006 -12.299839,-11.73515 z m 51.218603,204.49796 10.555107,-13.3263 0.06033,0.0478 0.05989,0.0483 -10.675331,13.23017 z m 20.103554,10.07476 16.510233,-4.0512 0.0358,0.14599 0.0332,0.14658 -16.579293,3.75863 z m 10.910469,-28.9649 12.180224,11.85925 -0.0281,0.0288 -0.0282,0.0287 -12.123974,-11.91675 z m 67.685334,10.55911 15.12259,-7.76578 0.007,0.0139 0.007,0.0139 -15.13685,7.73794 z m -0.50511,31.38669 -15.1422,-7.72748 0.0339,-0.0663 0.0344,-0.066 15.07392,7.85986 z m -9.90024,12.30283 11.34705,12.65875 -0.15789,0.14154 -0.16134,0.13751 z m -5.75832,6.19983 -8.59501,14.66717 -0.68563,-0.40179 -0.64515,-0.46396 z m 49.80429,9.39663 -1.64996,16.91974 -0.042,-0.004 -0.0419,-0.004 1.73385,-16.91138 z m 44.04598,-1.84057 -9.9258,13.80142 -0.44513,-0.32013 -0.42357,-0.34815 z m -4.24297,-7.16855 15.30915,-7.39124 0.0182,0.0378 0.0181,0.0378 -15.34543,7.31562 z m 0.30307,-29.93363 15.25603,7.50025 -0.0373,0.0759 -0.0381,0.0755 -15.18065,-7.65168 z m 35.15596,-22.86194 -0.85687,-16.97839 0.0293,-10e-4 0.0293,-0.001 0.79821,16.98123 z m 42.53064,46.59571 -16.58365,-3.73926 0.0296,-0.13153 0.0317,-0.13104 16.52228,4.00183 z m -0.80819,3.58429 5.40231,16.11877 -28.62689,9.59448 6.64093,-29.45254 z m 10.40536,-3.48743 5.46683,16.09705 -0.0323,0.0109 -0.0323,0.0108 -5.40231,-16.11881 z m 162.34378,-149.37746 -16.06763,-5.55258 0.002,-0.007 0.002,-0.007 16.0628,5.56654 z M 372.67343,21.261993 l 6.21628,-15.822692 0.008,0.00311 -6.22421,15.81958 z m -130.2185,-16.37146 1.79779,16.904664 C 192.38031,27.311798 145.03094,45.199799 105.65201,73.770844 L 95.668671,60.011017 85.685333,46.25119 C 130.1554,13.986298 183.22276,-5.906036 240.65712,-12.01413 Z M 95.668671,60.011017 105.6811,73.749695 c -7.705888,5.615875 -11.467301,8.550842 -13.665589,10.615784 -1.568116,1.473022 -1.909607,2.069396 -2.48449,3.247955 L 74.251823,80.160522 58.972614,72.707611 C 64.044167,62.310425 71.045303,56.920441 85.656242,46.272339 Z m -21.416848,20.149505 15.30317,7.403565 c -0.681061,1.407745 -0.756241,2.811279 -0.584153,3.680542 0.185845,0.938721 0.343132,0.150055 -1.029731,-0.67273 l -8.739167,14.581731 -8.739166,14.58172 C 53.277996,109.43613 51.89996,87.326569 58.948647,72.756927 Z m 4.950119,24.993108 8.595025,-14.667149 c -0.640679,-0.375458 -0.789711,-0.384339 0.312568,0.07639 0.827164,0.345703 1.972923,0.797089 3.395439,1.332581 2.83017,1.065368 6.40078,2.330414 9.995596,3.541565 l -5.427808,16.110203 -5.427804,16.11023 c -3.880882,-1.30756 -7.836471,-2.70648 -11.118186,-3.94183 -2.610268,-0.98261 -6.492577,-2.47241 -8.919854,-3.89481 l 8.595024,-14.66717 z m 16.87082,6.39358 5.300418,-16.152557 c 13.05432,4.283722 23.19854,7.992157 30.88056,12.941987 8.89886,5.73389 13.71586,12.54733 17.76033,20.48862 l -15.14852,7.71508 -15.14852,7.71506 c -2.31997,-4.55524 -3.61485,-5.87909 -5.87903,-7.33801 -3.48101,-2.24295 -9.55096,-4.78281 -23.065646,-9.21759 z m 38.792788,24.99313 15.1345,-7.74255 c 6.72782,13.15097 9.81919,27.9158 14.31991,59.18149 l -16.82655,2.42219 -16.82656,2.4222 c -4.59133,-31.8952 -7.15724,-41.15479 -10.93579,-48.54077 z m 12.62786,53.86113 16.81994,-2.46768 c 3.95163,26.93462 4.36817,26.90735 5.36559,28.78482 l -15.01291,7.97576 -15.01291,7.97575 c -4.45781,-8.39104 -5.45558,-15.78061 -8.97966,-39.80096 z m 7.17262,34.2929 14.97771,-8.04168 c 4.25323,7.92171 8.8304,14.01213 18.36482,23.24277 l -11.82465,12.21384 -11.82466,12.21382 c -11.47833,-11.11261 -18.41778,-19.94055 -24.67091,-31.5871 z m 21.51788,27.41493 11.76612,-12.27023 c 4.60444,4.41528 6.48814,6.06163 7.57945,6.85096 0.3506,0.2536 0.38286,0.24094 0.24303,0.17633 -0.0942,-0.0435 0.0108,0.0228 0.73901,0.23078 l -4.66907,16.34622 -4.66905,16.34625 c -3.82098,-1.09137 -7.41611,-2.54602 -11.57005,-5.55054 -3.32845,-2.40747 -6.9,-5.75006 -11.18556,-9.85955 z m 15.65854,11.33406 4.62554,-16.3586 c 2.70681,0.76537 3.85144,0.83679 5.09097,0.75972 1.78526,-0.11102 4.58578,-0.61879 10.64244,-2.31865 l 4.5937,16.3676 4.59371,16.36756 c -6.36914,1.78759 -12.10506,3.16882 -17.71973,3.51794 -6.1604,0.38306 -11.27919,-0.51422 -16.45215,-1.97693 z m 24.95265,-1.54993 -4.38598,-16.42448 c 8.97777,-2.39742 16.01213,-3.58257 24.70878,-4.03952 l 0.89202,16.97658 0.892,16.97656 c -6.05268,0.31805 -10.73697,1.07034 -17.72081,2.9353 z m 21.21482,-3.48742 -0.68686,-16.98612 c 9.30495,-0.37627 17.73071,0.0583 26.31738,2.69867 8.50965,2.61671 15.93808,7.02138 23.83539,12.64841 l -9.86493,13.84497 -9.86496,13.84497 c -6.64999,-4.73831 -10.63711,-6.77567 -14.09872,-7.84012 -3.38453,-1.04074 -7.4856,-1.52652 -14.95044,-1.22467 z m 39.60098,12.20593 9.88113,-13.83338 c 4.80896,3.435 6.54328,4.28266 7.51377,4.62644 0.63962,0.22656 1.71719,0.53799 6.04239,0.53799 v 17 17 c -5.57502,0 -11.26599,-0.31823 -17.3949,-2.48929 -5.79806,-2.0538 -10.83228,-5.37167 -15.92355,-9.00833 z m 23.43729,8.33105 v -17 c 4.46426,0 5.53689,-0.54706 6.46838,-1.09308 1.87622,-1.09973 4.84998,-3.63293 11.26001,-10.94119 l 12.78052,11.20972 12.78055,11.20972 c -6.4199,7.31952 -12.53818,13.69857 -19.62775,17.85415 -8.03427,4.70935 -15.80118,5.76068 -23.66171,5.76068 z m 30.50891,-17.82455 -12.84293,-11.13819 c 7.32334,-8.44419 10.4317,-14.30802 11.7096,-19.53733 1.2702,-5.19782 1.20263,-11.69649 -1.4253,-22.28888 l 16.49979,-4.09354 16.49979,-4.09352 c 3.33242,13.43199 4.52765,25.96878 1.45385,38.54709 -3.0661,12.54678 -9.90847,23.19974 -19.05188,33.74255 z m 13.94116,-57.05794 -16.46774,4.22057 c -2.4401,-9.52069 -5.65958,-14.67601 -8.83838,-17.62745 l 11.56701,-12.45808 11.56702,-12.4581 c 9.55008,8.86702 15.22058,20.76128 18.63983,34.10251 z m -13.73911,-25.86496 -11.59484,12.43221 c -1.55567,-1.4509 -2.22339,-1.92165 -2.46036,-2.06931 -0.0706,-0.0439 -0.025,-0.01 0.10535,0.0435 0.0591,0.0241 0.11633,0.0441 0.16604,0.0592 0.0491,0.0149 0.075,0.0203 0.0699,0.0192 -0.0467,-0.01 -0.69962,-0.1387 -2.59394,-0.0641 -1.92483,0.0758 -4.54116,0.33056 -8.41497,0.82429 l -2.1493,-16.8636 -2.14926,-16.86357 c 7.62177,-0.97141 15.27985,-1.78223 22.30338,-0.30545 8.38046,1.76208 13.89529,6.23543 18.31283,10.35542 l -11.59485,12.43222 z m -26.8721,-5.61862 2.11298,16.86818 c -25.4024,3.18201 -47.6106,0.22081 -72.75473,-9.42365 l 6.08813,-15.87243 6.08815,-15.87244 c 20.31618,7.7926 36.90078,9.86877 56.3525,7.43216 z m -64.55362,-8.4279 -6.13205,15.85553 c -9.00135,-3.48124 -17.8894,-7.48288 -23.77833,-13.19846 -3.3649,-3.26585 -6.53038,-7.81253 -7.62439,-13.79275 -1.08023,-5.90497 0.24683,-11.10566 1.93413,-14.99891 l 15.59813,6.76008 15.59811,6.76007 c 0.0709,-0.16367 0.80449,-1.9617 0.31461,-4.63959 -0.50367,-2.75314 -1.89492,-4.24835 -2.14074,-4.48694 -0.0904,-0.0877 0.54941,0.52716 2.83085,1.72339 2.18481,1.1456 5.26138,2.5105 9.53175,4.16205 z m -20.00251,-19.37451 -15.66489,-6.60392 c 2.93172,-6.95419 8.44894,-11.43771 13.21051,-14.30227 4.93956,-2.97165 10.81166,-5.25064 17.04237,-7.09327 12.49424,-3.69491 29.16242,-6.41366 49.31614,-8.39071 l 1.65972,16.91879 1.6597,16.91876 c -19.34622,1.89786 -33.54054,4.36179 -42.99351,7.15732 -4.74292,1.40262 -7.6156,2.6958 -9.15729,3.62329 -1.71968,1.03455 -0.42017,0.7771 0.59212,-1.62408 z m 65.56385,-19.47138 -1.64602,-16.92013 c 7.88068,-0.76664 28.0722,-1.24295 44.98941,-1.33896 l 0.0964,16.99972 0.0965,16.99976 c -17.22855,0.0977 -35.8298,0.59015 -41.89029,1.17972 z m 43.43982,-1.25937 v -17 h 30.81199 v 17 17 h -30.81199 z m 30.81199,0 7.26013,-15.37173 6.76852,3.19677 -7.2601,15.37177 -7.26013,15.37176 -6.76853,-3.1968 z m 6.76855,3.19681 7.24432,-15.37921 c 16.78064,7.90448 28.00068,23.31216 31.47464,41.43411 l -16.69598,3.20062 -16.69598,3.2006 c -1.57718,-8.22739 -6.31876,-14.13166 -12.57135,-17.07691 z m 22.02298,29.25552 16.71924,-3.07687 c 0.82062,4.45914 1.24762,10.90778 0.63074,15.4429 l -16.84488,-2.29129 -16.84488,-2.29129 c -0.0465,0.34166 -0.0258,0.35928 -0.0182,-0.0647 0.006,-0.36025 3e-4,-0.86121 -0.0287,-1.46089 -0.0612,-1.26476 -0.19772,-2.44825 -0.33258,-3.181 l 16.71924,-3.07685 z m 0.5051,10.07474 16.77136,2.77876 c -0.92355,5.57421 -8.01474,41.07174 -14.90973,75.10398 -3.4751,17.15251 -6.94006,34.12639 -9.62033,47.08793 -1.3393,6.47669 -2.4877,11.97605 -3.34546,16.003 -0.72324,3.39532 -1.49173,6.99417 -1.94614,8.46899 l -16.24633,-5.00568 -16.24631,-5.0057 c -0.1261,0.40924 0.2135,-0.98087 1.18478,-5.54081 0.83673,-3.92834 1.96921,-9.35058 3.30387,-15.80487 2.66763,-12.90042 6.12277,-29.82588 9.59295,-46.95413 6.9957,-34.52931 13.89615,-69.11908 14.69,-73.91025 z m -29.29663,144.43698 16.2821,4.88806 c -1.63959,5.46143 -4.68542,10.96289 -7.68399,15.39334 -3.03168,4.47934 -6.96222,9.26072 -11.26025,12.8378 L 346.60953,331.06042 335.73459,317.9938 c 1.05618,-0.87899 2.93445,-2.92715 4.8529,-5.76168 1.95157,-2.88346 2.99714,-5.18024 3.27701,-6.1124 z m -13.53705,20.05261 10.78338,13.14222 c -12.99319,10.66116 -29.21728,16.11883 -45.90374,15.06094 l 1.07562,-16.96594 1.07565,-16.96594 c 7.76108,0.49206 15.58045,-1.99381 22.18567,-7.41349 z m -34.04474,11.23722 -1.18985,16.95831 c -9.02603,-0.6333 -72.09023,-8.67722 -95.2161,-12.05179 l 2.45468,-16.82184 2.45469,-16.82183 c 23.34465,3.40649 85.14474,11.24969 92.68646,11.77883 z m -93.95127,-11.91532 -2.51115,16.81351 C 186.89474,342.83356 163.85443,336.88931 145.638,327.2052 126.79165,317.18616 113.86847,303.57837 104.2959,285.56399 l 15.01213,-7.9772 15.01213,-7.97723 c 6.59108,12.40362 14.78168,20.93118 27.27768,27.57425 13.12593,6.97793 31.65652,12.22247 59.52684,16.38501 z m -99.30549,-52.79553 -14.97771,8.04166 C 92.158356,262.95801 84.933807,229.54776 82.54277,192.46403 l 16.964768,-1.09382 16.964772,-1.09384 c 2.25601,34.98945 8.97262,62.80265 17.81343,79.26873 z M 99.507538,191.37021 82.542732,192.4635 c -0.494491,-7.67311 -1.532142,-12.35777 -2.885132,-15.70108 -1.24971,-3.08809 -3.086029,-5.82303 -6.463478,-9.06172 l 11.766121,-12.27022 11.766129,-12.27023 c 6.219728,5.9642 11.101428,12.57748 14.448258,20.8477 3.24355,8.015 4.68096,16.69875 5.29772,26.26895 z M 84.960243,155.43048 73.194122,167.7007 c -2.378257,-2.28055 -3.322311,-2.6958 -4.229187,-3.00678 -1.59349,-0.5464 -4.535492,-1.11227 -11.762733,-1.48944 l 0.885956,-16.97688 0.885955,-16.9769 c 7.623124,0.3978 14.631875,1.09128 21.019196,3.28153 7.073929,2.42569 12.140739,6.22439 16.733063,10.62802 z m -26.872085,-9.20288 -0.914494,16.97537 c -15.394016,-0.8293 -24.598957,3.26097 -28.401232,7.25019 L 16.46673,158.72415 4.161028,146.99515 C 17.532644,132.96606 38.432522,128.14404 59.002651,129.2522 Z M 16.46673,158.72415 28.766569,170.4593 c 0.01496,-0.0157 -1.133512,1.39809 -2.810732,5.48523 -1.532619,3.73479 -3.074455,8.62728 -4.444605,14.36994 C 18.763596,201.83054 17,215.52037 17,227.89116 H 0 -17 c 0,-15.23789 2.125785,-31.57857 5.439522,-45.46732 1.660536,-6.95974 3.692385,-13.61326 6.061775,-19.38713 2.22479,-5.42151 5.306654,-11.47903 9.665595,-16.04773 z M 0,227.89116 h 17 c 0,46.98466 21.507275,90.53395 61.24044,122.00465 L 67.685333,363.22211 57.130226,376.5484 C 9.781664,339.04587 -17,285.91632 -17,227.89116 Z m 67.685333,135.33095 10.675331,-13.23017 c 3.790947,3.0589 8.233574,6.35096 11.824509,8.84409 1.81015,1.25674 3.237122,2.19437 4.160545,2.75949 0.492577,0.30145 0.609948,0.35407 0.45575,0.27582 -0.05954,-0.0302 -0.467133,-0.23831 -1.098671,-0.47876 -0.321121,-0.12226 -0.900444,-0.33008 -1.660484,-0.52353 -0.64296,-0.16361 -2.119049,-0.50354 -4.051384,-0.50354 v 17 17 c -3.409325,0 -6.019974,-1.05872 -6.385476,-1.19788 -0.927116,-0.35296 -1.699333,-0.72787 -2.186645,-0.9751 -1.009735,-0.51226 -2.000458,-1.09463 -2.821182,-1.59692 -1.703171,-1.04233 -3.723603,-2.3873 -5.802834,-3.83087 -4.187828,-2.90753 -9.291858,-6.68713 -13.784794,-10.31247 z m 20.305596,14.1434 v -17 c -7.673912,0 -12.309204,4.80701 -14.199028,7.7659 -1.66156,2.6015 -2.146225,4.97116 -2.291329,5.73364 -0.34153,1.79468 -0.25132,3.09586 -0.247398,3.17239 0.02739,0.53397 0.0724,0.52964 -0.04358,0.018 l 16.579292,-3.75861 16.579294,-3.75863 c 0.38913,1.71646 0.73721,3.74646 0.84037,5.75772 0.0418,0.81522 0.11308,2.71579 -0.30738,4.9252 -0.18456,0.96985 -0.72369,3.50073 -2.45509,6.21158 -1.95968,3.06824 -6.680204,7.93277 -14.455152,7.93277 v -17 z m -0.202042,-4.06864 -16.510231,4.05118 c -2.109413,-8.59668 -0.464592,-17.40521 2.194176,-24.45782 2.761581,-7.32535 7.265289,-14.53629 13.102554,-20.47504 l 12.12397,11.91678 12.123974,11.91675 c -2.44661,2.48916 -4.40837,5.64361 -5.53617,8.63519 -1.23061,3.26431 -0.89909,4.72427 -0.98804,4.36176 z M 98.699356,344.33197 86.519142,332.47269 C 114.6936,303.53574 163.17403,311.42422 181.50728,347.1253 l -15.12259,7.76578 -15.12259,7.76578 c -7.93269,-15.44766 -28.75397,-18.40887 -40.38252,-6.46564 z m 67.685334,10.55911 15.13685,-7.73794 c 1.48656,2.90799 3.09249,6.30301 3.93853,10.85663 0.72284,3.89056 0.75326,8.00784 0.75326,12.0903 h -17 -17 c 0,-2.1156 -0.0201,-3.4997 -0.0681,-4.52072 -0.0465,-0.98865 -0.1073,-1.32749 -0.11313,-1.35886 -6.7e-4,-0.004 0.007,0.0345 0.0229,0.0905 0.0155,0.0539 0.0215,0.0631 -0.002,0.003 -0.0696,-0.17847 -0.25355,-0.60568 -0.80545,-1.6853 l 15.13686,-7.73792 z m 2.82864,15.20899 h 17 c 0,4.07177 0.0155,8.43942 -0.83525,12.61154 -0.96531,4.73407 -2.84309,8.39297 -4.4246,11.42602 l -15.0739,-7.85986 -15.07392,-7.85986 c 1.55022,-2.97302 1.33931,-2.89841 1.25795,-2.49939 -0.0164,0.0804 0.0426,-0.15155 0.0873,-1.11881 0.0475,-1.02826 0.0624,-2.42581 0.0624,-4.69964 h 17 z m -3.33375,16.1777 15.14219,7.72748 c -3.50428,6.86673 -7.91777,12.05517 -13.69538,17.2341 L 155.97934,398.5806 144.63228,385.92181 c 3.51648,-3.1521 4.96232,-5.1322 6.1051,-7.37152 z m -9.90024,12.30283 11.02782,12.9378 c -1.43221,1.22077 -2.44704,2.22043 -2.90836,2.72214 -0.31519,0.3428 -0.026,0.0756 0.45428,-0.6398 0.12942,-0.19278 1.05712,-1.5387 1.75168,-3.58939 0.32997,-0.97421 1.06681,-3.40185 0.82628,-6.59231 -0.27997,-3.7139 -2.01019,-8.86274 -6.98422,-12.44001 l -9.9258,13.8014 -9.92579,13.80142 c -5.02454,-3.61359 -6.78238,-8.81842 -7.06798,-12.60694 -0.24614,-3.26504 0.50708,-5.78588 0.87453,-6.87075 0.76954,-2.2721 1.85667,-3.9094 2.22287,-4.45481 0.95381,-1.42074 2.02594,-2.63855 2.74623,-3.4219 1.60965,-1.75058 3.67601,-3.70551 5.88063,-5.58469 z m -5.75832,6.19983 8.59503,-14.66715 c -1.52513,-0.89374 -2.50273,-1.06323 -1.18435,-0.66766 0.76256,0.22879 1.94795,0.54385 3.57846,0.93145 3.22967,0.7678 7.55047,1.66584 12.39276,2.57572 9.74323,1.83078 20.77589,3.55627 28.15623,4.31293 l -1.73384,16.91134 -1.73385,16.91138 c -8.6823,-0.89017 -20.73336,-2.79742 -30.96739,-4.72046 -5.14637,-0.96701 -10.0376,-1.97613 -13.97738,-2.91272 -1.95423,-0.46457 -3.84294,-0.95096 -5.48558,-1.44379 -1.08683,-0.32608 -3.80078,-1.13736 -6.2351,-2.56387 z m 49.80429,9.39663 1.64997,-16.91974 c 5.09907,0.49726 15.77401,0.81601 25.59213,0.84009 4.82175,0.0118 9.11366,-0.0485 12.09663,-0.1705 1.5559,-0.0636 2.42524,-0.13165 2.74704,-0.16803 0.27437,-0.031 -0.27952,0.0112 -1.17323,0.23724 -0.30836,0.078 -1.77415,0.4412 -3.51842,1.36695 -0.85904,0.45593 -2.6739,1.5058 -4.46159,3.44644 -1.89911,2.06158 -4.47223,5.96487 -4.47223,11.46445 h 17 16.99999 c 0,5.53589 -2.58948,9.47488 -4.52094,11.57156 -1.82001,1.97574 -3.68317,3.06012 -4.60602,3.5499 -1.87192,0.9935 -3.52749,1.42202 -4.08442,1.56286 -1.39084,0.35175 -2.67695,0.50998 -3.34296,0.5853 -1.55896,0.17627 -3.40302,0.28232 -5.17772,0.35492 -3.67824,0.15045 -8.51627,0.21121 -13.5695,0.19882 -9.93186,-0.0244 -21.98706,-0.33527 -28.80869,-1.00052 z m 45.4603,0.0969 h -17 c 0,3.1185 0.88828,5.40524 1.31514,6.38205 0.51256,1.17294 1.07092,2.04342 1.47946,2.61148 0.79883,1.11068 1.74568,2.06521 2.86528,2.87042 l 9.9258,-13.80142 9.9258,-13.8014 c 1.92778,1.38645 3.5818,3.06751 4.88572,4.88053 0.72425,1.00699 3.60279,5.04184 3.60279,10.85834 z m -1.41432,-1.93747 -10.7945,13.13314 c -2.17277,-1.78588 -3.59294,-3.88275 -3.85803,-4.26077 -0.62863,-0.89639 -1.22191,-1.84326 -1.7406,-2.7157 -1.05058,-1.76712 -2.17705,-3.87381 -3.19525,-6.00964 l 15.34541,-7.31558 15.34543,-7.31562 c 0.29073,0.60987 0.59979,1.22053 0.90535,1.79441 0.30719,0.5769 0.59021,1.07785 0.82425,1.47153 0.25162,0.42321 0.37183,0.59643 0.35248,0.56887 -0.008,-0.011 -0.14087,-0.20233 -0.38376,-0.4971 -0.12564,-0.15249 -0.33347,-0.397 -0.6153,-0.69403 -0.26126,-0.27533 -0.73324,-0.75201 -1.39099,-1.29263 z m -4.24297,-7.16855 -15.30914,7.3912 c -1.43587,-2.97406 -2.92628,-6.31756 -3.77238,-10.54641 -0.78031,-3.89994 -0.84813,-7.78132 -0.84813,-11.56943 h 17 17 c 0,3.76794 0.13421,4.63333 0.18734,4.89889 0.004,0.0175 0.0119,0.0825 0.11234,0.34711 0.13405,0.35312 0.38569,0.9411 0.93912,2.0874 z m -2.92965,-14.72464 h -17 c 0,-3.70554 0.0249,-7.74539 0.87985,-11.82111 0.92361,-4.40304 2.6029,-7.92605 4.17222,-11.03955 l 15.18065,7.65167 15.18065,7.65168 c -0.67174,1.33267 -0.98404,2.01971 -1.15387,2.44116 -0.073,0.18124 -0.10011,0.26623 -0.1055,0.28354 -0.003,0.01 -0.003,0.0102 -0.001,0.004 7e-4,-0.003 0.001,-0.005 0.002,-0.008 6.3e-4,-0.003 9.4e-4,-0.004 9.2e-4,-0.004 -1e-5,9e-5 -5.8e-4,0.003 -0.002,0.008 -0.001,0.006 -0.003,0.0149 -0.005,0.0284 -0.004,0.0267 -0.0113,0.0734 -0.0198,0.14456 -0.0175,0.14551 -0.0409,0.38831 -0.0623,0.77444 -0.0462,0.83231 -0.0669,1.98844 -0.0669,3.88523 h -17 z m 3.23272,-15.20899 -15.25601,-7.50024 c 9.45751,-19.23721 28.18796,-31.26169 49.5551,-32.34009 l 0.85687,16.97839 0.85691,16.9784 c -9.34385,0.47159 -16.87934,5.4967 -20.75684,13.38379 z m 35.15596,-22.86194 -0.79821,-16.98123 c 13.63974,-0.64114 24.01864,1.92911 35.61462,9.34214 l -9.15659,14.3233 -9.15658,14.3233 c -5.37589,-3.43667 -8.73609,-4.35382 -15.70502,-4.02624 z m 25.65982,6.68421 9.15659,-14.3233 c 19.32086,12.35141 29.69986,35.68029 24.23651,58.23663 l -16.52228,-4.00183 -16.52228,-4.00183 c 1.81031,-7.47412 -1.5498,-16.5007 -9.50512,-21.58637 z m 16.87082,39.9115 16.58365,3.73929 -0.80817,3.58429 -16.58367,-3.73929 -16.58365,-3.73929 0.80819,-3.58426 z m -0.80819,3.58429 -5.40229,-16.11878 10.40537,-3.48742 5.40228,16.11877 5.40231,16.11881 -10.40536,3.48739 z m 10.40536,-3.48743 -5.4668,-16.09698 C 395.52902,357.97873 452.88367,304.34647 473.69131,244.1349 l 16.06763,5.55258 16.06763,5.55259 c -24.85468,71.92259 -91.3541,132.21244 -172.94458,159.92192 z m 162.34378,-149.37746 -16.0628,-5.56654 C 503.11591,159.22719 461.16861,74.348969 366.44919,37.081573 l 6.22424,-15.81958 6.22421,-15.81958 C 488.04242,48.385498 542.06683,150.66504 505.82175,255.25401 Z M 372.67343,21.261993 366.45712,37.084686 C 331.72607,23.43985 284.79156,17.506348 244.24347,21.796204 l -1.78854,-16.905671 -1.78856,-16.905639 c 45.52339,-4.816193 97.9954,1.649994 138.22334,17.454407 z" /></g></g></g></g></svg>