<?xml version="1.0" encoding="UTF-8" standalone="no"?>
<svg
   version="1.0"
   width="794pt"
   height="1123pt"
   viewBox="0 0 794 1123"
   preserveAspectRatio="xMidYMid"
   id="svg1"
   sodipodi:docname="traka.svg"
   inkscape:export-filename="..\Pictures\Para el LOGO -MSmartBuy\Icono Title.svg"
   inkscape:export-xdpi="96"
   inkscape:export-ydpi="96"
   xmlns:inkscape="http://www.inkscape.org/namespaces/inkscape"
   xmlns:sodipodi="http://sodipodi.sourceforge.net/DTD/sodipodi-0.dtd"
   xmlns="http://www.w3.org/2000/svg"
   xmlns:svg="http://www.w3.org/2000/svg">
  <defs
     id="defs1" />
  <sodipodi:namedview
     id="namedview1"
     pagecolor="#505050"
     bordercolor="#ffffff"
     borderopacity="1"
     inkscape:showpageshadow="0"
     inkscape:pageopacity="0"
     inkscape:pagecheckerboard="1"
     inkscape:deskcolor="#505050"
     inkscape:document-units="pt" />
  <metadata
     id="metadata1">
Created by potrace 1.16, written by Peter Selinger 2001-2019
</metadata>
  <g
     transform="matrix(0.06929825,0,0,-0.07040359,136.93603,951.12638)"
     fill="#000000"
     stroke="none"
     id="g1"
     inkscape:label="g1">
    <ellipse
       style="fill:#000000;fill-opacity:1;fill-rule:evenodd;stroke:none;stroke-width:618.48;stroke-linecap:round;stroke-dasharray:none;stroke-opacity:1"
       id="path3"
       cx="3781.417"
       cy="-5525.5903"
       transform="scale(1,-1)"
       rx="4751.4961"
       ry="4647.2964" />
    <path
       d="M 3691.5358,8552.7724 C 3194.0906,8528.7279 2657.1821,8429.4137 2205.4312,8278.8744 1814.9523,8147.1524 1508.5925,7993.4768 1217.8103,7781.2581 1075.5347,7677.7623 862.64061,7456.1348 770.21341,7316.0496 592.62858,7045.2878 486.70078,6749.4361 428.54435,6359.4973 c -21.80867,-148.4486 -18.69314,-704.608 5.19253,-883.3735 87.23466,-651.2919 308.43682,-1282.721 646.99032,-1847.2436 513.0229,-856.1928 1198.438,-1391.4439 1940.9711,-1518.9842 654.2599,-111.8591 1439.3718,108.7229 2212.0216,622.0204 788.2274,522.7061 1463.2575,1284.8118 1853.7364,2090.8247 406.0566,838.4207 462.136,1629.7979 159.9302,2263.3178 -114.2358,239.3994 -287.6666,465.2085 -491.2141,638.7469 -551.4477,473.5718 -1372.9074,757.924 -2374.0289,824.8304 -142.2755,9.4087 -526.5234,11.4995 -690.6077,3.1362 z M 4928.3986,8032.157 c 422.6727,-44.9527 798.6125,-178.7655 1133.012,-401.4383 486.0217,-326.1687 787.1889,-778.8322 882.7317,-1328.7191 17.6546,-104.5413 17.6546,-471.481 0,-574.9768 -40.5018,-231.0361 -93.4657,-394.1205 -195.2395,-603.2029 -125.6594,-259.2623 -266.8965,-456.8453 -487.0602,-677.4273 -295.9747,-298.9879 -649.0673,-524.797 -1057.2009,-678.4726 -125.6594,-47.0435 -136.0445,-43.9073 -125.6594,45.9982 13.5006,117.0861 -40.5018,265.5347 -123.5825,340.8044 -22.8471,20.9082 -71.657,52.2706 -110.0818,71.088 -63.349,30.317 -76.8496,32.4078 -177.5848,32.4078 -100.7353,0 -114.2359,-2.0908 -177.5849,-32.4078 -118.3898,-56.4522 -185.8929,-133.8128 -221.2021,-254.0352 -30.1167,-103.4958 -15.5776,-233.1269 36.3478,-324.0778 19.7316,-32.4078 19.7316,-36.5894 4.154,-52.2706 -25.9627,-26.1353 -367.6318,-20.9083 -565.9868,9.4087 -183.8158,27.1807 -363.4777,68.9972 -384.2479,90.9509 -13.5006,13.5903 -12.462,17.772 15.5777,37.6348 58.1564,42.8619 101.7737,96.1779 133.9675,164.1297 30.1167,62.7248 32.1937,76.3151 32.1937,177.7201 0,103.4959 -2.077,114.9954 -34.2707,179.811 -109.0434,224.7636 -395.6715,296.8971 -613.7582,154.721 -102.8122,-66.9064 -165.1227,-186.0834 -170.3152,-321.987 -4.1541,-96.1779 -17.6547,-101.405 -101.7738,-38.6803 -349.9771,258.2169 -603.373,597.9759 -730.071,979.5514 -99.6967,301.0788 -117.3514,665.9277 -46.7328,996.278 36.3477,173.5385 79.9651,286.443 130.852,340.8044 110.0818,119.177 306.3598,169.3568 522.3694,133.8128 116.3129,-18.8174 185.8929,-66.9064 259.6269,-179.8109 55.0409,-84.6784 78.9266,-165.1752 87.2347,-300.0334 4.154,-60.6339 16.6161,-181.9017 28.0397,-270.7618 84.1191,-669.0639 263.781,-957.5977 692.6847,-1113.3641 182.7774,-65.861 386.3249,-104.5413 915.9639,-173.5385 179.6618,-24.0445 372.8243,-49.1344 427.8652,-57.4977 126.6979,-19.8628 195.2394,-19.8628 264.8195,-1.0454 135.006,36.5895 240.9338,121.2679 299.0902,239.3995 33.2323,68.9972 48.8099,141.1306 180.7004,833.1936 78.9266,417.1196 146.4296,775.696 149.5451,796.6042 8.3081,57.4977 -9.3466,167.266 -38.4248,232.0816 -35.3093,80.4967 -106.9663,153.6756 -185.8929,190.265 l -64.3875,30.317 h -306.3598 c -590.9109,-1.0454 -1019.8146,-74.2243 -1110.1648,-189.2196 -29.0782,-37.6349 -24.9242,-98.2688 9.3466,-135.9037 24.9242,-26.1353 199.3935,-103.4958 311.5523,-137.9944 158.8917,-49.1344 391.5174,-62.7247 573.2563,-33.4532 81.0036,12.545 94.5042,11.4996 136.0445,-4.1816 59.195,-22.9991 160.9687,-128.5858 196.278,-204.9009 77.8881,-166.2205 99.6967,-398.3021 48.8099,-533.1603 -38.4248,-100.3595 -94.5042,-180.8563 -210.8171,-300.0333 -94.5042,-95.1325 -111.1203,-107.6775 -166.1613,-123.3587 -68.5415,-19.8628 -156.8146,-16.7266 -217.0481,9.4087 -18.6931,7.3179 -75.8111,44.9528 -127.7365,83.633 -130.8519,97.2234 -189.0084,116.0408 -362.4392,116.0408 -121.5054,-1.0454 -146.4296,-4.1816 -248.2033,-34.4986 -195.2395,-57.4977 -264.8195,-43.9073 -392.556,79.4513 -104.8893,101.405 -199.3935,219.5366 -249.2419,312.5783 -37.3862,70.0427 -39.4633,80.4968 -81.0036,383.6664 -57.1179,415.0287 -98.6582,571.8405 -182.7773,682.6542 -34.2708,44.9528 -154.7377,104.5413 -336.4766,165.1752 -203.5475,67.9518 -259.6269,120.2224 -259.6269,242.5357 0,104.5412 74.7726,201.7646 265.858,343.9406 441.3658,328.2595 964.7737,531.0695 1520.3754,588.5672 142.2756,14.6358 450.7124,12.5449 603.373,-4.1817 z"
       id="path1"
       style="display:none;fill:#2ecb70;fill-opacity:1;stroke-width:258.48;stroke-dasharray:none" />
    <path
       d="m 3640.3479,8532.739 c -479,-23 -996,-118 -1431,-262 -376,-126 -671,-273 -951.0001,-476 -136.9999,-99 -341.99991,-311 -430.99991,-445 -171,-259 -273,-542 -329,-915 -21,-142 -18,-674 5,-845 84,-623 297,-1227 623.00001,-1767 494,-819 1154,-1331 1869,-1453 630,-107 1386,104 2130,595 759,500 1409,1229 1785,2000 391,802 445,1559 154,2165 -110,229 -277,445 -473,611 -531,453 -1322,725 -2286,789 -137,9 -507,11 -665,3 z m 1191,-498 c 407,-43 769,-171 1091,-384 468,-312 758,-745 850,-1271 17,-100 17,-451 0,-550 -39,-221 -90,-377 -188,-577 -121,-248 -257,-437 -469,-648 -285,-286 -625,-502 -1018,-649 -121,-45 -131,-42 -121,44 13,112 -39,254 -119,326 -22,20 -69,50 -106,68 -61,29 -74,31 -171,31 -97,0 -110,-2 -171,-31 -114,-54 -179,-128 -213,-243 -29,-99 -15,-223 35,-310 19,-31 19,-35 4,-50 -25,-25 -354,-20 -545,9 -177,26 -350,66 -370,87 -13,13 -12,17 15,36 56,41 98,92 129,157 29,60 31,73 31,170 0,99 -2,110 -33,172 -105,215 -381,284 -591,148 -99,-64 -159,-178 -164,-308 -4,-92 -17,-97 -98,-37 -337,247 -581,572 -703,937 -96,288 -113,637 -45,953 35,166 77,274 126,326 106,114 295,162 503,128 112,-18 179,-64 250,-172 53,-81 76,-158 84,-287 4,-58 16,-174 27,-259 81,-640 254,-916 667,-1065 176,-63 372,-100 882,-166 173,-23 359,-47 412,-55 122,-19 188,-19 255,-1 130,35 232,116 288,229 32,66 47,135 174,797 76,399 141,742 144,762 8,55 -9,160 -37,222 -34,77 -103,147 -179,182 l -62,29 h -295 c -569,-1 -982,-71 -1069,-181 -28,-36 -24,-94 9,-130 24,-25 192,-99 300,-132 153,-47 377,-60 552,-32 78,12 91,11 131,-4 57,-22 155,-123 189,-196 75,-159 96,-381 47,-510 -37,-96 -91,-173 -203,-287 -91,-91 -107,-103 -160,-118 -66,-19 -151,-16 -209,9 -18,7 -73,43 -123,80 -126,93 -182,111 -349,111 -117,-1 -141,-4 -239,-33 -188,-55 -255,-42 -378,76 -101,97 -192,210 -240,299 -36,67 -38,77 -78,367 -55,397 -95,547 -176,653 -33,43 -149,100 -324,158 -196,65 -250,115 -250,232 0,100 72,193 256,329 425,314 929,508 1464,563 137,14 434,12 581,-4 z"
       id="path2"
       inkscape:label="path2"
       style="display:inline;fill:#ffffff;fill-opacity:1" />
  </g>
</svg>
