<?xml version="1.0" standalone="no"?>
<!DOCTYPE svg PUBLIC "-//W3C//DTD SVG 20010904//EN"
 "http://www.w3.org/TR/2001/REC-SVG-20010904/DTD/svg10.dtd">
<svg version="1.0" xmlns="http://www.w3.org/2000/svg"
 width="794.000000pt" height="1123.000000pt" viewBox="0 0 794.000000 1123.000000"
 preserveAspectRatio="xMidYMid meet">
<metadata>
Created by potrace 1.16, written by Peter Selinger 2001-2019
</metadata>
<g transform="translate(0.000000,1123.000000) scale(0.100000,-0.100000)"
fill="#000000" stroke="none">
<path d="M3570 8553 c-479 -23 -996 -118 -1431 -262 -376 -126 -671 -273 -951
-476 -137 -99 -342 -311 -431 -445 -171 -259 -273 -542 -329 -915 -21 -142
-18 -674 5 -845 84 -623 297 -1227 623 -1767 494 -819 1154 -1331 1869 -1453
630 -107 1386 104 2130 595 759 500 1409 1229 1785 2000 391 802 445 1559 154
2165 -110 229 -277 445 -473 611 -531 453 -1322 725 -2286 789 -137 9 -507 11
-665 3z m1191 -498 c407 -43 769 -171 1091 -384 468 -312 758 -745 850 -1271
17 -100 17 -451 0 -550 -39 -221 -90 -377 -188 -577 -121 -248 -257 -437 -469
-648 -285 -286 -625 -502 -1018 -649 -121 -45 -131 -42 -121 44 13 112 -39
254 -119 326 -22 20 -69 50 -106 68 -61 29 -74 31 -171 31 -97 0 -110 -2 -171
-31 -114 -54 -179 -128 -213 -243 -29 -99 -15 -223 35 -310 19 -31 19 -35 4
-50 -25 -25 -354 -20 -545 9 -177 26 -350 66 -370 87 -13 13 -12 17 15 36 56
41 98 92 129 157 29 60 31 73 31 170 0 99 -2 110 -33 172 -105 215 -381 284
-591 148 -99 -64 -159 -178 -164 -308 -4 -92 -17 -97 -98 -37 -337 247 -581
572 -703 937 -96 288 -113 637 -45 953 35 166 77 274 126 326 106 114 295 162
503 128 112 -18 179 -64 250 -172 53 -81 76 -158 84 -287 4 -58 16 -174 27
-259 81 -640 254 -916 667 -1065 176 -63 372 -100 882 -166 173 -23 359 -47
412 -55 122 -19 188 -19 255 -1 130 35 232 116 288 229 32 66 47 135 174 797
76 399 141 742 144 762 8 55 -9 160 -37 222 -34 77 -103 147 -179 182 l-62 29
-295 0 c-569 -1 -982 -71 -1069 -181 -28 -36 -24 -94 9 -130 24 -25 192 -99
300 -132 153 -47 377 -60 552 -32 78 12 91 11 131 -4 57 -22 155 -123 189
-196 75 -159 96 -381 47 -510 -37 -96 -91 -173 -203 -287 -91 -91 -107 -103
-160 -118 -66 -19 -151 -16 -209 9 -18 7 -73 43 -123 80 -126 93 -182 111
-349 111 -117 -1 -141 -4 -239 -33 -188 -55 -255 -42 -378 76 -101 97 -192
210 -240 299 -36 67 -38 77 -78 367 -55 397 -95 547 -176 653 -33 43 -149 100
-324 158 -196 65 -250 115 -250 232 0 100 72 193 256 329 425 314 929 508
1464 563 137 14 434 12 581 -4z"/>
</g>
</svg>
