<?xml version="1.0" encoding="UTF-8" standalone="no"?>
<!-- Created with Inkscape (http://www.inkscape.org/) -->

<svg
   width="210mm"
   height="297mm"
   viewBox="0 0 210 297"
   version="1.1"
   id="svg1"
   xml:space="preserve"
   inkscape:export-filename="bitmap.svg"
   inkscape:export-xdpi="96"
   inkscape:export-ydpi="96"
   xmlns:inkscape="http://www.inkscape.org/namespaces/inkscape"
   xmlns:sodipodi="http://sodipodi.sourceforge.net/DTD/sodipodi-0.dtd"
   xmlns:xlink="http://www.w3.org/1999/xlink"
   xmlns="http://www.w3.org/2000/svg"
   xmlns:svg="http://www.w3.org/2000/svg"><sodipodi:namedview
     id="namedview1"
     pagecolor="#505050"
     bordercolor="#ffffff"
     borderopacity="1"
     inkscape:showpageshadow="0"
     inkscape:pageopacity="0"
     inkscape:pagecheckerboard="1"
     inkscape:deskcolor="#505050"
     inkscape:document-units="mm" /><defs
     id="defs1"><inkscape:path-effect
       effect="fillet_chamfer"
       id="path-effect74"
       is_visible="true"
       lpeversion="1"
       nodesatellites_param="F,0,0,1,0,0.64518012,0,1 @ F,0,0,1,0,1.5049165,0,1 @ F,0,0,1,0,0.9290913,0,1 @ F,0,0,1,0,0,0,1 | F,0,0,1,0,0.73735215,0,1 @ F,0,0,1,0,0,0,1 @ F,0,0,1,0,0,0,1 @ F,0,0,1,0,1.015807,0,1"
       radius="0"
       unit="px"
       method="auto"
       mode="F"
       chamfer_steps="1"
       flexible="false"
       use_knot_distance="true"
       apply_no_radius="true"
       apply_with_radius="true"
       only_selected="false"
       hide_knots="false" /><inkscape:path-effect
       effect="fillet_chamfer"
       id="path-effect32"
       is_visible="true"
       lpeversion="1"
       nodesatellites_param="F,0,0,1,0,0.5646514,0,1 @ F,0,0,1,0,0.45758441,0,1 @ F,0,0,1,0,0.8370022,0,1 @ F,0,0,1,0,0.98174014,0,1"
       radius="0"
       unit="px"
       method="auto"
       mode="F"
       chamfer_steps="1"
       flexible="false"
       use_knot_distance="true"
       apply_no_radius="true"
       apply_with_radius="true"
       only_selected="false"
       hide_knots="false" /><inkscape:path-effect
       effect="fillet_chamfer"
       id="path-effect30"
       is_visible="true"
       lpeversion="1"
       nodesatellites_param="F,0,0,1,0,1.1518333,0,1 @ F,0,0,1,0,2.3190933,0,1 @ F,0,0,1,0,1.9940355,0,1 @ F,0,0,1,0,1.4589239,0,1 | F,0,0,1,0,0.49358709,0,1 @ F,0,0,1,0,0.524583,0,1 @ F,0,0,1,0,0.63415252,0,1 @ F,0,0,1,0,0.8467339,0,1"
       radius="0"
       unit="px"
       method="auto"
       mode="F"
       chamfer_steps="1"
       flexible="false"
       use_knot_distance="true"
       apply_no_radius="true"
       apply_with_radius="true"
       only_selected="false"
       hide_knots="false" /><linearGradient
       id="swatch23"
       inkscape:swatch="solid"><stop
         style="stop-color:#000000;stop-opacity:1;"
         offset="0"
         id="stop23" /></linearGradient><linearGradient
       inkscape:collect="always"
       xlink:href="#swatch23"
       id="linearGradient23"
       x1="79.118851"
       y1="141.38799"
       x2="131.66669"
       y2="141.38799"
       gradientUnits="userSpaceOnUse"
       gradientTransform="matrix(1.0020721,0,0,0.89927785,-0.21809596,15.782763)" /><linearGradient
       inkscape:collect="always"
       xlink:href="#swatch23"
       id="linearGradient24"
       gradientUnits="userSpaceOnUse"
       x1="79.118851"
       y1="141.38799"
       x2="131.66669"
       y2="141.38799"
       gradientTransform="translate(22.388362,21.923593)" /></defs><g
     inkscape:label="Capa 1"
     inkscape:groupmode="layer"
     id="layer1"
     style="opacity:1"><ellipse
       style="opacity:1;fill:#ffffff;fill-opacity:1;fill-rule:nonzero;stroke:none;stroke-width:1.78277;stroke-linecap:round;stroke-dasharray:none;stroke-opacity:1;paint-order:normal"
       id="path84"
       cx="105.00536"
       cy="142.24501"
       rx="59.86644"
       ry="60.440243" /><path
       style="fill:#ffffff;stroke-width:0.0357849;stroke-dasharray:none"
       d="m 355.30404,473.13709 c 24.45201,-0.22221 64.46437,-0.22221 88.91638,0 24.452,0.22221 4.44582,0.40402 -44.45819,0.40402 -48.90401,0 -68.91019,-0.18181 -44.45819,-0.40402 z"
       id="path1"
       transform="scale(0.26458333)" /><path
       id="rect30"
       style="stroke-width:0.0127778;stroke-dasharray:none"
       d="m 80.765472,160.73975 h 49.424488 a 0.68828189,0.68828189 33.616803 0 1 0.63465,0.42193 l 1.66296,3.96253 a 0.55794162,0.55794162 123.54638 0 1 -0.5131,0.77385 l -53.192527,0.13077 a 0.63095036,0.63095036 57.130868 0 1 -0.576135,-0.89163 l 1.76173,-3.88324 a 0.876211,0.876211 147.2013 0 1 0.797934,-0.51421 z"
       sodipodi:nodetypes="ccccc"
       inkscape:path-effect="#path-effect32"
       inkscape:original-d="m 80.200821,160.73975 h 50.446719 l 2.16393,5.15625 -55.011264,0.13524 z" /><path
       id="rect32"
       style="stroke-width:0.051111;stroke-dasharray:none"
       d="m 83.58197,118.06967 h 8.926229 L 86.55738,129.6332 H 76.413937 Z"
       sodipodi:nodetypes="ccccc" /><g
       id="path32"
       transform="translate(-9.8497457,-1.1304873)"
       style="stroke-width:0.0247511;stroke-dasharray:none"><path
         style="color:#000000;fill:#000000;fill-opacity:0;stroke-width:0.0247511;stroke-linecap:round;stroke-dasharray:none"
         d="m 96.092209,134.67111 c 2e-6,2.85706 -2.134444,5.17316 -4.767418,5.17316 -2.632974,0 -4.76742,-2.3161 -4.767418,-5.17316 3e-6,-2.85705 -0.83783,-5.11231 4.767418,-5.10553 5.614975,0.007 4.767415,2.24848 4.767418,5.10553"
         id="path33" /><path
         style="color:#000000;fill:#000000;stroke-width:0.0247511;stroke-linecap:round;stroke-dasharray:none"
         d="m 91.326172,128.58398 c -1.467165,-0.002 -2.564999,0.13347 -3.44336,0.44922 -0.87836,0.31575 -1.548226,0.87088 -1.910156,1.54883 -0.723859,1.35591 -0.398436,2.75736 -0.398437,4.08984 -3e-6,3.3464 2.540856,6.1543 5.75,6.1543 3.209143,0 5.750003,-2.8079 5.75,-6.1543 -2e-6,-1.33137 0.330495,-2.72868 -0.392578,-4.08398 -0.361537,-0.67765 -1.032012,-1.23257 -1.910157,-1.54883 -0.878144,-0.31625 -1.976166,-0.45319 -3.445312,-0.45508 z m -0.002,1.96485 c 1.338338,0.002 2.239102,0.14459 2.78125,0.33984 0.542148,0.19525 0.713352,0.3823 0.841797,0.62305 0.25689,0.4815 0.162108,1.63448 0.162109,3.16015 2e-6,2.36772 -1.728357,4.18946 -3.785156,4.18946 -2.056799,0 -3.785158,-1.82174 -3.785157,-4.18946 2e-6,-1.52456 -0.09252,-2.67978 0.166016,-3.16406 0.129268,-0.24214 0.300777,-0.43051 0.841797,-0.625 0.54102,-0.19448 1.441888,-0.3356 2.777344,-0.33398 z"
         id="path34"
         sodipodi:nodetypes="ssssssssscsssssssc" /></g><g
       id="g46"
       transform="translate(-0.17966454,-0.79237277)"
       style="fill:#000000;fill-opacity:1;stroke-width:0.0247511;stroke-dasharray:none"><path
         style="color:#000000;fill:#000000;fill-opacity:1;stroke-width:0.0247511;stroke-linecap:round;stroke-dasharray:none"
         d="m 96.092209,134.67111 c 2e-6,2.85706 -2.134444,5.17316 -4.767418,5.17316 -2.632974,0 -4.76742,-2.3161 -4.767418,-5.17316 3e-6,-2.85705 -0.83783,-5.11231 4.767418,-5.10553 5.614975,0.007 4.767415,2.24848 4.767418,5.10553"
         id="path45" /><path
         style="color:#000000;fill:#000000;fill-opacity:1;stroke:none;stroke-width:0.0247511;stroke-linecap:round;stroke-dasharray:none;stroke-opacity:1"
         d="m 91.326172,128.58398 c -1.467165,-0.002 -2.564999,0.13347 -3.44336,0.44922 -0.87836,0.31575 -1.548226,0.87088 -1.910156,1.54883 -0.723859,1.35591 -0.398436,2.75736 -0.398437,4.08984 -3e-6,3.3464 2.540856,6.1543 5.75,6.1543 3.209143,0 5.750003,-2.8079 5.75,-6.1543 -2e-6,-1.33137 0.330495,-2.72868 -0.392578,-4.08398 -0.361537,-0.67765 -1.032012,-1.23257 -1.910157,-1.54883 -0.878144,-0.31625 -1.976166,-0.45319 -3.445312,-0.45508 z m -0.002,1.96485 c 1.338338,0.002 2.239102,0.14459 2.78125,0.33984 0.542148,0.19525 0.713352,0.3823 0.841797,0.62305 0.25689,0.4815 0.162108,1.63448 0.162109,3.16015 2e-6,2.36772 -1.728357,4.18946 -3.785156,4.18946 -2.056799,0 -3.785158,-1.82174 -3.785157,-4.18946 2e-6,-1.52456 -0.09252,-2.67978 0.166016,-3.16406 0.129268,-0.24214 0.300777,-0.43051 0.841797,-0.625 0.54102,-0.19448 1.441888,-0.3356 2.777344,-0.33398 z"
         id="path46"
         sodipodi:nodetypes="ssssssssscsssssssc" /></g><g
       id="g54"
       transform="translate(9.3551715,-0.58950391)"
       style="stroke-width:0.0247511;stroke-dasharray:none"><path
         style="color:#000000;fill:#000000;fill-opacity:0;stroke-width:0.0247511;stroke-linecap:round;stroke-dasharray:none"
         d="m 96.092209,134.67111 c 2e-6,2.85706 -2.134444,5.17316 -4.767418,5.17316 -2.632974,0 -4.76742,-2.3161 -4.767418,-5.17316 3e-6,-2.85705 -0.83783,-5.11231 4.767418,-5.10553 5.614975,0.007 4.767415,2.24848 4.767418,5.10553"
         id="path53" /><path
         style="color:#000000;fill:#000000;stroke-width:0.0247511;stroke-linecap:round;stroke-dasharray:none"
         d="m 91.326172,128.58398 c -1.467165,-0.002 -2.564999,0.13347 -3.44336,0.44922 -0.87836,0.31575 -1.548226,0.87088 -1.910156,1.54883 -0.723859,1.35591 -0.398436,2.75736 -0.398437,4.08984 -3e-6,3.3464 2.540856,6.1543 5.75,6.1543 3.209143,0 5.750003,-2.8079 5.75,-6.1543 -2e-6,-1.33137 0.330495,-2.72868 -0.392578,-4.08398 -0.361537,-0.67765 -1.032012,-1.23257 -1.910157,-1.54883 -0.878144,-0.31625 -1.976166,-0.45319 -3.445312,-0.45508 z m -0.002,1.96485 c 1.338338,0.002 2.239102,0.14459 2.78125,0.33984 0.542148,0.19525 0.713352,0.3823 0.841797,0.62305 0.25689,0.4815 0.162108,1.63448 0.162109,3.16015 2e-6,2.36772 -1.728357,4.18946 -3.785156,4.18946 -2.056799,0 -3.785158,-1.82174 -3.785157,-4.18946 2e-6,-1.52456 -0.09252,-2.67978 0.166016,-3.16406 0.129268,-0.24214 0.300777,-0.43051 0.841797,-0.625 0.54102,-0.19448 1.441888,-0.3356 2.777344,-0.33398 z"
         id="path54"
         sodipodi:nodetypes="ssssssssscsssssssc" /></g><g
       id="g56"
       transform="translate(19.295745,-0.79237277)"
       style="fill:#000000;fill-opacity:1;stroke-width:0.0247511;stroke-dasharray:none"><path
         style="color:#000000;fill:#000000;fill-opacity:1;stroke-width:0.0247511;stroke-linecap:round;stroke-dasharray:none"
         d="m 96.092209,134.67111 c 2e-6,2.85706 -2.134444,5.17316 -4.767418,5.17316 -2.632974,0 -4.76742,-2.3161 -4.767418,-5.17316 3e-6,-2.85705 -0.83783,-5.11231 4.767418,-5.10553 5.614975,0.007 4.767415,2.24848 4.767418,5.10553"
         id="path55" /><path
         style="color:#000000;fill:#000000;fill-opacity:1;stroke:none;stroke-width:0.0247511;stroke-linecap:round;stroke-dasharray:none;stroke-opacity:1"
         d="m 91.326172,128.58398 c -1.467165,-0.002 -2.564999,0.13347 -3.44336,0.44922 -0.87836,0.31575 -1.548226,0.87088 -1.910156,1.54883 -0.723859,1.35591 -0.398436,2.75736 -0.398437,4.08984 -3e-6,3.3464 2.540856,6.1543 5.75,6.1543 3.209143,0 5.750003,-2.8079 5.75,-6.1543 -2e-6,-1.33137 0.330495,-2.72868 -0.392578,-4.08398 -0.361537,-0.67765 -1.032012,-1.23257 -1.910157,-1.54883 -0.878144,-0.31625 -1.976166,-0.45319 -3.445312,-0.45508 z m -0.002,1.96485 c 1.338338,0.002 2.239102,0.14459 2.78125,0.33984 0.542148,0.19525 0.713352,0.3823 0.841797,0.62305 0.25689,0.4815 0.162108,1.63448 0.162109,3.16015 2e-6,2.36772 -1.728357,4.18946 -3.785156,4.18946 -2.056799,0 -3.785158,-1.82174 -3.785157,-4.18946 2e-6,-1.52456 -0.09252,-2.67978 0.166016,-3.16406 0.129268,-0.24214 0.300777,-0.43051 0.841797,-0.625 0.54102,-0.19448 1.441888,-0.3356 2.777344,-0.33398 z"
         id="path56"
         sodipodi:nodetypes="ssssssssscsssssssc" /></g><g
       id="g58"
       transform="translate(29.03345,-0.38663506)"
       style="stroke-width:0.0247511;stroke-dasharray:none"><path
         style="color:#000000;fill:#000000;fill-opacity:0;stroke-width:0.0247511;stroke-linecap:round;stroke-dasharray:none"
         d="m 96.092209,134.67111 c 2e-6,2.85706 -2.134444,5.17316 -4.767418,5.17316 -2.632974,0 -4.76742,-2.3161 -4.767418,-5.17316 3e-6,-2.85705 -0.83783,-5.11231 4.767418,-5.10553 5.614975,0.007 4.767415,2.24848 4.767418,5.10553"
         id="path57" /><path
         style="color:#000000;fill:#000000;stroke-width:0.0247511;stroke-linecap:round;stroke-dasharray:none"
         d="m 91.326172,128.58398 c -1.467165,-0.002 -2.564999,0.13347 -3.44336,0.44922 -0.87836,0.31575 -1.548226,0.87088 -1.910156,1.54883 -0.723859,1.35591 -0.398436,2.75736 -0.398437,4.08984 -3e-6,3.3464 2.540856,6.1543 5.75,6.1543 3.209143,0 5.750003,-2.8079 5.75,-6.1543 -2e-6,-1.33137 0.330495,-2.72868 -0.392578,-4.08398 -0.361537,-0.67765 -1.032012,-1.23257 -1.910157,-1.54883 -0.878144,-0.31625 -1.976166,-0.45319 -3.445312,-0.45508 z m -0.002,1.96485 c 1.338338,0.002 2.239102,0.14459 2.78125,0.33984 0.542148,0.19525 0.713352,0.3823 0.841797,0.62305 0.25689,0.4815 0.162108,1.63448 0.162109,3.16015 2e-6,2.36772 -1.728357,4.18946 -3.785156,4.18946 -2.056799,0 -3.785158,-1.82174 -3.785157,-4.18946 2e-6,-1.52456 -0.09252,-2.67978 0.166016,-3.16406 0.129268,-0.24214 0.300777,-0.43051 0.841797,-0.625 0.54102,-0.19448 1.441888,-0.3356 2.777344,-0.33398 z"
         id="path58"
         sodipodi:nodetypes="ssssssssscsssssssc" /></g><g
       id="g60"
       transform="translate(38.703532,-0.11614326)"
       style="fill:#000000;fill-opacity:1;stroke-width:0.0247511;stroke-dasharray:none"><path
         style="color:#000000;fill:#000000;fill-opacity:1;stroke-width:0.0247511;stroke-linecap:round;stroke-dasharray:none"
         d="m 96.092209,134.67111 c 2e-6,2.85706 -2.134444,5.17316 -4.767418,5.17316 -2.632974,0 -4.76742,-2.3161 -4.767418,-5.17316 3e-6,-2.85705 -0.83783,-5.11231 4.767418,-5.10553 5.614975,0.007 4.767415,2.24848 4.767418,5.10553"
         id="path59" /><path
         style="color:#000000;fill:#000000;fill-opacity:1;stroke-width:0.0247511;stroke-linecap:round;stroke-dasharray:none"
         d="m 91.326172,128.58398 c -1.467165,-0.002 -2.564999,0.13347 -3.44336,0.44922 -0.87836,0.31575 -1.548226,0.87088 -1.910156,1.54883 -0.723859,1.35591 -0.398436,2.75736 -0.398437,4.08984 -3e-6,3.3464 2.540856,6.1543 5.75,6.1543 3.209143,0 5.750003,-2.8079 5.75,-6.1543 -2e-6,-1.33137 0.330495,-2.72868 -0.392578,-4.08398 -0.361537,-0.67765 -1.032012,-1.23257 -1.910157,-1.54883 -0.878144,-0.31625 -1.976166,-0.45319 -3.445312,-0.45508 z m -0.002,1.96485 c 1.338338,0.002 2.239102,0.14459 2.78125,0.33984 0.542148,0.19525 0.713352,0.3823 0.841797,0.62305 0.25689,0.4815 0.162108,1.63448 0.162109,3.16015 2e-6,2.36772 -1.728357,4.18946 -3.785156,4.18946 -2.056799,0 -3.785158,-1.82174 -3.785157,-4.18946 2e-6,-1.52456 -0.09252,-2.67978 0.166016,-3.16406 0.129268,-0.24214 0.300777,-0.43051 0.841797,-0.625 0.54102,-0.19448 1.441888,-0.3356 2.777344,-0.33398 z"
         id="path60"
         sodipodi:nodetypes="ssssssssscsssssssc" /></g><path
       style="color:#000000;fill:#000000;fill-opacity:1;stroke:none;stroke-width:0.1;stroke-linecap:round;stroke-dasharray:none;stroke-opacity:1"
       d="m 126.6849,117.06981 -41.24444,0.0929 a 2.7504646,2.7504646 151.18573 0 0 -2.313514,1.27262 l -7.201958,11.30461 a 0.50971208,0.50971208 61.25023 0 0 0.429884,0.78358 H 135.40234 L 127.662,117.62161 a 1.1364662,1.1364662 29.454894 0 0 -0.9771,-0.5518 z m 0.175,2.13273 5.89401,9.8209 H 78.160156 l 6.053746,-9.50074 a 1.8568011,1.8568011 151.18665 0 1 1.561668,-0.85901 l 39.96755,-0.0917 a 1.2989934,1.2989934 29.449254 0 1 1.11678,0.63054 z"
       id="rect68"
       inkscape:path-effect="#path-effect74"
       inkscape:original-d="m 127.33008,117.06836 -43.394533,0.0977 -8.509766,13.35742 h 59.976559 z m -0.84961,1.50195 6.27344,10.45313 H 78.160156 l 6.59961,-10.35742 z" /><path
       id="rect74"
       style="stroke-width:0.0371267;stroke-linecap:round;stroke-dasharray:none"
       d="m 98.311029,117.91585 7.650671,0.0956 0.2869,11.476 -10.23277,-0.47817 z"
       sodipodi:nodetypes="ccccc" /><path
       id="rect75"
       style="stroke-width:0.0371267;stroke-linecap:round;stroke-dasharray:none"
       d="m 111.41279,118.01149 h 8.70262 l 4.8773,10.9022 -10.80655,0.19127 z"
       sodipodi:nodetypes="ccccc" /></g><g
     id="rect22-9"
     style="stroke-width:0.00618778;stroke-dasharray:none"
     sodipodi:insensitive="true"><path
       style="color:#000000;fill:#000000;fill-opacity:0;stroke-width:0.00618778;stroke-dasharray:none"
       d="m 79.24086,159.231 h 52.70348 l 7.57377,11.83602 -67.986266,-0.67623 z"
       id="path24" /><path
       style="color:#000000;fill:url(#linearGradient24);stroke-width:0.006;stroke-dasharray:none"
       d="m 78.044503,159.14688 -7.15013,10.3494 a 1.2312805,1.2312805 62.604845 0 0 1.000777,1.93109 l 67.52693,0.67193 a 1.0785747,1.0785747 118.97908 0 0 0.91926,-1.65982 l -7.04529,-11.01135 a 2.6654386,2.6654386 28.694027 0 0 -2.2452,-1.22891 l -51.199798,0 a 2.1957619,2.1957619 152.31979 0 0 -1.806549,0.94766 z m 2.232287,1.11679 h 50.57754 a 0.95846828,0.95846828 28.6925 0 1 0.80733,0.44186 l 5.61568,8.77594 a 0.34298824,0.34298824 118.97778 0 1 -0.29232,0.52784 l -62.652,-0.62393 a 0.4495323,0.4495323 62.606664 0 1 -0.365359,-0.70505 l 5.534958,-8.01058 a 0.94099795,0.94099795 152.32138 0 1 0.774171,-0.40608 z"
       id="path25"
       inkscape:path-effect="#path-effect30"
       inkscape:original-d="m 78.699219,158.19922 -9.123047,13.20508 71.839848,0.71484 -8.90625,-13.91992 z m 1.083984,2.06445 h 51.595707 l 6.24023,9.75195 -64.132812,-0.63867 z" /></g><rect
     style="fill:#000000;fill-opacity:0;stroke:url(#linearGradient23);stroke-width:1.999;stroke-dasharray:none"
     id="rect22"
     width="50.64426"
     height="26.941435"
     x="79.927193"
     y="129.28714"
     sodipodi:type="rect"
     ry="2.8380299"
     sodipodi:insensitive="true" /><rect
     style="fill:#ffffff;fill-opacity:1;stroke:none;stroke-width:0.0354758;stroke-linecap:round;stroke-dasharray:none;stroke-opacity:1;paint-order:normal"
     id="rect76"
     width="3.6854508"
     height="6.0353479"
     x="78.865265"
     y="130.5123"
     sodipodi:insensitive="true" /><ellipse
     style="fill:#ffffff;fill-opacity:1;stroke:none;stroke-width:0.058148;stroke-linecap:round;stroke-dasharray:none;stroke-opacity:1;paint-order:normal"
     id="path77"
     cx="81.494102"
     cy="135.38115"
     rx="3.03458"
     ry="2.3329918"
     sodipodi:insensitive="true" /><path
     id="path78"
     style="fill:none;stroke:#000000;stroke-width:1.699;stroke-linecap:round;stroke-dasharray:none"
     d="m 122.80327,117.73156 c 0,0 3.94093,0.12304 -15.82376,-0.0676 -23.145326,-0.22329 -17.987708,0.33812 -17.987708,0.33812 -0.996141,-9.30232 7.419568,-16.43238 16.905738,-16.43238 9.48617,0 16.8199,7.2653 16.90573,16.16189 z"
     sodipodi:nodetypes="sssss"
     sodipodi:insensitive="true" /></svg>
