<?xml version="1.0" standalone="no"?>
<!DOCTYPE svg PUBLIC "-//W3C//DTD SVG 20010904//EN"
 "http://www.w3.org/TR/2001/REC-SVG-20010904/DTD/svg10.dtd">
<svg version="1.0" xmlns="http://www.w3.org/2000/svg"
 width="794.000000pt" height="1123.000000pt" viewBox="0 0 794.000000 1123.000000"
 preserveAspectRatio="xMidYMid meet">
<metadata>
Created by potrace 1.16, written by Peter Selinger 2001-2019
</metadata>
<g transform="translate(0.000000,1123.000000) scale(0.100000,-0.100000)"
fill="#000000" stroke="none">
<path d="M4160 8045 c-541 -60 -1038 -255 -1453 -569 -150 -114 -183 -146
-212 -208 -45 -97 -23 -213 49 -258 18 -11 93 -40 167 -66 263 -90 321 -129
384 -258 52 -106 80 -230 125 -556 37 -263 44 -301 71 -354 52 -101 109 -178
213 -283 88 -88 108 -103 155 -117 78 -23 124 -20 247 16 79 22 137 32 210 36
166 7 248 -19 392 -126 98 -73 134 -86 232 -86 122 0 175 33 302 184 163 196
197 341 138 589 -29 118 -73 206 -136 267 -73 71 -108 79 -266 58 -222 -29
-414 -3 -639 87 -181 73 -230 123 -198 200 38 94 258 161 649 201 69 7 261 12
430 13 l305 0 67 -33 c114 -56 193 -166 218 -302 6 -34 8 -81 5 -104 -17 -107
-277 -1447 -290 -1491 -19 -66 -81 -161 -134 -207 -97 -83 -216 -124 -337
-116 -82 6 -700 88 -930 123 -565 88 -823 231 -983 545 -104 202 -173 518
-196 890 -11 178 -49 276 -144 371 -69 69 -119 87 -266 95 -178 10 -327 -36
-412 -129 -86 -94 -163 -429 -163 -714 0 -542 239 -1041 670 -1397 82 -69 189
-146 201 -146 4 0 3 19 -2 42 -20 85 26 212 108 299 197 211 540 155 670 -109
25 -51 28 -68 28 -157 0 -93 -2 -105 -33 -167 -23 -47 -52 -84 -98 -127 -36
-32 -61 -61 -57 -64 36 -22 334 -80 493 -97 118 -12 450 -13 450 -1 0 5 -6 14
-14 20 -7 6 -26 39 -42 74 -25 54 -29 74 -29 152 0 80 3 97 32 157 66 140 196
228 348 236 102 5 170 -13 254 -69 135 -90 203 -257 167 -412 l-8 -37 103 36
c768 272 1381 860 1607 1542 325 978 -150 1944 -1159 2358 -371 152 -863 216
-1289 169z"/>
</g>
</svg>
